<?xml version="1.0" encoding="UTF-8" standalone="no"?>
<svg
   xmlns:dc="http://purl.org/dc/elements/1.1/"
   xmlns:cc="http://creativecommons.org/ns#"
   xmlns:rdf="http://www.w3.org/1999/02/22-rdf-syntax-ns#"
   xmlns:svg="http://www.w3.org/2000/svg"
   xmlns="http://www.w3.org/2000/svg"
   xmlns:sodipodi="http://sodipodi.sourceforge.net/DTD/sodipodi-0.dtd"
   xmlns:inkscape="http://www.inkscape.org/namespaces/inkscape"
   version="1.1"
   width="248"
   height="248"
   id="svg2"
   inkscape:version="1.0.1 (3bc2e813f5, 2020-09-07)"
   sodipodi:docname="pine-tree.svg"
   inkscape:export-filename="pine-tree.png"
   inkscape:export-xdpi="12.39"
   inkscape:export-ydpi="12.39">
  <sodipodi:namedview
     pagecolor="#ffffff"
     bordercolor="#666666"
     borderopacity="1"
     objecttolerance="10"
     gridtolerance="10"
     guidetolerance="10"
     inkscape:pageopacity="0"
     inkscape:pageshadow="2"
     inkscape:window-width="2560"
     inkscape:window-height="1440"
     id="namedview22"
     showgrid="false"
     units="in"
     inkscape:zoom="4.0645161"
     inkscape:cx="61.536458"
     inkscape:cy="124"
     inkscape:window-x="0"
     inkscape:window-y="0"
     inkscape:window-maximized="0"
     inkscape:current-layer="svg2"
     inkscape:document-rotation="0" />
  <defs
     id="defs4" />
  <metadata
     id="metadata7">
    <rdf:RDF>
      <cc:Work
         rdf:about="">
        <dc:format>image/svg+xml</dc:format>
        <dc:type
           rdf:resource="http://purl.org/dc/dcmitype/StillImage" />
        <dc:title />
      </cc:Work>
    </rdf:RDF>
  </metadata>
  <g
     transform="matrix(0.99942628,0,0,0.99942628,-380.07009,-418.68584)"
     id="layer1">
    <g
       transform="translate(200.94578,11.335403)"
       id="g3921">
      <path
         d="m 281.41367,653.66196 v -2 h 2 2 v -4 -4 h -2 -2 v 2 2 h -2 -2 v -4 -4 h 2 2 v -4 -4 h 2 2 v -4 -4 h 2 2 v -6 -6 h 2 2 v -10 -10 h -2 -2 v -2 -2 h -6 -6 v 2 2 h -2 -2 v -2 -2 h 2 2 v -2 -2 h -4 -4 v 4 4 h -6 -6 v 2 2 h -2 -2 v 2 2 h -2 -2 v -2 -2 h -2 -2 v -2 -2 h -2 -2 v 2 2 h -4 -4 v -2 -2 h -2 -2 v -2 -2 h 2 2 v 2 2 h 4 4 v -2 -2 h -2 -2 v -2 -2 h -2 -2 v -2 -2 h 2 2 v -4 -4 h 4 4 v -2 -2 h 2 2 v 2 2 h -2 -2 v 2 2 h -2 -2 v 2 2 h -2 -2 v 2 2 h 4 4 v -2 -2 h 2 2 v -2 -2 h 2 2 v -6 -6 h 2 2 v -2 -2 h -6 -6 v -2 -2 h -4 -4 v 2 2 h 2 2 v 2 2 h -2 -2 v -2 -2 h -2 -2 v -2 -2 h -6 -6 v -2 -2 h 2 2 v -6 -6 h 2 2 v 2 2 h 4 4 v -2 -2 h -2 -2 v -2 -2 h 2 2 v 2 2 h 4 4 v -4 -4 h 4 4 v 2 2 h 6 6 v 2 2 h 2 2 v -4 -4 h -4 -4 v -4 -4 h -2 -2 v 2 2 h -2 -2 v -2 -2 h -2 -2 v -2 -2 h -2 -2 v 2 2 h -4 -4 v -2 -2 h 2 2 v -2 -2 h -4 -4 v -2 -2 h -6 -6 v -2 -2 h 2 2 v -2 -2 h -2 -2 v -2 -2 h 2 2 v 2 2 h 2 2 v -2 -2 h 2 2 v 2 2 h 2 2 v 2 2 h 2 2 v -4 -4 h 4 4 v 2 2 h 6 6 v 2 2 h 4 4 v 4 4 h 2 2 v -2 -2 h 2 2 v -2 -2 h 2 2 v -2 -2 h 4 4 v 6 6 h 2 2 v -8 -8 h -2 -2 v -4 -4 h -2 -2 v 2 2 h -2 -2 v 2 2 h -2 -2 v 2 2 h -2 -2 v -4 -4 h -2 -2 v -4 -4 h -4 -4 v 2 2 h -2 -2 v -2 -2 h 2 2 v -2 -2 h -4 -4 v 2 2 h -4 -4 v -2 -2 h 4 4 v -2 -2 h -4 -4 v -2 -2 h -2 -2 v -2 -2 h 2 2 v 2 2 h 6 6 v 2 2 h 2 2 v -2 -2 h 8 8 v 4 4 h 6 6 v 2 2 h 2 2 v -10 -10 h -4 -4 v -4 -4 h 2 2 v -2 -2 h 4 4 v 2 2 h 2 2 v -4 -4 h -2 -2 v -2 -2 h -4 -4 v 2 2 h -6 -6 v -2 -2 h 6 6 v -2 -2 h -6 -6 v -2 -2 h -2 -2 v -2 -2 h 2 2 v 2 2 h 2 2 v -2 -2 h 4 4 v 2 2 h 6 6 v -2 -2 h -2 -2 v -2 -2 h -4 -4 v -2 -2 h -2 -2 v -2 -2 h 2 2 v -2 -2 h -2 -2 v -2 -2 h 2 2 v 2 2 h 2 2 v 2 2 h 2 2 v -2 -2 h 2 2 v -4 -4 h -2 -2 v -2 -2 h 2 2 v 2 2 h 2 2 v 4 4 h 2 2 v 2 2 h 2 2 v 2 2 h 2 2 v -2 -2 h 4 4 v 2 2 h -4 -4 v 2 2 h -2 -2 v 2 2 h -2 -2 v 2 2 h 2 2 v 2 2 h 2 2 v -2 -2 h 2 2 v -2 -2 h 4 4 v 4 4 h -2 -2 v 2 2 h -4 -4 v 6 6 h 2 2 v 6 6 h 2 2 v -2 -2 h 4 4 v 2 2 h 2 2 v 2 2 h 2 2 v -6 -6 h 2 2 v 4 4 h 2 2 v 4 4 h 2 2 v 4 4 h 2 2 v 2 2 h -2 -2 v -2 -2 h -2 -2 v -2 -2 h -2 -2 v 4 4 h -2 -2 v -4 -4 h -2 -2 v 4 4 h -2 -2 v 2 2 h -2 -2 v 2 2 h -6 -6 v 6 6 h 4 4 v -2 -2 h -2 -2 v -2 -2 h 2 2 v 2 2 h 2 2 v 4 4 h -6 -6 v 8 8 h 2 2 v -4 -4 h 2 2 v -2 -2 h 4 4 v -2 -2 h 2 2 v -2 -2 h 4 4 v 2 2 h 2 2 v -2 -2 h 2 2 v -2 -2 h -2 -2 v -2 -2 h 2 2 v 2 2 h 2 2 v 2 2 h 4 4 v -2 -2 h 4 4 v 2 2 h 2 2 v -2 -2 h 6 6 v 2 2 h -4 -4 v 2 2 h -2 -2 v 2 2 h 2 2 v 4 4 h -4 -4 v -2 -2 h -4 -4 v 2 2 h -2 -2 v 2 2 h -2 -2 v -2 -2 h -4 -4 v 2 2 h -10 -10 v 2 2 h 2 2 v 2 2 h 2 2 v -2 -2 h 6 6 v 2 2 h -6 -6 v 2 2 h 8 8 v -2 -2 h 2 2 v 4 4 h 4 4 v -2 -2 h -2 -2 v -2 -2 h 4 4 v 4 4 h 4 4 v -2 -2 h -2 -2 v -2 -2 h 2 2 v 2 2 h 4 4 v -2 -2 h 2 2 v 2 2 h -2 -2 v 2 2 h -2 -2 v 2 2 h -2 -2 v 4 4 h -2 -2 v -2 -2 h -4 -4 v 6 6 h 4 4 v 2 2 h -2 -2 v 2 2 h 4 4 v -2 -2 h 2 2 v 2 2 h 2 2 v 2 2 h -4 -4 v 2 2 h -4 -4 v -2 -2 h -4 -4 v 2 2 h 2 2 v 2 2 h -2 -2 v -2 -2 h -4 -4 v 2 2 h -4 -4 v -2 -2 h -2 -2 v 2 2 h -2 -2 v -2 -2 h -4 -4 v -2 -2 h -2 -2 v 2 2 h -2 -2 v 2 2 h -2 -2 v 4 4 h 2 2 v 14 14 h 2 2 v 6 6 h 2 2 v 2 2 h 2 2 v 2 2 h 2 2 v 2 2 h -2 -2 v -2 -2 h -2 -2 v 2 2 h -2 -2 v -2 -2 h -2 -2 v 6 6 h -2 -2 v -2 -2 h -2 -2 v -2 -2 h -2 -2 v 2 2 h -2 -2 v -2 -2 h -6 -6 v 2 2 h -2 -2 v 2 2 h -4 -4 z m -28,-68 v -2 h -2 -2 v 2 2 h 2 2 z m 44,-4 v -2 h -4 -4 v 2 2 h 4 4 z m 52,0 v -2 h -2 -2 v 2 2 h 2 2 z m -88,-4 v -2 h -2 -2 v 2 2 h 2 2 z m 24,0 v -2 h 4 4 v -2 -2 h 2 2 v -4 -4 h -2 -2 v 4 4 h -4 -4 v 2 2 h -4 -4 v 2 2 h 4 4 z m 36,0 v -2 h -2 -2 v 2 2 h 2 2 z m 16,0 v -2 h -2 -2 v 2 2 h 2 2 z m -68,-4 v -2 h -2 -2 v -2 -2 h -4 -4 v 2 2 h 4 4 v 2 2 h 2 2 z m 12,-4 v -2 h 4 4 v -2 -2 h -4 -4 v 2 2 h -2 -2 v -4 -4 h -2 -2 v 2 2 h -2 -2 v -2 -2 h -4 -4 v 2 2 h 4 4 v 2 2 h 4 4 v 2 2 h 2 2 z m 44,0 v -2 h -2 -2 v -2 -2 h 4 4 v 2 2 h 2 2 v -2 -2 h -2 -2 v -2 -2 h -4 -4 v 2 2 h -2 -2 v 4 4 h 4 4 z m 24,0 v -2 h 4 4 v -2 -2 h 2 2 v -2 -2 h -2 -2 v -2 -2 h -2 -2 v 2 2 h -4 -4 v -2 -2 h -4 -4 v 4 4 h 2 2 v 2 2 h 2 2 v 2 2 h 2 2 z m -8,-8 v -2 h 2 2 v 2 2 h -2 -2 z m 24,8 v -2 h -2 -2 v 2 2 h 2 2 z m -132,-20 v -2 h -2 -2 v 2 2 h 2 2 z m 20,0 v -2 h -4 -4 v 2 2 h 4 4 z m 36,0 v -2 h 2 2 v -2 -2 h -2 -2 v 2 2 h -2 -2 v -2 -2 h -2 -2 v 2 2 h 2 2 v 2 2 h 2 2 z m 52,0 v -2 h -2 -2 v 2 2 h 2 2 z m -64,-6 v -4 h -4 -4 v 2 2 h 2 2 v 2 2 h 2 2 z m 52,2 v -2 h -2 -2 v 2 2 h 2 2 z m -76,-6 v -4 h -2 -2 v 4 4 h 2 2 z m 12,2 v -2 h -2 -2 v 2 2 h 2 2 z m 28,-4 v -2 h -6 -6 v 2 2 h 6 6 z m 32,0 v -2 h -2 -2 v 2 2 h 2 2 z m 36,-12 v -2 h -2 -2 v 2 2 h 2 2 z m -68,-4 v -2 h -2 -2 v -2 -2 h -2 -2 v 2 2 h 2 2 v 2 2 h 2 2 z m 48,0 v -2 h -4 -4 v 2 2 h 4 4 z m -80,-4 v -2 h -2 -2 v 2 2 h 2 2 z m 20,0 v -2 h -4 -4 v 2 2 h 4 4 z m -36,-8 v -2 h -2 -2 v 2 2 h 2 2 z m 16,0 v -2 h -2 -2 v 2 2 h 2 2 z m 24,0 v -2 h -2 -2 v 2 2 h 2 2 z m -52,-4 v -2 h -2 -2 v 2 2 h 2 2 z m 48,-14 v -4 h -2 -2 v 2 2 h -2 -2 v 2 2 h 4 4 z m 48,2 v -2 h 2 2 v -2 -2 h -4 -4 v 4 4 h 2 2 z m -4,-12 v -2 h 2 2 v 2 2 h 2 2 v -2 -2 h -2 -2 v -4 -4 h -2 -2 v 4 4 h -2 -2 v -2 -2 h -2 -2 v 2 2 h -2 -2 v 2 2 h 6 6 z m -20,-14 v -4 h -4 -4 v 2 2 h 2 2 v 2 2 h 2 2 z m 8,0 v -4 h -2 -2 v 4 4 h 2 2 z m 0,-14 v -6 h -2 -2 v 6 6 h 2 2 z m -12,-24 v -2 h -2 -2 v 2 2 h 2 2 z m 88,144 v -2 h 2 2 v 2 2 h -2 -2 z m -172,-28 v -2 h -2 -2 v -2 -2 h 2 2 v 2 2 h 2 2 v 2 2 h -2 -2 z m 116,-40 v -2 h 4 4 v 2 2 h -4 -4 z m 4,-8 v -2 h 2 2 v 2 2 h -2 -2 z m 20,-16 v -2 h 2 2 v 2 2 h -2 -2 z m -76,-4 v -2 h 4 4 v 2 2 h -4 -4 z m -48,-4 v -2 h 2 2 v 2 2 h -2 -2 z m 120,0 v -2 h 2 2 v 2 2 h -2 -2 z m -104,-4 v -2 h 4 4 v -2 -2 h 4 4 v 2 2 h -2 -2 v 2 2 h -6 -6 z m 80,-8 v -2 h 2 2 v 2 2 h -2 -2 z m -56,-4 v -2 h 4 4 v 2 2 h -4 -4 z m 52,-4 v -2 h 2 2 v 2 2 h -2 -2 z"
         id="path3951"
         style="fill:#6ed4a1" />
      <path
         d="m 281.41367,653.66196 v -2 h 2 2 v -4 -4 h -2 -2 v 2 2 h -2 -2 v -4 -4 h 2 2 v -4 -4 h 2 2 v -4 -4 h 2 2 v -6 -6 h 2 2 v -10 -10 h -2 -2 v -2 -2 h -6 -6 v 2 2 h -2 -2 v -2 -2 h 2 2 v -2 -2 h -4 -4 v 4 4 h -6 -6 v 2 2 h -2 -2 v 2 2 h -2 -2 v -2 -2 h -2 -2 v -2 -2 h -2 -2 v 2 2 h -4 -4 v -2 -2 h -2 -2 v -2 -2 h 2 2 v 2 2 h 4 4 v -2 -2 h -2 -2 v -2 -2 h -2 -2 v -2 -2 h 2 2 v -4 -4 h 4 4 v -2 -2 h 2 2 v 2 2 h -2 -2 v 2 2 h -2 -2 v 2 2 h -2 -2 v 2 2 h 4 4 v -2 -2 h 2 2 v -2 -2 h 2 2 v -6 -6 h 2 2 v -2 -2 h -6 -6 v -2 -2 h -4 -4 v 2 2 h 2 2 v 2 2 h -2 -2 v -2 -2 h -2 -2 v -2 -2 h -6 -6 v -2 -2 h 2 2 v -6 -6 h 2 2 v 2 2 h 4 4 v -2 -2 h -2 -2 v -2 -2 h 2 2 v 2 2 h 4 4 v -4 -4 h 4 4 v 2 2 h -2 -2 v 4 4 h 2 2 v -2 -2 h 2 2 v -2 -2 h 4 4 v 2 2 h 2 2 v -4 -4 h -4 -4 v -4 -4 h -2 -2 v 2 2 h -2 -2 v -2 -2 h -2 -2 v -2 -2 h -2 -2 v 2 2 h -4 -4 v -2 -2 h 2 2 v -2 -2 h -4 -4 v -2 -2 h -6 -6 v -2 -2 h 2 2 v -2 -2 h -2 -2 v -2 -2 h 2 2 v 2 2 h 2 2 v -2 -2 h 2 2 v 2 2 h 2 2 v 2 2 h 2 2 v -4 -4 h 4 4 v 2 2 h -2 -2 v 2 2 h 6 6 v 2 2 h 2 2 v -2 -2 h 4 4 v 4 4 h 2 2 v -2 -2 h 2 2 v -2 -2 h 2 2 v -2 -2 h 4 4 v 6 6 h 2 2 v -8 -8 h -2 -2 v -4 -4 h -2 -2 v 2 2 h -2 -2 v 2 2 h -2 -2 v 2 2 h -2 -2 v -4 -4 h -2 -2 v -4 -4 h -4 -4 v 2 2 h -2 -2 v -2 -2 h 2 2 v -2 -2 h -4 -4 v 2 2 h -4 -4 v -2 -2 h 4 4 v -2 -2 h -4 -4 v -2 -2 h -2 -2 v -2 -2 h 2 2 v 2 2 h 6 6 v 2 2 h 4 4 v -2 -2 h 2 2 v 2 2 h 2 2 v -2 -2 h 2 2 v 4 4 h 6 6 v 2 2 h 2 2 v -10 -10 h -4 -4 v -4 -4 h 4 4 v -2 -2 h 2 2 v 2 2 h 2 2 v -4 -4 h -2 -2 v -2 -2 h -4 -4 v 2 2 h -6 -6 v -2 -2 h 6 6 v -2 -2 h -6 -6 v -2 -2 h -2 -2 v -2 -2 h 2 2 v 2 2 h 2 2 v -2 -2 h 4 4 v 2 2 h 6 6 v -2 -2 h -2 -2 v -2 -2 h -4 -4 v -2 -2 h -2 -2 v -2 -2 h 2 2 v -2 -2 h -2 -2 v -2 -2 h 2 2 v 2 2 h 2 2 v 2 2 h 2 2 v -2 -2 h 2 2 v -4 -4 h -2 -2 v -2 -2 h 2 2 v 2 2 h 2 2 v 4 4 h 2 2 v 2 2 h 2 2 v 2 2 h 2 2 v -2 -2 h 4 4 v 2 2 h -4 -4 v 2 2 h -2 -2 v 2 2 h -2 -2 v 2 2 h 2 2 v 2 2 h 2 2 v -2 -2 h 2 2 v -2 -2 h 4 4 v 4 4 h -2 -2 v 2 2 h -4 -4 v 6 6 h 2 2 v 2 2 h -6 -6 v 4 4 h 2 2 v -2 -2 h 4 4 v 2 2 h 2 2 v -2 -2 h 4 4 v 2 2 h 2 2 v 2 2 h 2 2 v -6 -6 h 2 2 v 6 6 h 2 2 v 2 2 h 2 2 v 4 4 h 2 2 v 2 2 h -2 -2 v -2 -2 h -2 -2 v -2 -2 h -2 -2 v 4 4 h -2 -2 v -4 -4 h -2 -2 v 4 4 h -2 -2 v 2 2 h -2 -2 v 2 2 h -6 -6 v 6 6 h 4 4 v -2 -2 h -2 -2 v -2 -2 h 2 2 v 2 2 h 2 2 v 4 4 h -6 -6 v 8 8 h 2 2 v -4 -4 h 2 2 v -2 -2 h 4 4 v -2 -2 h 2 2 v -2 -2 h 4 4 v 2 2 h 2 2 v -2 -2 h 8 8 v -2 -2 h 4 4 v 2 2 h 2 2 v -2 -2 h 6 6 v 2 2 h -4 -4 v 2 2 h -2 -2 v 2 2 h 2 2 v 4 4 h -4 -4 v -2 -2 h -4 -4 v 2 2 h -2 -2 v 2 2 h -2 -2 v -2 -2 h -4 -4 v 2 2 h -10 -10 v 2 2 h 2 2 v 2 2 h 2 2 v -2 -2 h 6 6 v 2 2 h -6 -6 v 2 2 h -2 -2 v 2 2 h 2 2 v 2 2 h 2 2 v -2 -2 h 2 2 v -2 -2 h 4 4 v -2 -2 h 2 2 v 4 4 h 4 4 v -2 -2 h -2 -2 v -2 -2 h 4 4 v 4 4 h 4 4 v -2 -2 h -2 -2 v -2 -2 h 2 2 v 2 2 h 4 4 v -2 -2 h 2 2 v 2 2 h -2 -2 v 2 2 h -2 -2 v 2 2 h -2 -2 v 4 4 h -2 -2 v -2 -2 h -4 -4 v 6 6 h 4 4 v 2 2 h -2 -2 v 2 2 h 4 4 v -2 -2 h 2 2 v 2 2 h 2 2 v 2 2 h -4 -4 v 2 2 h -4 -4 v -2 -2 h -4 -4 v 2 2 h 2 2 v 2 2 h -2 -2 v -2 -2 h -4 -4 v 2 2 h -4 -4 v -2 -2 h -2 -2 v 2 2 h -2 -2 v -2 -2 h -4 -4 v -2 -2 h -2 -2 v 2 2 h -2 -2 v 2 2 h -2 -2 v 4 4 h 2 2 v 14 14 h 2 2 v 6 6 h 2 2 v 2 2 h 2 2 v 2 2 h 2 2 v 2 2 h -2 -2 v -2 -2 h -2 -2 v 2 2 h -2 -2 v -2 -2 h -2 -2 v 6 6 h -2 -2 v -2 -2 h -2 -2 v -2 -2 h -2 -2 v 2 2 h -2 -2 v -2 -2 h -6 -6 v 2 2 h -2 -2 v 2 2 h -4 -4 z m -28,-68 v -2 h -2 -2 v 2 2 h 2 2 z m 44,-4 v -2 h -4 -4 v 2 2 h 4 4 z m 52,0 v -2 h -2 -2 v 2 2 h 2 2 z m -88,-4 v -2 h 4 4 v -2 -2 h -2 -2 v -2 -2 h -4 -4 v 2 2 h 2 2 v 2 2 h -2 -2 v 2 2 h 2 2 z m 24,0 v -2 h 4 4 v -2 -2 h 2 2 v -4 -4 h -2 -2 v 4 4 h -4 -4 v 2 2 h -4 -4 v 2 2 h 4 4 z m 36,0 v -2 h -2 -2 v 2 2 h 2 2 z m 16,0 v -2 h -2 -2 v 2 2 h 2 2 z m -56,-8 v -2 h 4 4 v -2 -2 h -4 -4 v 2 2 h -2 -2 v -4 -4 h -2 -2 v 2 2 h -2 -2 v -2 -2 h -4 -4 v 2 2 h 4 4 v 2 2 h 4 4 v 2 2 h 2 2 z m 44,0 v -2 h -2 -2 v -2 -2 h 4 4 v 2 2 h 2 2 v -2 -2 h -2 -2 v -2 -2 h -4 -4 v 2 2 h -2 -2 v 4 4 h 4 4 z m 24,0 v -2 h 2 2 v 2 2 h 2 2 v -4 -4 h 2 2 v -2 -2 h -2 -2 v -2 -2 h -2 -2 v 2 2 h -4 -4 v -2 -2 h -4 -4 v 4 4 h 2 2 v 4 4 h 4 4 z m -8,-8 v -2 h 2 2 v 2 2 h -2 -2 z m 24,8 v -2 h -2 -2 v 2 2 h 2 2 z m -132,-20 v -2 h -2 -2 v 2 2 h 2 2 z m 20,0 v -2 h -4 -4 v 2 2 h 4 4 z m 36,0 v -2 h 2 2 v -2 -2 h -2 -2 v 2 2 h -2 -2 v -2 -2 h -2 -2 v 2 2 h 2 2 v 2 2 h 2 2 z m -12,-6 v -4 h -4 -4 v 2 2 h 2 2 v 2 2 h 2 2 z m 52,2 v -2 h -2 -2 v 2 2 h 2 2 z m -64,-4 v -2 h -2 -2 v 2 2 h 2 2 z m 28,-4 v -2 h -6 -6 v 2 2 h 6 6 z m 32,0 v -2 h -2 -2 v 2 2 h 2 2 z m 36,-12 v -2 h -2 -2 v 2 2 h 2 2 z m -68,-4 v -2 h -2 -2 v -2 -2 h -2 -2 v 2 2 h -2 -2 v -2 -2 h -4 -4 v 2 2 h 4 4 v 2 2 h 6 6 z m 48,0 v -2 h -4 -4 v 2 2 h 4 4 z m -80,-4 v -2 h -2 -2 v 2 2 h 2 2 z m -16,-8 v -2 h -2 -2 v 2 2 h 2 2 z m 40,0 v -2 h -2 -2 v 2 2 h 2 2 z m -52,-4 v -2 h -2 -2 v 2 2 h 2 2 z m 48,-14 v -4 h -2 -2 v 2 2 h -2 -2 v 2 2 h 4 4 z m 48,2 v -2 h 2 2 v -2 -2 h -4 -4 v 4 4 h 2 2 z m -4,-12 v -2 h 2 2 v 2 2 h 2 2 v -2 -2 h -2 -2 v -4 -4 h -2 -2 v 4 4 h -2 -2 v -2 -2 h -2 -2 v 2 2 h -2 -2 v 2 2 h 6 6 z m 20,-4 v -2 h -2 -2 v 2 2 h 2 2 z m -40,-10 v -4 h -4 -4 v 2 2 h 2 2 v 2 2 h 2 2 z m 8,-14 v -6 h -2 -2 v 6 6 h 2 2 z m -12,-24 v -2 h -2 -2 v 2 2 h 2 2 z m 88,144 v -2 h 2 2 v 2 2 h -2 -2 z m -172,-28 v -2 h -2 -2 v -2 -2 h 2 2 v 2 2 h 2 2 v 2 2 h -2 -2 z m 116,-40 v -2 h 4 4 v 2 2 h -4 -4 z m 16,0 v -2 h 2 2 v 2 2 h -2 -2 z m -12,-8 v -2 h 2 2 v 2 2 h -2 -2 z m 20,-16 v -2 h 2 2 v 2 2 h -2 -2 z m -76,-4 v -2 h 4 4 v 2 2 h -4 -4 z m -48,-4 v -2 h 2 2 v 2 2 h -2 -2 z m 120,0 v -2 h 2 2 v 2 2 h -2 -2 z m -104,-4 v -2 h 4 4 v -2 -2 h 4 4 v 2 2 h -2 -2 v 2 2 h -6 -6 z m 80,-8 v -2 h 2 2 v 2 2 h -2 -2 z m -56,-4 v -2 h 4 4 v 2 2 h -4 -4 z m 52,-4 v -2 h 2 2 v 2 2 h -2 -2 z"
         id="path3949"
         style="fill:#b1877f" />
      <path
         d="m 281.41367,653.66196 v -2 h 2 2 v -4 -4 h -2 -2 v 2 2 h -2 -2 v -4 -4 h 2 2 v -4 -4 h 2 2 v -4 -4 h 2 2 v -6 -6 h 2 2 v -10 -10 h -2 -2 v -2 -2 h -6 -6 v 2 2 h -2 -2 v -2 -2 h 2 2 v -2 -2 h -4 -4 v 4 4 h -6 -6 v 2 2 h -2 -2 v 2 2 h -2 -2 v -2 -2 h -2 -2 v -2 -2 h -2 -2 v 2 2 h -4 -4 v -2 -2 h -2 -2 v -2 -2 h 2 2 v 2 2 h 4 4 v -2 -2 h -2 -2 v -2 -2 h -2 -2 v -2 -2 h 2 2 v -4 -4 h 4 4 v -2 -2 h 2 2 v 2 2 h -2 -2 v 2 2 h -2 -2 v 2 2 h -2 -2 v 2 2 h 4 4 v -2 -2 h 2 2 v -2 -2 h 2 2 v -6 -6 h 2 2 v -2 -2 h -6 -6 v -2 -2 h -4 -4 v 2 2 h 2 2 v 2 2 h -2 -2 v -2 -2 h -2 -2 v -2 -2 h -6 -6 v -2 -2 h 2 2 v -6 -6 h 2 2 v 2 2 h 4 4 v -2 -2 h -2 -2 v -2 -2 h 2 2 v 2 2 h 4 4 v -4 -4 h 4 4 v 2 2 h -2 -2 v 4 4 h 2 2 v -2 -2 h 2 2 v -2 -2 h 4 4 v 2 2 h 2 2 v -4 -4 h -4 -4 v -4 -4 h -2 -2 v 2 2 h -2 -2 v -2 -2 h -2 -2 v -2 -2 h -2 -2 v 2 2 h -4 -4 v -2 -2 h 2 2 v -2 -2 h -4 -4 v -2 -2 h -6 -6 v -2 -2 h 2 2 v -2 -2 h -2 -2 v -2 -2 h 2 2 v 2 2 h 2 2 v -2 -2 h 2 2 v 2 2 h 2 2 v 2 2 h 2 2 v -4 -4 h 4 4 v 2 2 h -2 -2 v 2 2 h 6 6 v 2 2 h 2 2 v -2 -2 h 4 4 v 4 4 h 2 2 v -2 -2 h 2 2 v -2 -2 h 2 2 v -2 -2 h 4 4 v 6 6 h 2 2 v -8 -8 h -2 -2 v -4 -4 h -2 -2 v 2 2 h -2 -2 v 2 2 h -2 -2 v 2 2 h -2 -2 v -4 -4 h -2 -2 v -4 -4 h -4 -4 v 2 2 h -2 -2 v -2 -2 h 2 2 v -2 -2 h -4 -4 v 2 2 h -4 -4 v -2 -2 h 4 4 v -2 -2 h -4 -4 v -2 -2 h -2 -2 v -2 -2 h 2 2 v 2 2 h 6 6 v 2 2 h 4 4 v -2 -2 h 2 2 v 2 2 h 2 2 v -2 -2 h 2 2 v 4 4 h 6 6 v 2 2 h 2 2 v -10 -10 h -4 -4 v -4 -4 h 4 4 v -2 -2 h 2 2 v 2 2 h 2 2 v -4 -4 h -2 -2 v -2 -2 h -4 -4 v 2 2 h -6 -6 v -2 -2 h 6 6 v -2 -2 h -6 -6 v -2 -2 h -2 -2 v -2 -2 h 2 2 v 2 2 h 2 2 v -2 -2 h 4 4 v 2 2 h 6 6 v -2 -2 h -2 -2 v -2 -2 h -4 -4 v -2 -2 h -2 -2 v -2 -2 h 2 2 v -2 -2 h -2 -2 v -2 -2 h 2 2 v 2 2 h 2 2 v 2 2 h 2 2 v -2 -2 h 2 2 v -4 -4 h -2 -2 v -2 -2 h 2 2 v 2 2 h 2 2 v 4 4 h 2 2 v 2 2 h 2 2 v 2 2 h 2 2 v -2 -2 h 4 4 v 2 2 h -4 -4 v 2 2 h -2 -2 v 2 2 h -2 -2 v 2 2 h 2 2 v 2 2 h 2 2 v -2 -2 h 2 2 v -2 -2 h 4 4 v 4 4 h -2 -2 v 2 2 h -4 -4 v 6 6 h 2 2 v 2 2 h -6 -6 v 4 4 h 2 2 v -2 -2 h 4 4 v 2 2 h 2 2 v -2 -2 h 4 4 v 2 2 h 2 2 v 2 2 h 2 2 v -6 -6 h 2 2 v 6 6 h 2 2 v 2 2 h 2 2 v 4 4 h 2 2 v 2 2 h -2 -2 v -2 -2 h -2 -2 v -2 -2 h -2 -2 v 4 4 h -2 -2 v -4 -4 h -2 -2 v 4 4 h -2 -2 v 2 2 h -2 -2 v 2 2 h -6 -6 v 6 6 h 4 4 v -2 -2 h -2 -2 v -2 -2 h 2 2 v 2 2 h 2 2 v 4 4 h -6 -6 v 8 8 h 2 2 v -4 -4 h 2 2 v -2 -2 h 4 4 v -2 -2 h 2 2 v -2 -2 h 4 4 v 2 2 h 2 2 v -2 -2 h 8 8 v -2 -2 h 4 4 v 2 2 h 2 2 v -2 -2 h 6 6 v 2 2 h -4 -4 v 2 2 h -2 -2 v 2 2 h 2 2 v 4 4 h -4 -4 v -2 -2 h -4 -4 v 2 2 h -2 -2 v 2 2 h -2 -2 v -2 -2 h -4 -4 v 2 2 h -10 -10 v 2 2 h 2 2 v 2 2 h 2 2 v -2 -2 h 6 6 v 2 2 h -6 -6 v 2 2 h -2 -2 v 2 2 h 2 2 v 2 2 h 2 2 v -2 -2 h 2 2 v -2 -2 h 4 4 v -2 -2 h 2 2 v 4 4 h 4 4 v -2 -2 h -2 -2 v -2 -2 h 4 4 v 4 4 h 4 4 v -2 -2 h -2 -2 v -2 -2 h 2 2 v 2 2 h 4 4 v -2 -2 h 2 2 v 2 2 h -2 -2 v 2 2 h -2 -2 v 2 2 h -2 -2 v 4 4 h -2 -2 v -2 -2 h -4 -4 v 6 6 h 4 4 v 2 2 h -2 -2 v 2 2 h 4 4 v -2 -2 h 2 2 v 2 2 h 2 2 v 2 2 h -4 -4 v 2 2 h -4 -4 v -2 -2 h -4 -4 v 2 2 h 2 2 v 2 2 h -2 -2 v -2 -2 h -4 -4 v 2 2 h -4 -4 v -2 -2 h -2 -2 v 2 2 h -2 -2 v -2 -2 h -4 -4 v -2 -2 h -2 -2 v 2 2 h -2 -2 v 2 2 h -2 -2 v 4 4 h 2 2 v 8 8 h -2 -2 v 4 4 h 2 2 v 4 4 h 2 2 v 4 4 h 2 2 v 2 2 h 2 2 v 2 2 h 2 2 v 2 2 h -2 -2 v -2 -2 h -2 -2 v 2 2 h -2 -2 v -2 -2 h -2 -2 v 2 2 h -2 -2 v 2 2 h 2 2 v 2 2 h -2 -2 v -2 -2 h -2 -2 v -2 -2 h -2 -2 v 2 2 h -2 -2 v -2 -2 h -6 -6 v 2 2 h -2 -2 v 2 2 h -4 -4 z m 36,-16 v -6 h -2 -2 v 6 6 h 2 2 z m -64,-52 v -2 h -2 -2 v 2 2 h 2 2 z m 44,-4 v -2 h -4 -4 v 2 2 h 4 4 z m 52,0 v -2 h -2 -2 v 2 2 h 2 2 z m -88,-4 v -2 h 4 4 v -2 -2 h -2 -2 v -2 -2 h -4 -4 v 2 2 h 2 2 v 2 2 h -2 -2 v 2 2 h 2 2 z m 24,0 v -2 h 4 4 v -2 -2 h 2 2 v -4 -4 h -2 -2 v 4 4 h -4 -4 v 2 2 h -4 -4 v 2 2 h 4 4 z m 36,0 v -2 h -2 -2 v 2 2 h 2 2 z m 16,0 v -2 h -2 -2 v 2 2 h 2 2 z m -56,-8 v -2 h 4 4 v -2 -2 h -4 -4 v 2 2 h -2 -2 v -4 -4 h -2 -2 v 2 2 h -2 -2 v -2 -2 h -4 -4 v 2 2 h 4 4 v 2 2 h 4 4 v 2 2 h 2 2 z m 44,0 v -2 h -2 -2 v -2 -2 h 4 4 v 2 2 h 2 2 v -2 -2 h -2 -2 v -2 -2 h -4 -4 v 2 2 h -2 -2 v 4 4 h 4 4 z m 24,0 v -2 h 2 2 v 2 2 h 2 2 v -4 -4 h 2 2 v -2 -2 h -2 -2 v -2 -2 h -2 -2 v 2 2 h -4 -4 v -2 -2 h -4 -4 v 4 4 h 2 2 v 4 4 h 4 4 z m -8,-8 v -2 h 2 2 v 2 2 h -2 -2 z m 24,8 v -2 h -2 -2 v 2 2 h 2 2 z m -132,-20 v -2 h -2 -2 v 2 2 h 2 2 z m 20,0 v -2 h -4 -4 v 2 2 h 4 4 z m 36,0 v -2 h 2 2 v -2 -2 h -2 -2 v 2 2 h -2 -2 v -2 -2 h -2 -2 v 2 2 h 2 2 v 2 2 h 2 2 z m -12,-6 v -4 h -4 -4 v 2 2 h 2 2 v 2 2 h 2 2 z m 52,2 v -2 h -2 -2 v 2 2 h 2 2 z m -64,-4 v -2 h -2 -2 v 2 2 h 2 2 z m 28,-4 v -2 h -6 -6 v 2 2 h 6 6 z m 32,0 v -2 h -2 -2 v 2 2 h 2 2 z m 36,-12 v -2 h -2 -2 v 2 2 h 2 2 z m -68,-4 v -2 h -2 -2 v -2 -2 h -2 -2 v 2 2 h -2 -2 v -2 -2 h -4 -4 v 2 2 h 4 4 v 2 2 h 6 6 z m 48,0 v -2 h -4 -4 v 2 2 h 4 4 z m -80,-4 v -2 h -2 -2 v 2 2 h 2 2 z m -16,-8 v -2 h -2 -2 v 2 2 h 2 2 z m 40,0 v -2 h -2 -2 v 2 2 h 2 2 z m -52,-4 v -2 h -2 -2 v 2 2 h 2 2 z m 48,-14 v -4 h -2 -2 v 2 2 h -2 -2 v 2 2 h 4 4 z m 48,2 v -2 h 2 2 v -2 -2 h -4 -4 v 4 4 h 2 2 z m -4,-12 v -2 h 2 2 v 2 2 h 2 2 v -2 -2 h -2 -2 v -4 -4 h -2 -2 v 4 4 h -2 -2 v -2 -2 h -2 -2 v 2 2 h -2 -2 v 2 2 h 6 6 z m 20,-4 v -2 h -2 -2 v 2 2 h 2 2 z m -40,-10 v -4 h -4 -4 v 2 2 h 2 2 v 2 2 h 2 2 z m 8,-14 v -6 h -2 -2 v 6 6 h 2 2 z m -12,-24 v -2 h -2 -2 v 2 2 h 2 2 z m 88,144 v -2 h 2 2 v 2 2 h -2 -2 z m -172,-28 v -2 h -2 -2 v -2 -2 h 2 2 v 2 2 h 2 2 v 2 2 h -2 -2 z m 116,-40 v -2 h 4 4 v 2 2 h -4 -4 z m 16,0 v -2 h 2 2 v 2 2 h -2 -2 z m -12,-8 v -2 h 2 2 v 2 2 h -2 -2 z m 20,-16 v -2 h 2 2 v 2 2 h -2 -2 z m -76,-4 v -2 h 4 4 v 2 2 h -4 -4 z m -48,-4 v -2 h 2 2 v 2 2 h -2 -2 z m 120,0 v -2 h 2 2 v 2 2 h -2 -2 z m -104,-4 v -2 h 4 4 v -2 -2 h 4 4 v 2 2 h -2 -2 v 2 2 h -6 -6 z m 80,-8 v -2 h 2 2 v 2 2 h -2 -2 z m -56,-4 v -2 h 4 4 v 2 2 h -4 -4 z m 52,-4 v -2 h 2 2 v 2 2 h -2 -2 z"
         id="path3947"
         style="fill:#50b683" />
      <path
         d="m 281.41367,653.66196 v -2 h 2 2 v -4 -4 h -2 -2 v 2 2 h -2 -2 v -4 -4 h 2 2 v -4 -4 h 2 2 v -4 -4 h 2 2 v -6 -6 h 2 2 v -12 -12 h -8 -8 v 2 2 h -2 -2 v -2 -2 h 2 2 v -2 -2 h -4 -4 v 4 4 h -6 -6 v 2 2 h -2 -2 v 2 2 h -2 -2 v -2 -2 h -2 -2 v -2 -2 h -2 -2 v 2 2 h -4 -4 v -2 -2 h -2 -2 v -2 -2 h 2 2 v 2 2 h 4 4 v -2 -2 h -2 -2 v -2 -2 h -2 -2 v -2 -2 h 2 2 v -4 -4 h 4 4 v 2 2 h -2 -2 v 2 2 h -2 -2 v 2 2 h 4 4 v -2 -2 h 2 2 v -2 -2 h 4 4 v 2 2 h 2 2 v -2 -2 h 8 8 v 2 2 h 4 4 v -2 -2 h -2 -2 v -4 -4 h -2 -2 v 2 2 h -6 -6 v -2 -2 h 6 6 v -4 -4 h -2 -2 v 2 2 h -2 -2 v -2 -2 h -4 -4 v 2 2 h -2 -2 v 2 2 h -2 -2 v -2 -2 h 2 2 v -2 -2 h -6 -6 v -2 -2 h -4 -4 v 2 2 h 2 2 v 2 2 h -2 -2 v -2 -2 h -2 -2 v -2 -2 h -6 -6 v -2 -2 h 2 2 v -2 -2 h 2 2 v -2 -2 h 12 12 v -2 -2 h 2 2 v -2 -2 h 4 4 v 2 2 h 2 2 v -4 -4 h -4 -4 v -4 -4 h -2 -2 v 2 2 h -2 -2 v -2 -2 h -2 -2 v -2 -2 h -2 -2 v 2 2 h -4 -4 v -2 -2 h 2 2 v -2 -2 h -4 -4 v -2 -2 h -6 -6 v -2 -2 h 2 2 v -2 -2 h -2 -2 v -2 -2 h 2 2 v 2 2 h 2 2 v -2 -2 h 2 2 v 2 2 h 2 2 v 2 2 h 2 2 v 2 2 h 2 2 v -2 -2 h 6 6 v 2 2 h 4 4 v -2 -2 h 2 2 v 2 2 h -2 -2 v 2 2 h 4 4 v 2 2 h 4 4 v -2 -2 h -2 -2 v -4 -4 h 2 2 v -2 -2 h 4 4 v 6 6 h 2 2 v -8 -8 h -2 -2 v -6 -6 h -2 -2 v 4 4 h -2 -2 v 2 2 h -2 -2 v 2 2 h -2 -2 v -4 -4 h -2 -2 v -4 -4 h -4 -4 v 2 2 h -2 -2 v -2 -2 h 2 2 v -2 -2 h -4 -4 v 2 2 h -4 -4 v -2 -2 h 4 4 v -2 -2 h 6 6 v 2 2 h 2 2 v -2 -2 h 2 2 v 2 2 h 8 8 v 2 2 h 2 2 v -10 -10 h -4 -4 v -4 -4 h 4 4 v -2 -2 h 2 2 v 2 2 h 2 2 v -4 -4 h -2 -2 v -2 -2 h -4 -4 v 2 2 h -6 -6 v -2 -2 h 6 6 v -2 -2 h 2 2 v -2 -2 h 4 4 v -2 -2 h -2 -2 v -2 -2 h -2 -2 v -2 -2 h -4 -4 v -2 -2 h 2 2 v -2 -2 h -2 -2 v -2 -2 h 2 2 v 2 2 h 2 2 v 2 2 h 2 2 v -2 -2 h 2 2 v -4 -4 h -2 -2 v -2 -2 h 2 2 v 2 2 h 2 2 v 4 4 h 2 2 v 2 2 h 2 2 v 2 2 h 2 2 v -2 -2 h 4 4 v 2 2 h -4 -4 v 2 2 h -2 -2 v 2 2 h -2 -2 v 2 2 h 2 2 v 2 2 h 2 2 v -2 -2 h 4 4 v -2 -2 h 2 2 v 4 4 h -2 -2 v 2 2 h -4 -4 v 6 6 h 2 2 v 2 2 h -6 -6 v 4 4 h 2 2 v -2 -2 h 4 4 v 2 2 h 2 2 v -2 -2 h 4 4 v 2 2 h 2 2 v 4 4 h 8 8 v 4 4 h 2 2 v 2 2 h -2 -2 v -2 -2 h -2 -2 v -2 -2 h -2 -2 v 4 4 h -2 -2 v -4 -4 h -2 -2 v 4 4 h -2 -2 v 2 2 h -2 -2 v 2 2 h -6 -6 v 6 6 h 4 4 v -2 -2 h -2 -2 v -2 -2 h 2 2 v 2 2 h 2 2 v 4 4 h -6 -6 v 8 8 h 2 2 v -4 -4 h 2 2 v -2 -2 h 4 4 v -2 -2 h 2 2 v -2 -2 h 4 4 v 2 2 h 2 2 v -2 -2 h 14 14 v -2 -2 h 6 6 v 2 2 h -4 -4 v 2 2 h -2 -2 v 2 2 h 2 2 v 4 4 h -4 -4 v -2 -2 h -4 -4 v 2 2 h -2 -2 v 2 2 h -2 -2 v -2 -2 h -4 -4 v 2 2 h -10 -10 v 2 2 h 2 2 v 2 2 h 2 2 v -2 -2 h 6 6 v 2 2 h -6 -6 v 2 2 h -2 -2 v 2 2 h 2 2 v 2 2 h 2 2 v -2 -2 h 12 12 v -2 -2 h -2 -2 v -2 -2 h 4 4 v 4 4 h 4 4 v -2 -2 h -2 -2 v -2 -2 h 2 2 v 2 2 h 4 4 v -2 -2 h 2 2 v 2 2 h -2 -2 v 2 2 h -2 -2 v 2 2 h -2 -2 v 4 4 h -2 -2 v -2 -2 h -4 -4 v 6 6 h -4 -4 v -2 -2 h 2 2 v -2 -2 h -2 -2 v -2 -2 h -2 -2 v 2 2 h -4 -4 v 2 2 h -2 -2 v 2 2 h -4 -4 v -2 -2 h -2 -2 v 2 2 h -4 -4 v -2 -2 h -2 -2 v 4 4 h 26 26 v -2 -2 h 2 2 v 2 2 h -2 -2 v 2 2 h 4 4 v -2 -2 h 2 2 v 2 2 h 2 2 v 2 2 h -4 -4 v 2 2 h -4 -4 v -2 -2 h -4 -4 v 2 2 h 2 2 v 2 2 h -2 -2 v -2 -2 h -4 -4 v 2 2 h -4 -4 v -2 -2 h -2 -2 v 2 2 h -2 -2 v -2 -2 h -4 -4 v -2 -2 h -2 -2 v 2 2 h -2 -2 v 2 2 h -2 -2 v 4 4 h 2 2 v 8 8 h -2 -2 v 4 4 h 2 2 v 4 4 h 2 2 v 4 4 h 2 2 v 2 2 h 2 2 v 2 2 h 2 2 v 2 2 h -2 -2 v -2 -2 h -2 -2 v 2 2 h -2 -2 v -2 -2 h -2 -2 v 2 2 h -2 -2 v 2 2 h 2 2 v 2 2 h -2 -2 v -2 -2 h -2 -2 v -2 -2 h -2 -2 v 2 2 h -2 -2 v -2 -2 h -6 -6 v 2 2 h -2 -2 v 2 2 h -4 -4 z m 36,-16 v -6 h -2 -2 v 6 6 h 2 2 z m -64,-52 v -2 h -2 -2 v 2 2 h 2 2 z m 44,-4 v -2 h -4 -4 v 2 2 h 4 4 z m 52,0 v -2 h -2 -2 v 2 2 h 2 2 z m -28,-4 v -2 h -2 -2 v 2 2 h 2 2 z m 16,0 v -2 h -2 -2 v 2 2 h 2 2 z m -44,-4 v -2 h 2 2 v -4 -4 h -2 -2 v 4 4 h -4 -4 v 2 2 h 4 4 z m -4,-8 v -2 h -4 -4 v 2 2 h 4 4 z m 40,-4 v -2 h -4 -4 v 2 2 h 4 4 z m 12,0 v -2 h 2 2 v -2 -2 h -4 -4 v 4 4 h 2 2 z m -108,-12 v -2 h -2 -2 v 2 2 h 2 2 z m 20,0 v -2 h -4 -4 v 2 2 h 4 4 z m 36,0 v -2 h 2 2 v -2 -2 h -2 -2 v 2 2 h -2 -2 v -2 -2 h -2 -2 v 2 2 h 2 2 v 2 2 h 2 2 z m -12,-6 v -4 h -4 -4 v 2 2 h -2 -2 v -2 -2 h -2 -2 v 2 2 h 2 2 v 2 2 h 6 6 z m 28,2 v -2 h -2 -2 v 2 2 h 2 2 z m 24,0 v -2 h -2 -2 v 2 2 h 2 2 z m -36,-8 v -2 h -6 -6 v 2 2 h 6 6 z m 32,0 v -2 h -2 -2 v 2 2 h 2 2 z m -24,-8 v -2 h -2 -2 v -2 -2 h -2 -2 v -2 -2 h -2 -2 v -2 -2 h -2 -2 v 2 2 h -2 -2 v 2 2 h 2 2 v 2 2 h 6 6 v 2 2 h 2 2 z m 60,-4 v -2 h -2 -2 v 2 2 h 2 2 z m -20,-4 v -2 h -4 -4 v 2 2 h 4 4 z m -80,-4 v -2 h -2 -2 v 2 2 h 2 2 z m 24,-8 v -2 h -2 -2 v 2 2 h 2 2 z m -52,-4 v -2 h -2 -2 v 2 2 h 2 2 z m 48,-14 v -4 h -2 -2 v 2 2 h -2 -2 v 2 2 h 4 4 z m 48,2 v -2 h 2 2 v -2 -2 h -2 -2 v -2 -2 h 2 2 v -2 -2 h -2 -2 v -4 -4 h -2 -2 v 4 4 h -2 -2 v -2 -2 h -2 -2 v 2 2 h -2 -2 v 2 2 h -2 -2 v 2 2 h -2 -2 v 2 2 h 4 4 v -4 -4 h 2 2 v 2 2 h 2 2 v -2 -2 h 2 2 v 6 6 h 2 2 z m -4,-12 v -2 h 2 2 v 2 2 h -2 -2 z m -24,8 v -2 h -2 -2 v 2 2 h 2 2 z m 4,-22 v -4 h -4 -4 v 2 2 h 2 2 v 2 2 h 2 2 z m 8,-14 v -6 h -2 -2 v 6 6 h 2 2 z m -12,-8 v -2 h -2 -2 v 2 2 h 2 2 z m 0,-16 v -2 h 2 2 v -2 -2 h -4 -4 v 4 4 h 2 2 z m 88,144 v -2 h 2 2 v 2 2 h -2 -2 z m -172,-28 v -2 h -2 -2 v -2 -2 h 2 2 v 2 2 h 2 2 v 2 2 h -2 -2 z m 136,-4 v -2 h 2 2 v 2 2 h -2 -2 z m -108,-8 v -2 h 4 4 v 2 2 h -4 -4 z m 88,-28 v -2 h 4 4 v 2 2 h -4 -4 z m 16,0 v -2 h 2 2 v 2 2 h -2 -2 z m -12,-8 v -2 h 2 2 v 2 2 h -2 -2 z m 20,-16 v -2 h 2 2 v 2 2 h -2 -2 z m -112,-4 v -2 h 2 2 v 2 2 h -2 -2 z m 36,0 v -2 h 4 4 v 2 2 h -4 -4 z m -48,-4 v -2 h 2 2 v 2 2 h -2 -2 z m 120,0 v -2 h 2 2 v 2 2 h -2 -2 z m -104,-4 v -2 h 4 4 v -2 -2 h 4 4 v 2 2 h -2 -2 v 2 2 h -6 -6 z m 92,-2 v -4 h 2 2 v 4 4 h -2 -2 z m -12,-6 v -2 h 2 2 v 2 2 h -2 -2 z m -56,-4 v -2 h 4 4 v 2 2 h -4 -4 z m 52,-4 v -2 h 2 2 v 2 2 h -2 -2 z m -48,-12 v -2 h -2 -2 v -2 -2 h 2 2 v 2 2 h 2 2 v -2 -2 h 4 4 v 2 2 h -2 -2 v 2 2 h -4 -4 z"
         id="path3945"
         style="fill:#936961" />
      <path
         d="m 281.41367,653.66196 v -2 h 4 4 v -4 -4 h -4 -4 v 2 2 h -2 -2 v -2 -2 h 2 2 v -2 -2 h 2 2 v -6 -6 h 2 2 v 2 2 h 2 2 v -10 -10 h 2 2 v 4 4 h 2 2 v -10 -10 h -2 -2 v -4 -4 h -2 -2 v -2 -2 h -8 -8 v 2 2 h -2 -2 v -2 -2 h 2 2 v -2 -2 h -4 -4 v 4 4 h -6 -6 v 2 2 h -2 -2 v 2 2 h -2 -2 v -2 -2 h -2 -2 v -2 -2 h -2 -2 v 2 2 h -4 -4 v -2 -2 h -2 -2 v -2 -2 h 2 2 v 2 2 h 4 4 v -2 -2 h -2 -2 v -2 -2 h -2 -2 v -2 -2 h 2 2 v -4 -4 h 4 4 v 2 2 h -2 -2 v 2 2 h -2 -2 v 2 2 h 4 4 v -2 -2 h 2 2 v -2 -2 h 4 4 v 2 2 h 2 2 v -2 -2 h 8 8 v 2 2 h 4 4 v -2 -2 h -2 -2 v -4 -4 h -2 -2 v 2 2 h -6 -6 v -2 -2 h 6 6 v -4 -4 h -2 -2 v 2 2 h -2 -2 v -2 -2 h -4 -4 v 2 2 h -2 -2 v 2 2 h -2 -2 v -2 -2 h 2 2 v -2 -2 h -6 -6 v -2 -2 h -4 -4 v 2 2 h 2 2 v 2 2 h -2 -2 v -2 -2 h -2 -2 v -2 -2 h -6 -6 v -2 -2 h 2 2 v -2 -2 h 2 2 v -2 -2 h 12 12 v -2 -2 h 2 2 v -2 -2 h 4 4 v 2 2 h 2 2 v -4 -4 h -4 -4 v -4 -4 h -2 -2 v 2 2 h -2 -2 v -2 -2 h -2 -2 v -2 -2 h -2 -2 v 2 2 h -4 -4 v -2 -2 h 2 2 v -2 -2 h -4 -4 v -2 -2 h -6 -6 v -2 -2 h 2 2 v -2 -2 h -2 -2 v -2 -2 h 2 2 v 2 2 h 2 2 v -2 -2 h 2 2 v 2 2 h 2 2 v 2 2 h 2 2 v 2 2 h 2 2 v -2 -2 h 6 6 v 2 2 h 4 4 v -2 -2 h 2 2 v 2 2 h -2 -2 v 2 2 h 4 4 v 2 2 h 4 4 v -2 -2 h -2 -2 v -4 -4 h 2 2 v -2 -2 h 4 4 v 6 6 h 2 2 v -8 -8 h -2 -2 v -6 -6 h -2 -2 v 4 4 h -2 -2 v 2 2 h -2 -2 v 2 2 h -2 -2 v -4 -4 h -2 -2 v -4 -4 h -4 -4 v 2 2 h -2 -2 v -2 -2 h 2 2 v -2 -2 h -4 -4 v 2 2 h -4 -4 v -2 -2 h 4 4 v -2 -2 h 6 6 v 2 2 h 2 2 v -2 -2 h 2 2 v 2 2 h 8 8 v 2 2 h 2 2 v -10 -10 h -4 -4 v -4 -4 h 4 4 v -2 -2 h 2 2 v 2 2 h 2 2 v -4 -4 h -2 -2 v -2 -2 h -4 -4 v 2 2 h -6 -6 v -2 -2 h 6 6 v -2 -2 h 2 2 v -2 -2 h 4 4 v -2 -2 h -2 -2 v -2 -2 h -2 -2 v -2 -2 h -4 -4 v -2 -2 h 2 2 v -2 -2 h -2 -2 v -2 -2 h 2 2 v 2 2 h 2 2 v 2 2 h 2 2 v -2 -2 h 2 2 v -4 -4 h -2 -2 v -2 -2 h 2 2 v 2 2 h 2 2 v 4 4 h 2 2 v 2 2 h 2 2 v 2 2 h 2 2 v -2 -2 h 4 4 v 2 2 h -4 -4 v 2 2 h -2 -2 v 2 2 h -2 -2 v 2 2 h 2 2 v 2 2 h 2 2 v -2 -2 h 4 4 v -2 -2 h 2 2 v 4 4 h -2 -2 v 2 2 h -4 -4 v 6 6 h 2 2 v 2 2 h -2 -2 v -2 -2 h -2 -2 v 2 2 h -8 -8 v 2 2 h 2 2 v 2 2 h 2 2 v -2 -2 h 2 2 v 2 2 h 2 2 v -2 -2 h 4 4 v 2 2 h 2 2 v -2 -2 h 4 4 v 2 2 h 2 2 v 4 4 h 8 8 v 4 4 h 2 2 v 2 2 h -2 -2 v -2 -2 h -2 -2 v -2 -2 h -2 -2 v 4 4 h -2 -2 v -4 -4 h -2 -2 v 4 4 h -2 -2 v 2 2 h -2 -2 v 2 2 h -6 -6 v 6 6 h 4 4 v -2 -2 h -2 -2 v -2 -2 h 2 2 v 2 2 h 2 2 v 4 4 h -6 -6 v 8 8 h 2 2 v -4 -4 h 2 2 v -2 -2 h 4 4 v -2 -2 h 2 2 v -2 -2 h 4 4 v 2 2 h 2 2 v -2 -2 h 14 14 v -2 -2 h 6 6 v 2 2 h -4 -4 v 2 2 h -2 -2 v 2 2 h 2 2 v 4 4 h -4 -4 v -2 -2 h -4 -4 v 2 2 h -2 -2 v 2 2 h -2 -2 v -2 -2 h -4 -4 v 2 2 h -10 -10 v 2 2 h 2 2 v 2 2 h 2 2 v -2 -2 h 6 6 v 2 2 h -6 -6 v 2 2 h -2 -2 v 2 2 h 2 2 v 2 2 h 2 2 v -2 -2 h 12 12 v -2 -2 h -2 -2 v -2 -2 h 4 4 v 4 4 h 4 4 v -2 -2 h -2 -2 v -2 -2 h 2 2 v 2 2 h 4 4 v -2 -2 h 2 2 v 2 2 h -2 -2 v 2 2 h -2 -2 v 2 2 h -2 -2 v 4 4 h -2 -2 v -2 -2 h -4 -4 v 6 6 h -4 -4 v -2 -2 h 2 2 v -2 -2 h -2 -2 v -2 -2 h -2 -2 v 2 2 h -4 -4 v 2 2 h -2 -2 v 2 2 h -4 -4 v -2 -2 h -2 -2 v 2 2 h -4 -4 v -2 -2 h -2 -2 v 4 4 h 26 26 v -2 -2 h 2 2 v 2 2 h -2 -2 v 2 2 h 4 4 v -2 -2 h 2 2 v 2 2 h 2 2 v 2 2 h -4 -4 v 2 2 h -4 -4 v -2 -2 h -4 -4 v 2 2 h 2 2 v 2 2 h -2 -2 v -2 -2 h -4 -4 v 2 2 h -4 -4 v -2 -2 h -2 -2 v 2 2 h -2 -2 v -2 -2 h -4 -4 v -2 -2 h -2 -2 v 2 2 h -2 -2 v 2 2 h -2 -2 v 4 4 h 2 2 v 4 4 h -2 -2 v -2 -2 h -2 -2 v 6 6 h 2 2 v 6 6 h 2 2 v 4 4 h 2 2 v 2 2 h 2 2 v 2 2 h 2 2 v 2 2 h 2 2 v 2 2 h -2 -2 v -2 -2 h -2 -2 v 2 2 h -2 -2 v -2 -2 h -4 -4 v -8 -8 h -2 -2 v -6 -6 h -2 -2 v 8 8 h 2 2 v 8 8 h -2 -2 v 2 2 h -2 -2 v -2 -2 h -6 -6 v 2 2 h -2 -2 v 2 2 h -4 -4 z m 12,-14 v -4 h -2 -2 v 4 4 h 2 2 z m -40,-54 v -2 h -2 -2 v 2 2 h 2 2 z m 44,-4 v -2 h -4 -4 v 2 2 h 4 4 z m 52,0 v -2 h -2 -2 v 2 2 h 2 2 z m -28,-4 v -2 h -2 -2 v 2 2 h 2 2 z m 16,0 v -2 h -2 -2 v 2 2 h 2 2 z m -44,-4 v -2 h 4 4 v -4 -4 h -4 -4 v 4 4 h -4 -4 v 2 2 h 4 4 z m -4,-8 v -2 h -4 -4 v 2 2 h 4 4 z m 40,-4 v -2 h -4 -4 v 2 2 h 4 4 z m 12,0 v -2 h 2 2 v -2 -2 h -4 -4 v 4 4 h 2 2 z m -108,-12 v -2 h -2 -2 v 2 2 h 2 2 z m 20,0 v -2 h -4 -4 v 2 2 h 4 4 z m 36,0 v -2 h 2 2 v -2 -2 h -2 -2 v 2 2 h -2 -2 v -2 -2 h -2 -2 v 2 2 h 2 2 v 2 2 h 2 2 z m -12,-6 v -4 h -4 -4 v 2 2 h -2 -2 v -2 -2 h -2 -2 v 2 2 h 2 2 v 2 2 h 6 6 z m 28,2 v -2 h -2 -2 v 2 2 h 2 2 z m 24,0 v -2 h -2 -2 v 2 2 h 2 2 z m -36,-8 v -2 h -6 -6 v 2 2 h 6 6 z m 32,0 v -2 h -2 -2 v 2 2 h 2 2 z m -16,-8 v -2 h -4 -4 v -2 -2 h -4 -4 v -2 -2 h -2 -2 v -2 -2 h -2 -2 v 2 2 h -2 -2 v 2 2 h 2 2 v 2 2 h 6 6 v 2 2 h 6 6 z m 52,-4 v -2 h -2 -2 v 2 2 h 2 2 z m -20,-4 v -2 h -4 -4 v 2 2 h 4 4 z m -80,-4 v -2 h -2 -2 v 2 2 h 2 2 z m 24,-8 v -2 h -2 -2 v 2 2 h 2 2 z m -52,-4 v -2 h -2 -2 v 2 2 h 2 2 z m 48,-14 v -4 h -2 -2 v 2 2 h -2 -2 v 2 2 h 4 4 z m 48,2 v -2 h 2 2 v -2 -2 h -2 -2 v -2 -2 h 2 2 v -2 -2 h -2 -2 v -4 -4 h -2 -2 v 4 4 h -2 -2 v -2 -2 h -2 -2 v 2 2 h -2 -2 v 2 2 h -2 -2 v 2 2 h -6 -6 v 2 2 h 8 8 v -2 -2 h 6 6 v 4 4 h 2 2 z m -16,-40 v -6 h -2 -2 v 6 6 h 2 2 z m -12,-8 v -2 h 2 2 v -2 -2 h -2 -2 v 2 2 h -2 -2 v 2 2 h 2 2 z m 0,-16 v -2 h 2 2 v -2 -2 h -4 -4 v 4 4 h 2 2 z m 88,144 v -2 h 2 2 v 2 2 h -2 -2 z m -172,-28 v -2 h -2 -2 v -2 -2 h 2 2 v 2 2 h 2 2 v 2 2 h -2 -2 z m 136,-4 v -2 h 2 2 v 2 2 h -2 -2 z m -108,-8 v -2 h 4 4 v 2 2 h -4 -4 z m 88,-28 v -2 h 4 4 v 2 2 h -4 -4 z m 16,0 v -2 h 2 2 v 2 2 h -2 -2 z m -12,-8 v -2 h 2 2 v 2 2 h -2 -2 z m 20,-16 v -2 h 2 2 v 2 2 h -2 -2 z m -112,-4 v -2 h 2 2 v 2 2 h -2 -2 z m 36,0 v -2 h 4 4 v 2 2 h -4 -4 z m -48,-4 v -2 h 2 2 v 2 2 h -2 -2 z m 120,0 v -2 h 2 2 v 2 2 h -2 -2 z m -104,-4 v -2 h 4 4 v -2 -2 h 4 4 v 2 2 h -2 -2 v 2 2 h -6 -6 z m 92,-2 v -4 h 2 2 v 4 4 h -2 -2 z m -12,-6 v -2 h 2 2 v 2 2 h -2 -2 z m -56,-4 v -2 h 4 4 v 2 2 h -4 -4 z m 52,-4 v -2 h 2 2 v 2 2 h -2 -2 z m -48,-12 v -2 h -2 -2 v -2 -2 h 2 2 v 2 2 h 2 2 v -2 -2 h 4 4 v 2 2 h -2 -2 v 2 2 h -4 -4 z"
         id="path3943"
         style="fill:#329865" />
      <path
         d="m 281.41367,653.66196 v -2 h 4 4 v -4 -4 h -4 -4 v 2 2 h -2 -2 v -2 -2 h 2 2 v -2 -2 h 2 2 v -6 -6 h 2 2 v 2 2 h 2 2 v -10 -10 h 2 2 v 4 4 h 2 2 v -10 -10 h -2 -2 v -4 -4 h -2 -2 v -2 -2 h -8 -8 v 2 2 h -2 -2 v -2 -2 h 2 2 v -2 -2 h -4 -4 v 4 4 h -8 -8 v 2 2 h -4 -4 v -6 -6 h 2 2 v 2 2 h 2 2 v -2 -2 h 4 4 v -4 -4 h 8 8 v 2 2 h 4 4 v -2 -2 h 6 6 v -2 -2 h 2 2 v 2 2 h 2 2 v -2 -2 h 6 6 v 4 4 h 2 2 v -2 -2 h 6 6 v -2 -2 h 2 2 v 2 2 h 2 2 v -2 -2 h 2 2 v 2 2 h 2 2 v -2 -2 h 4 4 v 2 2 h 10 10 v 4 4 h -4 -4 v -2 -2 h -4 -4 v 2 2 h -6 -6 v -2 -2 h -2 -2 v 2 2 h -8 -8 v -2 -2 h -2 -2 v 2 2 h -2 -2 v 2 2 h -2 -2 v 4 4 h 2 2 v 4 4 h -2 -2 v -2 -2 h -2 -2 v 6 6 h 2 2 v 6 6 h 2 2 v 4 4 h 2 2 v 2 2 h 2 2 v 2 2 h 2 2 v 2 2 h 2 2 v 2 2 h -2 -2 v -2 -2 h -2 -2 v 2 2 h -2 -2 v -2 -2 h -4 -4 v -8 -8 h -2 -2 v -6 -6 h -2 -2 v 8 8 h 2 2 v 8 8 h -2 -2 v 2 2 h -2 -2 v -2 -2 h -6 -6 v 2 2 h -2 -2 v 2 2 h -4 -4 z m 12,-14 v -4 h -2 -2 v 4 4 h 2 2 z m 12,-58 v -2 h -8 -8 v 2 2 h 8 8 z m 32,-4 v -2 h -2 -2 v 2 2 h 2 2 z m -100,16 v -2 h 2 2 v 2 2 h -2 -2 z m 12,-16 v -2 h 2 2 v 2 2 h -2 -2 z m 36,-8 v -2 h 2 2 v -2 -2 h -2 -2 v -4 -4 h -2 -2 v 4 4 h -2 -2 v -2 -2 h -16 -16 v -2 -2 h -4 -4 v 2 2 h -2 -2 v -6 -6 h 2 2 v 2 2 h 12 12 v -2 -2 h 2 2 v 2 2 h 12 12 v -2 -2 h 2 2 v -2 -2 h -8 -8 v -2 -2 h 8 8 v 2 2 h 4 4 v -2 -2 h -2 -2 v -4 -4 h 6 6 v -2 -2 h 2 2 v -4 -4 h 2 2 v 6 6 h 2 2 v -4 -4 h 10 10 v -2 -2 h 2 2 v -2 -2 h 14 14 v 2 2 h 2 2 v 2 2 h -6 -6 v 2 2 h -2 -2 v 2 2 h -2 -2 v -2 -2 h -4 -4 v 2 2 h -8 -8 v -2 -2 h -2 -2 v 2 2 h -4 -4 v 6 6 h -2 -2 v 2 2 h -4 -4 v 2 2 h 4 4 v 2 2 h 2 2 v -2 -2 h 2 2 v 2 2 h -2 -2 v 2 2 h -2 -2 v 4 4 h -2 -2 v -4 -4 h -8 -8 v 2 2 h -2 -2 v 2 2 h -2 -2 v 2 2 h -2 -2 z m 8,-8 v -2 h -2 -2 v 2 2 h 2 2 z m 12,-16 v -2 h -2 -2 v 2 2 h 2 2 z m 8,-4 v -2 h -2 -2 v -2 -2 h -4 -4 v 2 2 h 4 4 v 2 2 h 2 2 z m 48,-16 v -2 h 2 2 v -2 -2 h -4 -4 v 4 4 h 2 2 z m -60,40 v -2 h 2 2 v 2 2 h -2 -2 z m 28,-10 v -4 h 14 14 v -2 -2 h 2 2 v 2 2 h 2 2 v -2 -2 h 2 2 v 2 2 h -2 -2 v 2 2 h -2 -2 v 2 2 h -2 -2 v -2 -2 h -2 -2 v 2 2 h -4 -4 v -2 -2 h -4 -4 v 2 2 h -4 -4 z m -104,-2 v -2 h 2 2 v 2 2 h -2 -2 z m 148,0 v -2 h 2 2 v 2 2 h -2 -2 z m -132,-8 v -2 h 4 4 v 2 2 h -4 -4 z m 88,0 v -2 h 2 2 v 2 2 h -2 -2 z m -76,-4 v -2 h 2 2 v 2 2 h -2 -2 z m 12,0 v -2 h 2 2 v 2 2 h -2 -2 z m 16,-8 v -2 h -10 -10 v -4 -4 h -2 -2 v 2 2 h -2 -2 v -2 -2 h -2 -2 v -2 -2 h -2 -2 v 2 2 h -4 -4 v -2 -2 h 2 2 v -2 -2 h -4 -4 v -2 -2 h 4 4 v 2 2 h 2 2 v -2 -2 h 4 4 v 2 2 h 2 2 v 2 2 h 4 4 v -2 -2 h 2 2 v 4 4 h 2 2 v -2 -2 h 2 2 v 2 2 h 4 4 v 2 2 h 4 4 v 2 2 h -4 -4 v 2 2 h -2 -2 z m 20,-8 v -2 h -4 -4 v -2 -2 h 2 2 v -8 -8 h -2 -2 v -2 -2 h -2 -2 v -4 -4 h 4 4 v 6 6 h 2 2 v -2 -2 h 2 2 v -2 -2 h 2 2 v -2 -2 h 2 2 v -2 -2 h 2 2 v 2 2 h 2 2 v -2 -2 h 2 2 v 4 4 h 2 2 v 2 2 h -6 -6 v 2 2 h -2 -2 v 2 2 h 2 2 v 2 2 h -2 -2 v -2 -2 h -6 -6 v 4 4 h 2 2 v -2 -2 h 2 2 v 4 4 h -4 -4 v 2 2 h 2 2 v 2 2 h -2 -2 z m -76,-16 v -2 h 2 2 v 2 2 h -2 -2 z m 52,-12 v -2 h 2 2 v -4 -4 h -4 -4 v 4 4 h -2 -2 v -4 -4 h -4 -4 v -2 -2 h -2 -2 v -2 -2 h 4 4 v 2 2 h 10 10 v 6 6 h -2 -2 v 2 2 h -2 -2 z m 60,0 v -2 h 2 2 v 2 2 h -2 -2 z m -4,-8 v -2 h 2 2 v 2 2 h -2 -2 z m -36,-4 v -2 h -2 -2 v -4 -4 h 2 2 v 2 2 h 2 2 v -2 -2 h 2 2 v -4 -4 h 2 2 v 2 2 h 2 2 v 2 2 h 2 2 v -4 -4 h 2 2 v 4 4 h -2 -2 v 2 2 h -2 -2 v 2 2 h -4 -4 v 2 2 h -4 -4 z m 44,0 v -2 h -2 -2 v -2 -2 h 4 4 v 4 4 h -2 -2 z m 8,-2 v -4 h 2 2 v 4 4 h -2 -2 z m -20,-8 v -4 h 4 4 v 2 2 h -2 -2 v 2 2 h -2 -2 z m -36,-6 v -2 h -2 -2 v -2 -2 h -2 -2 v -2 -2 h 2 2 v 2 2 h 2 2 v -2 -2 h 4 4 v -4 -4 h -2 -2 v -2 -2 h -4 -4 v -2 -2 h 2 2 v -2 -2 h 4 4 v 2 2 h 2 2 v -2 -2 h 2 2 v 2 2 h 2 2 v 2 2 h 2 2 v 2 2 h -2 -2 v -2 -2 h -4 -4 v 2 2 h 2 2 v 6 6 h -6 -6 v 2 2 h 2 2 v 2 2 h -4 -4 z m 8,-24 v -2 h -2 -2 v 2 2 h 2 2 z m 12,12 v -2 h 2 2 v 2 2 h -2 -2 z m -36,-16 v -2 h 4 4 v 2 2 h -4 -4 z m 40,0 v -2 h 6 6 v 2 2 h -6 -6 z m -16,-10 v -4 h 4 4 v -2 -2 h 2 2 v 4 4 h -2 -2 v 2 2 h -4 -4 z m -8,-6 v -2 h -2 -2 v -2 -2 h 2 2 v 2 2 h 2 2 v -2 -2 h 2 2 v -2 -2 h 2 2 v 4 4 h -4 -4 v 2 2 h -2 -2 z m 4,-16 v -2 h 2 2 v 2 2 h -2 -2 z"
         id="path3941"
         style="fill:#754b43" />
      <path
         d="m 289.41367,647.66196 v -4 h 2 2 v -2 -2 h 2 2 v 2 2 h 2 2 v -4 -4 h -2 -2 v -2 -2 h -2 -2 v -4 -4 h 4 4 v -4 -4 h 2 2 v -14 -14 h 2 2 v 16 16 h -2 -2 v 2 2 h 2 2 v 4 4 h -2 -2 v 8 8 h -6 -6 v 2 2 h -2 -2 z m 32,-6 v -2 h -2 -2 v -8 -8 h -2 -2 v -6 -6 h 2 2 v 6 6 h 2 2 v 4 4 h 2 2 v 6 6 h -2 -2 z m -36,-4 v -2 h 2 2 v 2 2 h -2 -2 z m 12,-42 v -4 h 2 2 v 4 4 h -2 -2 z m -60,-2 v -2 h 2 2 v 2 2 h -2 -2 z m 8,-4 v -6 h 2 2 v 2 2 h 2 2 v -2 -2 h 4 4 v -4 -4 h 8 8 v 2 2 h 4 4 v -2 -2 h 12 12 v -2 -2 h 4 4 v 4 4 h 2 2 v -2 -2 h 6 6 v 2 2 h 2 2 v -2 -2 h 20 20 v 4 4 h -4 -4 v -2 -2 h -4 -4 v 2 2 h -6 -6 v -2 -2 h -2 -2 v 2 2 h -8 -8 v -2 -2 h -2 -2 v 2 2 h -10 -10 v -2 -2 h -10 -10 v 2 2 h 8 8 v 2 2 h -12 -12 v 2 2 h -2 -2 v -2 -2 h 2 2 v -2 -2 h -4 -4 v 4 4 h -8 -8 v 2 2 h -4 -4 z m 4,-12 v -2 h 2 2 v 2 2 h -2 -2 z m 40,-12 v -2 h 2 2 v 2 2 h -2 -2 z m -12,-4 v -2 h -16 -16 v -2 -2 h -4 -4 v 2 2 h -2 -2 v -6 -6 h 2 2 v 2 2 h 26 26 v -2 -2 h 2 2 v -2 -2 h -8 -8 v -2 -2 h 8 8 v 2 2 h 4 4 v 2 2 h 2 2 v -2 -2 h 2 2 v 4 4 h -2 -2 v 2 2 h 4 4 v 2 2 h -14 -14 v -2 -2 h -2 -2 v 4 4 h -2 -2 z m 52,-6 v -4 h 18 18 v -2 -2 h 2 2 v 2 2 h -2 -2 v 2 2 h -2 -2 v 2 2 h -2 -2 v -2 -2 h -2 -2 v 2 2 h -4 -4 v -2 -2 h -4 -4 v 2 2 h -4 -4 z m -104,-2 v -2 h 2 2 v 2 2 h -2 -2 z m 148,0 v -2 h 2 2 v 2 2 h -2 -2 z m -44,-8 v -2 h 2 2 v 2 2 h -2 -2 z m -76,-4 v -2 h 2 2 v 2 2 h -2 -2 z m 12,0 v -2 h 2 2 v 2 2 h -2 -2 z m 44,-8 v -6 h 4 4 v 2 2 h -2 -2 v 2 2 h 4 4 v 2 2 h -6 -6 z m -28,0 v -2 h -10 -10 v -4 -4 h -2 -2 v 2 2 h -2 -2 v -2 -2 h -2 -2 v -2 -2 h -2 -2 v 2 2 h -4 -4 v -2 -2 h 2 2 v -2 -2 h -4 -4 v -2 -2 h 4 4 v 2 2 h 8 8 v 2 2 h 6 6 v 2 2 h 8 8 v 2 2 h -2 -2 v 2 2 h 2 2 v 2 2 h -2 -2 z m 40,-6 v -4 h 10 10 v -2 -2 h 2 2 v -2 -2 h 14 14 v 2 2 h 2 2 v 2 2 h -6 -6 v 2 2 h -2 -2 v 2 2 h -2 -2 v -2 -2 h -4 -4 v 2 2 h -8 -8 v -2 -2 h -4 -4 v 2 2 h -2 -2 z m 40,-2 v -2 h 2 2 v -2 -2 h -4 -4 v 4 4 h 2 2 z m -64,-10 v -4 h 2 2 v 4 4 h -2 -2 z m -72,-6 v -2 h 2 2 v 2 2 h -2 -2 z m 80,-6 v -4 h 2 2 v -2 -2 h 2 2 v -2 -2 h 4 4 v -2 -2 h 2 2 v 4 4 h 2 2 v 2 2 h -6 -6 v 2 2 h -2 -2 v 2 2 h -4 -4 z m 12,-6 v -2 h -2 -2 v 2 2 h 2 2 z m -24,4 v -2 h -2 -2 v -4 -4 h 2 2 v 2 2 h 2 2 v 4 4 h -2 -2 z m -16,-4 v -2 h 2 2 v -4 -4 h -4 -4 v 4 4 h -2 -2 v -4 -4 h -4 -4 v -2 -2 h -2 -2 v -2 -2 h 4 4 v 2 2 h 8 8 v 2 2 h 2 2 v 4 4 h -2 -2 v 2 2 h -2 -2 z m 60,0 v -2 h 2 2 v 2 2 h -2 -2 z m -4,-8 v -2 h 2 2 v 2 2 h -2 -2 z m -32,-6 v -4 h 2 2 v -4 -4 h 4 4 v 2 2 h -2 -2 v 4 4 h -2 -2 v 2 2 h -2 -2 z m 40,2 v -2 h -2 -2 v -2 -2 h 4 4 v 4 4 h -2 -2 z m 8,-2 v -4 h 2 2 v 4 4 h -2 -2 z m -56,-14 v -2 h -2 -2 v -2 -2 h -2 -2 v -2 -2 h 2 2 v 2 2 h 2 2 v -2 -2 h 8 8 v 2 2 h -6 -6 v 4 4 h -2 -2 z m 24,0 v -2 h 2 2 v 2 2 h -2 -2 z m -16,-16 v -2 h -2 -2 v -2 -2 h -4 -4 v -2 -2 h 2 2 v -2 -2 h 4 4 v 2 2 h 6 6 v 2 2 h 2 2 v 2 2 h -2 -2 v -2 -2 h -6 -6 v 2 2 h 4 4 v 2 2 h -4 -4 z m 0,-8 v -2 h -2 -2 v 2 2 h 2 2 z m -24,-4 v -2 h 4 4 v 2 2 h -4 -4 z m 40,0 v -2 h 6 6 v 2 2 h -6 -6 z m -24,-16 v -2 h -2 -2 v -2 -2 h 2 2 v 2 2 h 2 2 v 2 2 h -2 -2 z"
         id="path3939"
         style="fill:#147a47" />
      <path
         d="m 289.41367,647.66196 v -4 h 2 2 v -2 -2 h 2 2 v 2 2 h 2 2 v -4 -4 h -2 -2 v -2 -2 h -2 -2 v -4 -4 h 4 4 v -4 -4 h 2 2 v -14 -14 h 2 2 v 16 16 h -2 -2 v 2 2 h 2 2 v 4 4 h -2 -2 v 8 8 h -6 -6 v 2 2 h -2 -2 z m 32,-6 v -2 h -2 -2 v -8 -8 h -2 -2 v -6 -6 h 2 2 v 6 6 h 2 2 v 4 4 h 2 2 v 6 6 h -2 -2 z m -36,-4 v -2 h 2 2 v 2 2 h -2 -2 z m 12,-42 v -4 h 2 2 v 4 4 h -2 -2 z m -52,-2 v -2 h 2 2 v -2 -2 h 4 4 v -2 -2 h 2 2 v -2 -2 h 2 2 v 2 2 h 2 2 v -4 -4 h 4 4 v 2 2 h 4 4 v 2 2 h 4 4 v 2 2 h -8 -8 v -2 -2 h -4 -4 v 2 2 h -2 -2 v 2 2 h -6 -6 v 2 2 h -4 -4 z m 52,-8 v -2 h 2 2 v 2 2 h -2 -2 z m 12,-4 v -2 h -2 -2 v -2 -2 h 2 2 v -2 -2 h 4 4 v 4 4 h -2 -2 v 2 2 h -2 -2 z m 12,0 v -2 h 2 2 v -2 -2 h 2 2 v 2 2 h 8 8 v 2 2 h -8 -8 v -2 -2 h -2 -2 v 2 2 h -2 -2 z m 28,0 v -2 h 2 2 v -2 -2 h 2 2 v 2 2 h 2 2 v -2 -2 h 2 2 v 2 2 h -2 -2 v 2 2 h -6 -6 z m -56,-4 v -2 h 2 2 v 2 2 h -2 -2 z m 80,0 v -2 h 2 2 v 2 2 h -2 -2 z m -84,-12 v -2 h 2 2 v 2 2 h -2 -2 z m -12,-4 v -2 h -16 -16 v -2 -2 h -4 -4 v 2 2 h -2 -2 v -4 -4 h 28 28 v -2 -2 h 2 2 v 2 2 h 2 2 v 2 2 h 2 2 v 2 2 h -8 -8 v -2 -2 h -2 -2 v 4 4 h -2 -2 z m 16,-8 v -2 h -2 -2 v 2 2 h 2 2 z m 12,4 v -2 h 4 4 v 2 2 h -4 -4 z m -80,-4 v -2 h 2 2 v 2 2 h -2 -2 z m 112,0 v -2 h 12 12 v 2 2 h -12 -12 z m 36,0 v -2 h 2 2 v 2 2 h -2 -2 z m -72,-4 v -2 h 2 2 v 2 2 h -2 -2 z m 64,0 v -2 h 2 2 v 2 2 h -2 -2 z m -36,-4 v -2 h 2 2 v 2 2 h -2 -2 z m -52,-4 v -2 h 4 4 v 2 2 h -4 -4 z m 40,-4 v -2 h 2 2 v 2 2 h -2 -2 z m -36,-4 v -2 h -10 -10 v -4 -4 h -4 -4 v -2 -2 h -4 -4 v 2 2 h -2 -2 v -4 -4 h -4 -4 v -2 -2 h 4 4 v 2 2 h 6 6 v 2 2 h 8 8 v 2 2 h 6 6 v 4 4 h 2 2 v 2 2 h -2 -2 z m 28,0 v -2 h 2 2 v -2 -2 h 2 2 v 2 2 h -2 -2 v 2 2 h -2 -2 z m 12,-4 v -2 h 2 2 v -2 -2 h 4 4 v 2 2 h -4 -4 v 2 2 h -2 -2 z m 16,-2 v -4 h 4 4 v -2 -2 h 2 2 v 2 2 h 2 2 v 2 2 h -2 -2 v 2 2 h -6 -6 z m 24,-2 v -2 h 2 2 v 2 2 h -2 -2 z m 8,-6 v -4 h 2 2 v 2 2 h 2 2 v 2 2 h -4 -4 z m -72,-4 v -4 h 2 2 v 4 4 h -2 -2 z m 56,2 v -2 h 6 6 v 2 2 h -6 -6 z m -128,-8 v -2 h 2 2 v 2 2 h -2 -2 z m 68,-8 v -2 h -2 -2 v -4 -4 h 2 2 v 4 4 h 2 2 v 2 2 h -2 -2 z m 16,-2 v -4 h 2 2 v 2 2 h 2 2 v -4 -4 h 2 2 v -2 -2 h 2 2 v 2 2 h -2 -2 v 2 2 h 4 4 v 2 2 h -6 -6 v 2 2 h -4 -4 z m -28,-10 v -2 h -10 -10 v -2 -2 h -2 -2 v -2 -2 h 4 4 v 2 2 h 8 8 v 2 2 h 2 2 v 2 2 h -2 -2 z m 52,0 v -2 h 2 2 v 2 2 h -2 -2 z m -32,-6 v -4 h 2 2 v -4 -4 h 4 4 v 2 2 h -2 -2 v 4 4 h -2 -2 v 2 2 h -2 -2 z m 40,2 v -2 h -2 -2 v -2 -2 h 4 4 v 4 4 h -2 -2 z m 8,0 v -2 h 2 2 v 2 2 h -2 -2 z m -56,-16 v -2 h -2 -2 v -2 -2 h 2 2 v 2 2 h 2 2 v 2 2 h -2 -2 z m 24,0 v -2 h 2 2 v 2 2 h -2 -2 z m -12,-16 v -2 h 2 2 v 2 2 h -2 -2 z m -8,-4 v -2 h 2 2 v -2 -2 h 4 4 v 2 2 h -4 -4 v 2 2 h -2 -2 z m 16,0 v -2 h 2 2 v 2 2 h -2 -2 z m -36,-8 v -2 h 4 4 v 2 2 h -4 -4 z m 40,0 v -2 h 6 6 v 2 2 h -6 -6 z m -24,-16 v -2 h -2 -2 v -2 -2 h 2 2 v 2 2 h 2 2 v 2 2 h -2 -2 z"
         id="path3937"
         style="fill:#572d25" />
      <path
         d="m 321.41367,641.66196 v -2 h 2 2 v 2 2 h -2 -2 z m -20,-12 v -10 h 2 2 v 10 10 h -2 -2 z m 16,0 v -6 h -2 -2 v -2 -2 h 2 2 v 2 2 h 2 2 v 6 6 h -2 -2 z m -12,-24 v -2 h 2 2 v 2 2 h -2 -2 z m -60,-12 v -2 h 2 2 v -2 -2 h 4 4 v -2 -2 h 2 2 v -2 -2 h 2 2 v 2 2 h 2 2 v -4 -4 h 4 4 v 2 2 h 4 4 v 2 2 h 4 4 v 2 2 h -8 -8 v -2 -2 h -4 -4 v 2 2 h -2 -2 v 2 2 h -6 -6 v 2 2 h -4 -4 z m 76,-12 v -2 h 2 2 v 2 2 h -2 -2 z m 8,0 v -2 h 8 8 v 2 2 h -8 -8 z m 20,0 v -2 h 2 2 v -2 -2 h 2 2 v 2 2 h 2 2 v -2 -2 h 2 2 v 2 2 h -2 -2 v 2 2 h -6 -6 z m -56,-4 v -2 h 2 2 v 2 2 h -2 -2 z m 12,0 v -2 h 4 4 v 2 2 h -4 -4 z m 68,0 v -2 h 2 2 v 2 2 h -2 -2 z m -84,-12 v -2 h 2 2 v 2 2 h -2 -2 z m -12,-4 v -2 h -16 -16 v -2 -2 h -4 -4 v 2 2 h -2 -2 v -4 -4 h 28 28 v -2 -2 h 2 2 v 2 2 h 2 2 v 4 4 h -6 -6 v -2 -2 h -2 -2 v 4 4 h -2 -2 z m 16,-8 v -2 h -2 -2 v 2 2 h 2 2 z m 12,4 v -2 h 4 4 v 2 2 h -4 -4 z m -80,-4 v -2 h 2 2 v 2 2 h -2 -2 z m 112,0 v -2 h 12 12 v 2 2 h -12 -12 z m 36,0 v -2 h 2 2 v 2 2 h -2 -2 z m -72,-4 v -2 h 2 2 v 2 2 h -2 -2 z m 64,0 v -2 h 2 2 v 2 2 h -2 -2 z m -36,-4 v -2 h 2 2 v 2 2 h -2 -2 z m -52,-4 v -2 h 4 4 v 2 2 h -4 -4 z m 4,-8 v -2 h -10 -10 v -4 -4 h -4 -4 v -2 -2 h -4 -4 v 2 2 h -2 -2 v -4 -4 h -4 -4 v -2 -2 h 4 4 v 2 2 h 6 6 v 2 2 h 8 8 v 2 2 h 6 6 v 4 4 h 2 2 v 2 2 h -2 -2 z m 40,-4 v -2 h 2 2 v -2 -2 h 4 4 v 2 2 h -4 -4 v 2 2 h -2 -2 z m 16,-2 v -4 h 4 4 v -2 -2 h 2 2 v 2 2 h 2 2 v 2 2 h -2 -2 v 2 2 h -6 -6 z m 24,-2 v -2 h 2 2 v 2 2 h -2 -2 z m 8,-4 v -2 h 4 4 v 2 2 h -4 -4 z m -16,-4 v -2 h 4 4 v 2 2 h -4 -4 z m -128,-8 v -2 h 2 2 v 2 2 h -2 -2 z m 84,-8 v -2 h 4 4 v -4 -4 h 2 2 v -2 -2 h 2 2 v 2 2 h -2 -2 v 2 2 h 4 4 v 2 2 h -6 -6 v 2 2 h -4 -4 z m -20,-4 v -2 h 2 2 v 2 2 h -2 -2 z m 44,-8 v -2 h 2 2 v 2 2 h -2 -2 z m -72,-4 v -2 h -2 -2 v -2 -2 h 4 4 v 2 2 h 8 8 v 2 2 h -10 -10 z m 80,0 v -2 h -2 -2 v -2 -2 h 4 4 v 4 4 h -2 -2 z m 8,0 v -2 h 2 2 v 2 2 h -2 -2 z m -44,-10 v -4 h 2 2 v 4 4 h -2 -2 z m -12,-6 v -2 h -2 -2 v -2 -2 h 2 2 v 2 2 h 2 2 v 2 2 h -2 -2 z m 12,-16 v -2 h 2 2 v 2 2 h -2 -2 z m -8,-4 v -2 h 2 2 v 2 2 h -2 -2 z m 16,0 v -2 h 2 2 v 2 2 h -2 -2 z m -36,-8 v -2 h 4 4 v 2 2 h -4 -4 z m 40,0 v -2 h 6 6 v 2 2 h -6 -6 z m -24,-16 v -2 h -2 -2 v -2 -2 h 2 2 v 2 2 h 2 2 v 2 2 h -2 -2 z"
         id="path3935"
         style="fill:#005c29" />
      <path
         d="m 321.41367,641.66196 v -2 h 2 2 v 2 2 h -2 -2 z m -20,-12 v -10 h 2 2 v 10 10 h -2 -2 z m 16,0 v -6 h -2 -2 v -2 -2 h 2 2 v 2 2 h 2 2 v 6 6 h -2 -2 z m -12,-24 v -2 h 2 2 v 2 2 h -2 -2 z m -60,-12 v -2 h 4 4 v -2 -2 h 4 4 v -2 -2 h 4 4 v 2 2 h -4 -4 v 2 2 h -4 -4 v 2 2 h -4 -4 z m 32,-8 v -2 h -2 -2 v -2 -2 h -2 -2 v -2 -2 h 2 2 v 2 2 h 2 2 v 2 2 h 8 8 v 2 2 h -8 -8 z m 52,-4 v -2 h 4 4 v 2 2 h -4 -4 z m 12,0 v -2 h 2 2 v 2 2 h -2 -2 z m 12,0 v -2 h 2 2 v 2 2 h -2 -2 z m 8,-4 v -2 h 2 2 v 2 2 h -2 -2 z m 12,0 v -2 h 2 2 v 2 2 h -2 -2 z m -84,-12 v -2 h 2 2 v 2 2 h -2 -2 z m -12,-4 v -2 h 2 2 v 2 2 h -2 -2 z m -28,-6 v -4 h 6 6 v 2 2 h 2 2 v -2 -2 h 2 2 v 2 2 h 2 2 v -2 -2 h 2 2 v 2 2 h -2 -2 v 2 2 h -2 -2 v -2 -2 h -2 -2 v 2 2 h -8 -8 z m 40,2 v -2 h 2 2 v 2 2 h -2 -2 z m -64,-4 v -2 h 2 2 v 2 2 h -2 -2 z m 12,0 v -2 h 4 4 v 2 2 h -4 -4 z m 100,0 v -2 h 2 2 v 2 2 h -2 -2 z m 8,0 v -2 h 4 4 v 2 2 h -4 -4 z m 28,0 v -2 h 2 2 v 2 2 h -2 -2 z m -8,-4 v -2 h 2 2 v 2 2 h -2 -2 z m -36,-4 v -2 h 2 2 v 2 2 h -2 -2 z m -48,-12 v -2 h 2 2 v 2 2 h -2 -2 z m -20,-4 v -2 h 2 2 v -2 -2 h 4 4 v 2 2 h 2 2 v 2 2 h -4 -4 v -2 -2 h -2 -2 v 2 2 h -2 -2 z m 60,0 v -2 h 2 2 v -2 -2 h 2 2 v 2 2 h -2 -2 v 2 2 h -2 -2 z m -68,-8 v -2 h 4 4 v 2 2 h -4 -4 z m 120,0 v -2 h 2 2 v 2 2 h -2 -2 z m -132,-4 v -2 h 4 4 v 2 2 h -4 -4 z m -8,-4 v -2 h 2 2 v 2 2 h -2 -2 z m -8,-4 v -2 h 2 2 v 2 2 h -2 -2 z m 96,-12 v -2 h 2 2 v 2 2 h -2 -2 z m 0,-8 v -2 h 2 2 v 2 2 h -2 -2 z m 12,0 v -2 h 2 2 v 2 2 h -2 -2 z m -64,-4 v -2 h 2 2 v 2 2 h -2 -2 z m 72,0 v -2 h -2 -2 v -2 -2 h 4 4 v 4 4 h -2 -2 z m -84,-4 v -2 h 4 4 v 2 2 h -4 -4 z m 48,-6 v -4 h 2 2 v 4 4 h -2 -2 z m -12,-6 v -2 h -2 -2 v -2 -2 h 2 2 v 2 2 h 2 2 v 2 2 h -2 -2 z m 4,-20 v -2 h 2 2 v 2 2 h -2 -2 z m 16,0 v -2 h 2 2 v 2 2 h -2 -2 z m -36,-8 v -2 h 4 4 v 2 2 h -4 -4 z m 40,0 v -2 h 6 6 v 2 2 h -6 -6 z m -24,-16 v -2 h -2 -2 v -2 -2 h 2 2 v 2 2 h 2 2 v 2 2 h -2 -2 z"
         id="path3933"
         style="fill:#390f07" />
      <path
         d="m 301.41367,629.66196 v -2 h 2 2 v 2 2 h -2 -2 z m -56,-36 v -2 h 4 4 v -2 -2 h 4 4 v -2 -2 h 4 4 v 2 2 h -4 -4 v 2 2 h -4 -4 v 2 2 h -4 -4 z m 32,-8 v -2 h -2 -2 v -2 -2 h -2 -2 v -2 -2 h 2 2 v 2 2 h 2 2 v 2 2 h 4 4 v 2 2 h -4 -4 z m 52,-4 v -2 h 4 4 v 2 2 h -4 -4 z m 12,0 v -2 h 2 2 v 2 2 h -2 -2 z m 12,0 v -2 h 2 2 v 2 2 h -2 -2 z m 8,-4 v -2 h 2 2 v 2 2 h -2 -2 z m 12,0 v -2 h 2 2 v 2 2 h -2 -2 z m -84,-12 v -2 h 2 2 v 2 2 h -2 -2 z m -12,-4 v -2 h 2 2 v 2 2 h -2 -2 z m -28,-6 v -4 h 6 6 v 2 2 h 2 2 v -2 -2 h 2 2 v 2 2 h 2 2 v -2 -2 h 2 2 v 2 2 h -2 -2 v 2 2 h -2 -2 v -2 -2 h -2 -2 v 2 2 h -8 -8 z m 40,2 v -2 h 2 2 v 2 2 h -2 -2 z m -64,-4 v -2 h 2 2 v 2 2 h -2 -2 z m 12,0 v -2 h 4 4 v 2 2 h -4 -4 z m 100,0 v -2 h 2 2 v 2 2 h -2 -2 z m 8,0 v -2 h 4 4 v 2 2 h -4 -4 z m 28,0 v -2 h 2 2 v 2 2 h -2 -2 z m -8,-4 v -2 h 2 2 v 2 2 h -2 -2 z m -36,-4 v -2 h 2 2 v 2 2 h -2 -2 z m -48,-12 v -2 h 2 2 v 2 2 h -2 -2 z m -20,-4 v -2 h 2 2 v -2 -2 h 4 4 v 2 2 h 2 2 v 2 2 h -4 -4 v -2 -2 h -2 -2 v 2 2 h -2 -2 z m -8,-8 v -2 h 4 4 v 2 2 h -4 -4 z m 120,0 v -2 h 2 2 v 2 2 h -2 -2 z m -132,-4 v -2 h 4 4 v 2 2 h -4 -4 z m -8,-4 v -2 h 2 2 v 2 2 h -2 -2 z m -8,-4 v -2 h 2 2 v 2 2 h -2 -2 z m 96,-12 v -2 h 2 2 v 2 2 h -2 -2 z m 0,-8 v -2 h 2 2 v 2 2 h -2 -2 z m 12,0 v -2 h 2 2 v 2 2 h -2 -2 z m -64,-4 v -2 h 2 2 v 2 2 h -2 -2 z m 72,0 v -2 h -2 -2 v -2 -2 h 4 4 v 4 4 h -2 -2 z m -84,-4 v -2 h 4 4 v 2 2 h -4 -4 z m 36,-12 v -2 h -2 -2 v -2 -2 h 2 2 v 2 2 h 2 2 v 2 2 h -2 -2 z m 4,-20 v -2 h 2 2 v 2 2 h -2 -2 z m 16,0 v -2 h 2 2 v 2 2 h -2 -2 z m -36,-8 v -2 h 4 4 v 2 2 h -4 -4 z m 40,0 v -2 h 6 6 v 2 2 h -6 -6 z m -24,-16 v -2 h -2 -2 v -2 -2 h 2 2 v 2 2 h 2 2 v 2 2 h -2 -2 z"
         id="path3931"
         style="fill:#003e0b" />
      <path
         d="m 301.41367,629.66196 v -2 h 2 2 v 2 2 h -2 -2 z m -56,-36 v -2 h 4 4 v 2 2 h -4 -4 z m 36,-8 v -2 h 2 2 v 2 2 h -2 -2 z m 48,-4 v -2 h 2 2 v 2 2 h -2 -2 z m 12,0 v -2 h 2 2 v 2 2 h -2 -2 z m 12,0 v -2 h 2 2 v 2 2 h -2 -2 z m 8,-4 v -2 h 2 2 v 2 2 h -2 -2 z m 12,0 v -2 h 2 2 v 2 2 h -2 -2 z m -84,-12 v -2 h 2 2 v 2 2 h -2 -2 z m -12,-4 v -2 h 2 2 v 2 2 h -2 -2 z m -24,-4 v -2 h 2 2 v -2 -2 h 2 2 v 4 4 h -4 -4 z m 36,0 v -2 h 2 2 v 2 2 h -2 -2 z m -64,-4 v -2 h 2 2 v 2 2 h -2 -2 z m 12,0 v -2 h 4 4 v 2 2 h -4 -4 z m 108,0 v -2 h 2 2 v 2 2 h -2 -2 z m 28,0 v -2 h 2 2 v 2 2 h -2 -2 z m -8,-4 v -2 h 2 2 v 2 2 h -2 -2 z m -36,-4 v -2 h 2 2 v 2 2 h -2 -2 z m -48,-12 v -2 h 2 2 v 2 2 h -2 -2 z m -20,-4 v -2 h 2 2 v 2 2 h -2 -2 z m 12,0 v -2 h -2 -2 v -2 -2 h 2 2 v 2 2 h 2 2 v 2 2 h -2 -2 z m -16,-8 v -2 h 2 2 v 2 2 h -2 -2 z m 116,0 v -2 h 2 2 v 2 2 h -2 -2 z m -132,-4 v -2 h 4 4 v 2 2 h -4 -4 z m -8,-4 v -2 h 2 2 v 2 2 h -2 -2 z m -8,-4 v -2 h 2 2 v 2 2 h -2 -2 z m 96,-20 v -2 h 2 2 v 2 2 h -2 -2 z m -52,-4 v -2 h 2 2 v 2 2 h -2 -2 z m -12,-4 v -2 h 4 4 v 2 2 h -4 -4 z m 80,0 v -2 h 4 4 v 2 2 h -4 -4 z m -44,-12 v -2 h -2 -2 v -2 -2 h 2 2 v 2 2 h 2 2 v 2 2 h -2 -2 z m 4,-20 v -2 h 2 2 v 2 2 h -2 -2 z m 16,0 v -2 h 2 2 v 2 2 h -2 -2 z m -36,-8 v -2 h 4 4 v 2 2 h -4 -4 z m 40,0 v -2 h 6 6 v 2 2 h -6 -6 z m -24,-16 v -2 h -2 -2 v -2 -2 h 2 2 v 2 2 h 2 2 v 2 2 h -2 -2 z"
         id="path3929"
         style="fill:#002000" />
      <path
         d="m 301.41367,629.66196 v -2 h 2 2 v 2 2 h -2 -2 z m -56,-36 v -2 h 4 4 v 2 2 h -4 -4 z m 36,-8 v -2 h 2 2 v 2 2 h -2 -2 z m 80,-8 v -2 h 2 2 v 2 2 h -2 -2 z m 12,0 v -2 h 2 2 v 2 2 h -2 -2 z m -84,-12 v -2 h 2 2 v 2 2 h -2 -2 z m -12,-4 v -2 h 2 2 v 2 2 h -2 -2 z m 12,-4 v -2 h 2 2 v 2 2 h -2 -2 z m -64,-4 v -2 h 2 2 v 2 2 h -2 -2 z m 12,0 v -2 h 2 2 v 2 2 h -2 -2 z m 20,0 v -2 h 2 2 v 2 2 h -2 -2 z m 116,0 v -2 h 2 2 v 2 2 h -2 -2 z m -8,-4 v -2 h 2 2 v 2 2 h -2 -2 z m -36,-4 v -2 h 2 2 v 2 2 h -2 -2 z m -48,-12 v -2 h 2 2 v 2 2 h -2 -2 z m -20,-4 v -2 h 2 2 v 2 2 h -2 -2 z m 12,0 v -2 h -2 -2 v -2 -2 h 2 2 v 2 2 h 2 2 v 2 2 h -2 -2 z m 100,-8 v -2 h 2 2 v 2 2 h -2 -2 z m -132,-4 v -2 h 2 2 v 2 2 h -2 -2 z m -8,-4 v -2 h 2 2 v 2 2 h -2 -2 z m -8,-4 v -2 h 2 2 v 2 2 h -2 -2 z m 96,-20 v -2 h 2 2 v 2 2 h -2 -2 z m -52,-4 v -2 h 2 2 v 2 2 h -2 -2 z m -12,-4 v -2 h 4 4 v 2 2 h -4 -4 z m 80,0 v -2 h 4 4 v 2 2 h -4 -4 z m -44,-12 v -2 h -2 -2 v -2 -2 h 2 2 v 2 2 h 2 2 v 2 2 h -2 -2 z m 4,-20 v -2 h 2 2 v 2 2 h -2 -2 z m 16,0 v -2 h 2 2 v 2 2 h -2 -2 z m -36,-8 v -2 h 4 4 v 2 2 h -4 -4 z m 40,0 v -2 h 6 6 v 2 2 h -6 -6 z m -24,-16 v -2 h -2 -2 v -2 -2 h 2 2 v 2 2 h 2 2 v 2 2 h -2 -2 z"
         id="path3927"
         style="fill:#1b0000" />
      <path
         d="m 245.41367,593.66196 v -2 h 4 4 v 2 2 h -4 -4 z m 36,-8 v -2 h 2 2 v 2 2 h -2 -2 z m 80,-8 v -2 h 2 2 v 2 2 h -2 -2 z m 12,0 v -2 h 2 2 v 2 2 h -2 -2 z m -84,-12 v -2 h 2 2 v 2 2 h -2 -2 z m -12,-4 v -2 h 2 2 v 2 2 h -2 -2 z m -52,-8 v -2 h 2 2 v 2 2 h -2 -2 z m 12,0 v -2 h 2 2 v 2 2 h -2 -2 z m 20,0 v -2 h 2 2 v 2 2 h -2 -2 z m 116,0 v -2 h 2 2 v 2 2 h -2 -2 z m -8,-4 v -2 h 2 2 v 2 2 h -2 -2 z m -36,-4 v -2 h 2 2 v 2 2 h -2 -2 z m -48,-12 v -2 h 2 2 v 2 2 h -2 -2 z m -20,-4 v -2 h 2 2 v 2 2 h -2 -2 z m 12,0 v -2 h -2 -2 v -2 -2 h 2 2 v 2 2 h 2 2 v 2 2 h -2 -2 z m 100,-8 v -2 h 2 2 v 2 2 h -2 -2 z m -132,-4 v -2 h 2 2 v 2 2 h -2 -2 z m -8,-4 v -2 h 2 2 v 2 2 h -2 -2 z m -8,-4 v -2 h 2 2 v 2 2 h -2 -2 z m 96,-20 v -2 h 2 2 v 2 2 h -2 -2 z m -52,-4 v -2 h 2 2 v 2 2 h -2 -2 z m -12,-4 v -2 h 4 4 v 2 2 h -4 -4 z m 80,0 v -2 h 4 4 v 2 2 h -4 -4 z m -44,-12 v -2 h -2 -2 v -2 -2 h 2 2 v 2 2 h 2 2 v 2 2 h -2 -2 z m 4,-20 v -2 h 2 2 v 2 2 h -2 -2 z m 16,0 v -2 h 2 2 v 2 2 h -2 -2 z m -36,-8 v -2 h 4 4 v 2 2 h -4 -4 z m 40,0 v -2 h 6 6 v 2 2 h -6 -6 z m -24,-16 v -2 h -2 -2 v -2 -2 h 2 2 v 2 2 h 2 2 v 2 2 h -2 -2 z"
         id="path3925"
         style="fill:#000200" />
      <path
         d="m 245.41367,593.66196 v -2 h 4 4 v 2 2 h -4 -4 z m 36,-8 v -2 h 2 2 v 2 2 h -2 -2 z m 80,-8 v -2 h 2 2 v 2 2 h -2 -2 z m 12,0 v -2 h 2 2 v 2 2 h -2 -2 z m -84,-12 v -2 h 2 2 v 2 2 h -2 -2 z m -12,-4 v -2 h 2 2 v 2 2 h -2 -2 z m -52,-8 v -2 h 2 2 v 2 2 h -2 -2 z m 32,0 v -2 h 2 2 v 2 2 h -2 -2 z m 116,0 v -2 h 2 2 v 2 2 h -2 -2 z m -8,-4 v -2 h 2 2 v 2 2 h -2 -2 z m -36,-4 v -2 h 2 2 v 2 2 h -2 -2 z m -48,-12 v -2 h 2 2 v 2 2 h -2 -2 z m -20,-4 v -2 h 2 2 v 2 2 h -2 -2 z m 12,0 v -2 h -2 -2 v -2 -2 h 2 2 v 2 2 h 2 2 v 2 2 h -2 -2 z m 100,-8 v -2 h 2 2 v 2 2 h -2 -2 z m -132,-4 v -2 h 2 2 v 2 2 h -2 -2 z m -8,-4 v -2 h 2 2 v 2 2 h -2 -2 z m -8,-4 v -2 h 2 2 v 2 2 h -2 -2 z m 96,-20 v -2 h 2 2 v 2 2 h -2 -2 z m -52,-4 v -2 h 2 2 v 2 2 h -2 -2 z m -12,-4 v -2 h 4 4 v 2 2 h -4 -4 z m 80,0 v -2 h 4 4 v 2 2 h -4 -4 z m -44,-12 v -2 h -2 -2 v -2 -2 h 2 2 v 2 2 h 2 2 v 2 2 h -2 -2 z m 4,-20 v -2 h 2 2 v 2 2 h -2 -2 z m 16,0 v -2 h 2 2 v 2 2 h -2 -2 z m -36,-8 v -2 h 4 4 v 2 2 h -4 -4 z m 40,0 v -2 h 6 6 v 2 2 h -6 -6 z m -24,-16 v -2 h -2 -2 v -2 -2 h 2 2 v 2 2 h 2 2 v 2 2 h -2 -2 z"
         id="path3923"
         style="fill:#000000" />
    </g>
  </g>
</svg>
