<?xml version="1.0" encoding="UTF-8" standalone="no"?>
<!-- Created with Inkscape (http://www.inkscape.org/) -->

<svg
   version="1.1"
   id="svg1"
   width="245.54524"
   height="171.74561"
   viewBox="0 0 245.54524 171.7456"
   sodipodi:docname="BIDS-logo.svg"
   inkscape:version="1.4 (e7c3feb100, 2024-10-09)"
   xmlns:inkscape="http://www.inkscape.org/namespaces/inkscape"
   xmlns:sodipodi="http://sodipodi.sourceforge.net/DTD/sodipodi-0.dtd"
   xmlns="http://www.w3.org/2000/svg"
   xmlns:svg="http://www.w3.org/2000/svg">
  <defs
     id="defs1" />
  <sodipodi:namedview
     id="namedview1"
     pagecolor="#ffffff"
     bordercolor="#000000"
     borderopacity="0.25"
     inkscape:showpageshadow="2"
     inkscape:pageopacity="0.0"
     inkscape:pagecheckerboard="true"
     inkscape:deskcolor="#d1d1d1"
     inkscape:zoom="3.4151546"
     inkscape:cx="32.795001"
     inkscape:cy="117.12501"
     inkscape:window-width="3436"
     inkscape:window-height="1386"
     inkscape:window-x="0"
     inkscape:window-y="0"
     inkscape:window-maximized="0"
     inkscape:current-layer="g1">
    <inkscape:page
       x="0"
       y="0"
       inkscape:label="1"
       id="page1"
       width="245.54524"
       height="171.74561"
       margin="0"
       bleed="0" />
  </sodipodi:namedview>
  <g
     id="g1"
     inkscape:groupmode="layer"
     inkscape:label="1"
     transform="translate(-46.775464,-22.220791)">
    <path
       id="path2"
       d="M 68.225998,117.2612 H 54.168799 v 24.8204 h 15.813466 c 12.0808,0 17.132799,-4.9428 17.132799,-12.74013 0,-8.0172 -6.698933,-12.08027 -18.889066,-12.08027 z M 68.884932,86.181337 H 54.168799 v 24.710133 c 0.109333,0 13.617199,0 13.617199,0 10.3228,0 17.1328,-4.50267 17.1328,-12.629734 0,-7.357733 -5.161467,-12.080399 -16.033866,-12.080399 z m 25.258799,43.160133 c 0,11.20253 -7.357733,19.10933 -24.710933,19.10933 H 47.140132 V 79.81067 h 21.415066 c 16.472933,0 23.392133,7.469333 23.392133,17.9016 0,6.69947 -4.064,13.28907 -13.1796,15.59533 10.104133,1.97654 15.376,8.01667 15.376,16.03387"
       style="fill:#1f335e;fill-opacity:1;fill-rule:nonzero;stroke:none;stroke-width:0.133333" />
    <path
       id="path3"
       d="M 105.562,148.4508 V 79.81067 h 6.9192 v 68.64013 h -6.9192"
       style="fill:#1f335e;fill-opacity:1;fill-rule:nonzero;stroke:none;stroke-width:0.133333" />
    <path
       id="path4"
       d="m 144.22,86.292003 h -11.20227 v 55.678667 h 11.42093 c 17.57067,0 29.54267,-9.00467 29.54267,-27.78493 0,-17.46147 -10.98267,-27.893737 -29.76133,-27.893737 z m -0.11067,62.158797 c -2.74533,0 -18.12027,0 -18.12027,0 V 79.81067 c 0,0 15.92294,0 18.6696,0 22.512,0 36.35067,13.619333 36.35067,33.82613 0,21.63534 -13.50933,34.814 -36.9,34.814"
       style="fill:#1f335e;fill-opacity:1;fill-rule:nonzero;stroke:none;stroke-width:0.133333" />
    <path
       id="path5"
       d="m 226.47199,130.65974 c 0,-8.0172 -6.58933,-11.2016 -17.352,-14.38654 -9.66533,-2.85573 -19.98799,-7.02866 -19.98799,-19.21973 0,-10.872133 9.22533,-18.669466 21.96533,-18.669466 7.90666,0 14.82533,2.196 20.64666,5.930666 l -2.52533,6.149333 c -5.164,-3.513333 -11.86267,-5.710666 -18.012,-5.710666 -10.32267,0 -15.26533,5.492 -15.26533,11.7516 0,7.577203 6.80933,10.432933 17.352,13.727733 9.884,2.96507 19.87733,7.4676 19.87733,19.8776 0,11.3124 -9.44533,19.76813 -23.172,19.76813 -8.236,0 -15.81466,-2.4156 -22.07466,-6.3692 l 2.52533,-6.25986 c 5.492,3.73333 11.972,6.3692 19.76933,6.3692 9.55467,0 16.25333,-5.7104 16.25333,-12.9588"
       style="fill:#1f335e;fill-opacity:1;fill-rule:nonzero;stroke:none;stroke-width:0.133333" />
    <path
       id="path6"
       d="m 114.87293,70.220004 c 0,-3.049333 -2.47187,-5.521333 -5.5208,-5.521333 -3.04907,0 -5.5204,2.472 -5.5204,5.521333 0,3.048 2.47133,5.52 5.5204,5.52 3.04893,0 5.5208,-2.472 5.5208,-5.52"
       style="fill:#91b025;fill-opacity:1;fill-rule:nonzero;stroke:none;stroke-width:0.133333" />
    <path
       id="path7"
       d="m 246.93333,144.95707 c 0,-3.04893 -2.472,-5.52133 -5.52,-5.52133 -3.04934,0 -5.52134,2.4724 -5.52134,5.52133 0,3.0484 2.472,5.52027 5.52134,5.52027 3.048,0 5.52,-2.47187 5.52,-5.52027"
       style="fill:#91b025;fill-opacity:1;fill-rule:nonzero;stroke:none;stroke-width:0.133333" />
    <path
       id="path8"
       d="M 241.41333,144.95707 C 300.35466,50.992004 239.27466,18.770672 109.35213,70.686671"
       style="fill:none;stroke:#90b025;stroke-width:1.33333;stroke-linecap:butt;stroke-linejoin:miter;stroke-miterlimit:10;stroke-dasharray:none;stroke-opacity:1" />
    <path
       id="path9"
       d="m 109.35213,70.468004 c 166.11853,-74.3626649 203.09453,-21.972 132.0612,74.489066"
       style="fill:none;stroke:#90b025;stroke-width:1.33333;stroke-linecap:butt;stroke-linejoin:miter;stroke-miterlimit:10;stroke-dasharray:none;stroke-opacity:1" />
    <path
       id="path10"
       d="M 109.35213,70.686671 C 277.67199,-16.959994 347.25332,20.692005 241.41333,144.95707"
       style="fill:none;stroke:#90b025;stroke-width:1.33333;stroke-linecap:butt;stroke-linejoin:miter;stroke-miterlimit:10;stroke-dasharray:none;stroke-opacity:1" />
    <path
       id="path11"
       d="m 109.35213,70.686671 c 97.12653,-35.4 179.25453,-12.358667 132.0612,74.270399"
       style="fill:none;stroke:#90b025;stroke-width:1.33333;stroke-linecap:butt;stroke-linejoin:miter;stroke-miterlimit:10;stroke-dasharray:none;stroke-opacity:1" />
    <path
       id="path12"
       d="m 50.544799,170.17213 c -0.02187,0 -2.422934,0 -2.422934,0 v 3.50107 c 0,0 2.534934,0 2.5808,0 1.7276,0 2.490534,-0.69587 2.490534,-1.79587 0,-1.12133 -0.8984,-1.7052 -2.6484,-1.7052 z m -0.02187,-4.66813 c -0.02347,0 -2.401067,0 -2.401067,0 v 3.50147 c 0.133867,0 2.333334,0 2.333334,0 1.547866,0 2.401066,-0.6296 2.401066,-1.79627 0,-1.05467 -0.763066,-1.7052 -2.333333,-1.7052 z m 4.039067,6.41867 c 0,1.75053 -1.100534,2.96146 -3.837467,2.96146 H 46.775465 V 164.292 h 3.837067 c 2.580667,0 3.612,1.16667 3.612,2.82813 0,1.03174 -0.6276,1.952 -1.8396,2.35574 1.414,0.29213 2.177067,1.30146 2.177067,2.4468"
       style="fill:#61636d;fill-opacity:1;fill-rule:nonzero;stroke:none;stroke-width:0.133333" />
    <path
       id="path13"
       d="M 58.156799,174.88413 V 164.292 h 6.619733 v 1.23493 h -5.273467 v 3.43334 h 4.398533 v 1.23426 h -4.398533 v 3.45627 h 5.273467 v 1.23333 h -6.619733"
       style="fill:#61636d;fill-opacity:1;fill-rule:nonzero;stroke:none;stroke-width:0.133333" />
    <path
       id="path14"
       d="m 71.781732,169.7904 c 1.728133,-0.0224 2.670933,-0.85307 2.670933,-2.17707 0,-1.4136 -0.875067,-2.0864 -2.782933,-2.0864 -0.02333,0 -1.7952,0 -1.7952,0 v 4.3088 z m -1.885334,5.09373 H 68.528132 V 164.292 c 0,0 3.231733,0 3.2536,0 2.670933,0 4.039066,1.23493 4.039066,3.23173 0,1.5708 -0.874933,2.58027 -2.1312,3.05214 l 2.692667,4.30826 h -1.571867 l -2.4672,-3.99373 -2.4468,0.13333 v 3.8604"
       style="fill:#61636d;fill-opacity:1;fill-rule:nonzero;stroke:none;stroke-width:0.133333" />
    <path
       id="path15"
       d="m 81.233865,169.31853 4.6,-5.02653 h 1.728133 l -5.0276,5.2068 5.071866,5.38533 H 85.878131 L 81.233865,169.88 h -0.0224 c 0,0.4932 0,5.00413 0,5.00413 H 79.841731 V 164.292 h 1.369734 v 5.02653 h 0.0224"
       style="fill:#61636d;fill-opacity:1;fill-rule:nonzero;stroke:none;stroke-width:0.133333" />
    <path
       id="path16"
       d="M 90.594264,174.88413 V 164.292 h 6.619734 v 1.23493 h -5.273334 v 3.43334 h 4.3984 v 1.23426 h -4.3984 v 3.45627 h 5.273334 v 1.23333 h -6.619734"
       style="fill:#61636d;fill-opacity:1;fill-rule:nonzero;stroke:none;stroke-width:0.133333" />
    <path
       id="path17"
       d="M 100.96666,174.88413 V 164.292 h 1.36974 v 9.3588 h 5.09386 v 1.23333 h -6.4636"
       style="fill:#61636d;fill-opacity:1;fill-rule:nonzero;stroke:none;stroke-width:0.133333" />
    <path
       id="path18"
       d="M 110.7312,174.88413 V 164.292 h 6.61986 v 1.23493 h -5.27346 v 3.43334 h 4.3984 v 1.23426 h -4.3984 v 3.45627 h 5.27346 v 1.23333 h -6.61986"
       style="fill:#61636d;fill-opacity:1;fill-rule:nonzero;stroke:none;stroke-width:0.133333" />
    <path
       id="path19"
       d="m 125.05413,170.71067 v 4.17346 h -1.36973 v -4.19626 l -3.67974,-6.39587 h 1.48027 l 2.91813,5.07187 2.82667,-5.07187 h 1.50413 l -3.67973,6.41867"
       style="fill:#61636d;fill-opacity:1;fill-rule:nonzero;stroke:none;stroke-width:0.133333" />
    <path
       id="path20"
       d="M 137.87333,174.88413 V 164.292 h 1.368 v 10.59213 h -1.368"
       style="fill:#61636d;fill-opacity:1;fill-rule:nonzero;stroke:none;stroke-width:0.133333" />
    <path
       id="path21"
       d="m 150.73333,164.292 h 1.30267 v 10.70413 h -1.48267 l -5.788,-8.72973 0.0213,8.61773 H 143.4853 V 164.292 h 1.52533 l 5.74534,8.64013 -0.0227,-8.64013"
       style="fill:#61636d;fill-opacity:1;fill-rule:nonzero;stroke:none;stroke-width:0.133333" />
    <path
       id="path22"
       d="m 161.39733,172.10133 c 0,-1.14426 -0.89733,-1.5708 -2.55733,-2.04106 -1.504,-0.4496 -3.14134,-1.1 -3.14134,-3.05214 0,-1.75106 1.412,-2.94013 3.5,-2.94013 1.28,0 2.424,0.336 3.344,0.89747 l -0.42666,1.21186 c -0.852,-0.56133 -1.92934,-0.89733 -2.89467,-0.89733 -1.48133,0 -2.15467,0.76253 -2.15467,1.63853 0,1.09894 0.96534,1.4812 2.58134,1.95214 1.52533,0.44786 3.096,1.16666 3.096,3.11866 0,1.8172 -1.52534,3.11987 -3.70134,3.11987 -1.25733,0 -2.53733,-0.38133 -3.524,-0.9652 l 0.404,-1.21187 c 0.94267,0.5828 1.92934,0.988 3.14134,0.988 1.39066,0 2.33333,-0.78706 2.33333,-1.8188"
       style="fill:#61636d;fill-opacity:1;fill-rule:nonzero;stroke:none;stroke-width:0.133333" />
    <path
       id="path23"
       d="m 170.312,165.52693 v 9.3572 h -1.36934 v -9.3572 h -3.68 V 164.292 h 8.72934 v 1.23493 h -3.68"
       style="fill:#61636d;fill-opacity:1;fill-rule:nonzero;stroke:none;stroke-width:0.133333" />
    <path
       id="path24"
       d="M 177.24933,174.88413 V 164.292 h 1.368 v 10.59213 h -1.368"
       style="fill:#61636d;fill-opacity:1;fill-rule:nonzero;stroke:none;stroke-width:0.133333" />
    <path
       id="path25"
       d="m 186.924,165.52693 v 9.3572 h -1.37067 v -9.3572 h -3.67867 V 164.292 h 8.72934 v 1.23493 h -3.68"
       style="fill:#61636d;fill-opacity:1;fill-rule:nonzero;stroke:none;stroke-width:0.133333" />
    <path
       id="path26"
       d="m 197.7,175.1092 c -2.604,0 -4.10667,-1.54893 -4.10667,-4.15213 V 164.292 H 194.94 v 6.50773 c 0,1.9308 0.91866,3.07507 2.804,3.07507 1.77333,0 2.71466,-1.05467 2.71466,-3.07507 V 164.292 h 1.348 c 0,0 0,6.39587 0,6.50773 0,2.69387 -1.41467,4.30947 -4.10666,4.30947"
       style="fill:#61636d;fill-opacity:1;fill-rule:nonzero;stroke:none;stroke-width:0.133333" />
    <path
       id="path27"
       d="m 209.84399,165.52693 v 9.3572 h -1.36933 v -9.3572 h -3.68 V 164.292 h 8.72933 v 1.23493 h -3.68"
       style="fill:#61636d;fill-opacity:1;fill-rule:nonzero;stroke:none;stroke-width:0.133333" />
    <path
       id="path28"
       d="M 216.75999,174.88413 V 164.292 h 6.62 v 1.23493 h -5.27333 v 3.43334 h 4.39733 v 1.23426 h -4.39733 v 3.45627 h 5.27333 v 1.23333 h -6.62"
       style="fill:#61636d;fill-opacity:1;fill-rule:nonzero;stroke:none;stroke-width:0.133333" />
    <path
       id="path29"
       d="m 46.775465,183.1508 h 6.462 v 1.23333 h -5.1156 v 3.61307 h 4.240667 v 1.25627 h -4.240667 v 4.488 h -1.3464 V 183.1508"
       style="fill:#61636d;fill-opacity:1;fill-rule:nonzero;stroke:none;stroke-width:0.133333" />
    <path
       id="path30"
       d="m 61.275465,184.11493 c -2.243733,0 -3.859333,1.75054 -3.859333,4.2848 0,2.6272 1.638,4.3776 3.927066,4.3776 2.289067,0 3.859467,-1.7504 3.859467,-4.30933 0,-2.60253 -1.616267,-4.35307 -3.9272,-4.35307 z m 0.04533,9.85147 c -3.007733,0 -5.274399,-2.17707 -5.274399,-5.4984 0,-3.23227 2.2224,-5.54267 5.274399,-5.54267 3.0068,0 5.273467,2.15467 5.273467,5.4744 0,3.2324 -2.2224,5.56667 -5.273467,5.56667"
       style="fill:#61636d;fill-opacity:1;fill-rule:nonzero;stroke:none;stroke-width:0.133333" />
    <path
       id="path31"
       d="m 73.487465,188.64773 c 1.728133,-0.0224 2.670933,-0.8532 2.670933,-2.17706 0,-1.4136 -0.875067,-2.08654 -2.782933,-2.08654 -0.02187,0 -1.7952,0 -1.7952,0 v 4.30947 z m -1.883867,5.09374 H 70.233865 V 183.1508 c 0,0 3.231733,0 3.2536,0 2.670933,0 4.040666,1.23333 4.040666,3.2308 0,1.57027 -0.876533,2.5796 -2.1328,3.05147 l 2.692667,4.3084 h -1.570267 l -2.4688,-3.9932 -2.445333,0.13333 v 3.85987"
       style="fill:#61636d;fill-opacity:1;fill-rule:nonzero;stroke:none;stroke-width:0.133333" />
    <path
       id="path32"
       d="m 90.549998,184.38413 h -1.6156 v 8.124 h 1.659866 c 2.5588,0 4.3088,-1.324 4.3088,-4.04013 0,-2.62547 -1.616133,-4.08387 -4.353066,-4.08387 z m 0,9.35734 c -0.448934,0 -2.985467,0 -2.985467,0 V 183.1508 c 0,0 2.536533,0 3.097467,0 3.5,0 5.6328,2.08493 5.6328,5.2276 0,3.29893 -2.086934,5.36307 -5.7448,5.36307"
       style="fill:#61636d;fill-opacity:1;fill-rule:nonzero;stroke:none;stroke-width:0.133333" />
    <path
       id="path33"
       d="m 103.52546,184.42787 -1.9312,5.27453 h 3.83747 z m 4.7344,9.3136 h -1.36866 l -1.0324,-2.82654 h -4.69 l -1.0328,2.82654 h -1.390669 l 3.971329,-10.59067 h 1.638 l 3.9052,10.59067"
       style="fill:#61636d;fill-opacity:1;fill-rule:nonzero;stroke:none;stroke-width:0.133333" />
    <path
       id="path34"
       d="m 114.61506,184.38413 v 9.35734 h -1.36973 v -9.35734 h -3.67973 v -1.23333 h 8.7292 v 1.23333 h -3.67974"
       style="fill:#61636d;fill-opacity:1;fill-rule:nonzero;stroke:none;stroke-width:0.133333" />
    <path
       id="path35"
       d="m 124.3588,184.42787 -1.9312,5.27453 h 3.83746 z m 4.7344,9.3136 h -1.36867 l -1.0324,-2.82654 h -4.69 l -1.0328,2.82654 h -1.39067 L 123.55,183.1508 h 1.638 l 3.9052,10.59067"
       style="fill:#61636d;fill-opacity:1;fill-rule:nonzero;stroke:none;stroke-width:0.133333" />
    <path
       id="path36"
       d="m 143.39333,190.95867 c 0,-1.14427 -0.896,-1.5708 -2.55733,-2.0412 -1.504,-0.44947 -3.14134,-1.1 -3.14134,-3.052 0,-1.75054 1.41334,-2.94014 3.5,-2.94014 1.28,0 2.424,0.33587 3.344,0.89734 l -0.42666,1.212 c -0.852,-0.56147 -1.92934,-0.89734 -2.89334,-0.89734 -1.48266,0 -2.156,0.7624 -2.156,1.63854 0,1.09893 0.96534,1.4812 2.58134,1.952 1.52533,0.44946 3.096,1.16666 3.096,3.1188 0,1.8188 -1.52534,3.11973 -3.70134,3.11973 -1.25733,0 -2.53733,-0.3812 -3.524,-0.96507 l 0.404,-1.212 c 0.94267,0.5828 1.92934,0.988 3.14134,0.988 1.39066,0 2.33333,-0.78693 2.33333,-1.81866"
       style="fill:#61636d;fill-opacity:1;fill-rule:nonzero;stroke:none;stroke-width:0.133333" />
    <path
       id="path37"
       d="m 155.89733,184.968 c -0.852,-0.51613 -1.81733,-0.83067 -2.896,-0.83067 -2.24267,0 -3.81333,1.5708 -3.81333,4.2864 0,2.6708 1.50266,4.3308 3.83733,4.3308 1.144,0 2.22133,-0.3824 2.93867,-0.9428 l 0.26933,1.324 c -0.80667,0.49374 -2.01867,0.83067 -3.25333,0.83067 -3.11867,0 -5.16134,-2.10933 -5.16134,-5.4984 0,-3.3656 2.132,-5.54267 5.18267,-5.54267 1.28,0 2.492,0.35987 3.32267,0.85307 l -0.42667,1.1896"
       style="fill:#61636d;fill-opacity:1;fill-rule:nonzero;stroke:none;stroke-width:0.133333" />
    <path
       id="path38"
       d="M 159.91866,193.74147 V 183.1508 h 1.368 v 10.59067 h -1.368"
       style="fill:#61636d;fill-opacity:1;fill-rule:nonzero;stroke:none;stroke-width:0.133333" />
    <path
       id="path39"
       d="M 165.53066,193.74147 V 183.1508 h 6.62 v 1.23333 h -5.27333 v 3.43334 h 4.39867 v 1.2344 h -4.39867 v 3.45626 h 5.27333 v 1.23334 h -6.62"
       style="fill:#61636d;fill-opacity:1;fill-rule:nonzero;stroke:none;stroke-width:0.133333" />
    <path
       id="path40"
       d="m 183.15066,183.1508 h 1.30134 v 10.70267 h -1.48134 l -5.78933,-8.72974 0.0227,8.61774 h -1.30267 V 183.1508 h 1.52667 l 5.744,8.63853 -0.0213,-8.63853"
       style="fill:#61636d;fill-opacity:1;fill-rule:nonzero;stroke:none;stroke-width:0.133333" />
    <path
       id="path41"
       d="m 196.14933,184.968 c -0.85333,-0.51613 -1.81733,-0.83067 -2.896,-0.83067 -2.244,0 -3.81333,1.5708 -3.81333,4.2864 0,2.6708 1.50266,4.3308 3.836,4.3308 1.14533,0 2.22266,-0.3824 2.94,-0.9428 l 0.26933,1.324 c -0.808,0.49374 -2.02,0.83067 -3.25467,0.83067 -3.11866,0 -5.16133,-2.10933 -5.16133,-5.4984 0,-3.3656 2.13333,-5.54267 5.184,-5.54267 1.28,0 2.49067,0.35987 3.32133,0.85307 l -0.42533,1.1896"
       style="fill:#61636d;fill-opacity:1;fill-rule:nonzero;stroke:none;stroke-width:0.133333"
       inkscape:label="path41" />
    <path
       id="path42"
       d="M 200.14799,193.74147 V 183.1508 h 6.62 v 1.23333 h -5.27333 v 3.43334 h 4.39733 v 1.2344 h -4.39733 v 3.45626 h 5.27333 v 1.23334 h -6.62"
       style="fill:#61636d;fill-opacity:1;fill-rule:nonzero;stroke:none;stroke-width:0.133333" />
  </g>
</svg>
