<?xml version="1.0" encoding="UTF-8" standalone="no"?>
<!-- Created with Inkscape (http://www.inkscape.org/) -->

<svg
   version="1.1"
   id="svg1"
   width="96.494667"
   height="81.56266"
   viewBox="0 0 96.494667 81.562659"
   sodipodi:docname="eScience-logo.svg"
   inkscape:version="1.4 (e7c3feb100, 2024-10-09)"
   xmlns:inkscape="http://www.inkscape.org/namespaces/inkscape"
   xmlns:sodipodi="http://sodipodi.sourceforge.net/DTD/sodipodi-0.dtd"
   xmlns="http://www.w3.org/2000/svg"
   xmlns:svg="http://www.w3.org/2000/svg">
  <defs
     id="defs1">
    <clipPath
       clipPathUnits="userSpaceOnUse"
       id="clipPath1">
      <path
         d="M 0,0 H 73 V 62 H 0 Z"
         id="path1" />
    </clipPath>
    <clipPath
       clipPathUnits="userSpaceOnUse"
       id="clipPath2">
      <path
         d="M 0,0 H 73 V 62 H 0 Z"
         id="path2" />
    </clipPath>
    <clipPath
       clipPathUnits="userSpaceOnUse"
       id="clipPath3">
      <path
         d="M 0,0 H 73 V 62 H 0 Z"
         id="path3" />
    </clipPath>
    <clipPath
       clipPathUnits="userSpaceOnUse"
       id="clipPath4">
      <path
         d="M 0,0 H 73 V 62 H 0 Z"
         id="path4" />
    </clipPath>
    <clipPath
       clipPathUnits="userSpaceOnUse"
       id="clipPath5">
      <path
         d="M 0,0 H 73 V 62 H 0 Z"
         id="path5" />
    </clipPath>
    <clipPath
       clipPathUnits="userSpaceOnUse"
       id="clipPath6">
      <path
         d="M 0,0 H 73 V 62 H 0 Z"
         id="path6" />
    </clipPath>
    <clipPath
       clipPathUnits="userSpaceOnUse"
       id="clipPath7">
      <path
         d="M 0,0 H 73 V 62 H 0 Z"
         id="path7" />
    </clipPath>
    <clipPath
       clipPathUnits="userSpaceOnUse"
       id="clipPath8">
      <path
         d="M 0,0 H 73 V 62 H 0 Z"
         id="path8" />
    </clipPath>
    <clipPath
       clipPathUnits="userSpaceOnUse"
       id="clipPath9">
      <path
         d="M 0,0 H 73 V 62 H 0 Z"
         id="path9" />
    </clipPath>
    <clipPath
       clipPathUnits="userSpaceOnUse"
       id="clipPath10">
      <path
         d="M 0,0 H 73 V 62 H 0 Z"
         id="path10" />
    </clipPath>
    <clipPath
       clipPathUnits="userSpaceOnUse"
       id="clipPath11">
      <path
         d="M 0,0 H 73 V 62 H 0 Z"
         id="path11" />
    </clipPath>
    <clipPath
       clipPathUnits="userSpaceOnUse"
       id="clipPath12">
      <path
         d="M 0,0 H 73 V 62 H 0 Z"
         id="path12" />
    </clipPath>
    <clipPath
       clipPathUnits="userSpaceOnUse"
       id="clipPath13">
      <path
         d="M 0,0 H 73 V 62 H 0 Z"
         id="path13" />
    </clipPath>
    <clipPath
       clipPathUnits="userSpaceOnUse"
       id="clipPath14">
      <path
         d="M 0,0 H 73 V 62 H 0 Z"
         id="path14" />
    </clipPath>
    <clipPath
       clipPathUnits="userSpaceOnUse"
       id="clipPath15">
      <path
         d="M 0,0 H 73 V 62 H 0 Z"
         id="path15" />
    </clipPath>
    <clipPath
       clipPathUnits="userSpaceOnUse"
       id="clipPath16">
      <path
         d="M 0,0 H 73 V 62 H 0 Z"
         id="path16" />
    </clipPath>
    <clipPath
       clipPathUnits="userSpaceOnUse"
       id="clipPath17">
      <path
         d="M 0,0 H 73 V 62 H 0 Z"
         id="path17" />
    </clipPath>
    <clipPath
       clipPathUnits="userSpaceOnUse"
       id="clipPath18">
      <path
         d="M 0,0 H 73 V 62 H 0 Z"
         id="path18" />
    </clipPath>
    <clipPath
       clipPathUnits="userSpaceOnUse"
       id="clipPath19">
      <path
         d="M 0,0 H 73 V 62 H 0 Z"
         id="path19" />
    </clipPath>
  </defs>
  <sodipodi:namedview
     id="namedview1"
     pagecolor="#ffffff"
     bordercolor="#000000"
     borderopacity="0.25"
     inkscape:showpageshadow="2"
     inkscape:pageopacity="0.0"
     inkscape:pagecheckerboard="0"
     inkscape:deskcolor="#d1d1d1"
     inkscape:zoom="4.707898"
     inkscape:cx="107.69137"
     inkscape:cy="88.362153"
     inkscape:window-width="3436"
     inkscape:window-height="1386"
     inkscape:window-x="0"
     inkscape:window-y="0"
     inkscape:window-maximized="0"
     inkscape:current-layer="g1">
    <inkscape:page
       x="0"
       y="1.0905154e-14"
       inkscape:label="1"
       id="page1"
       width="96.494667"
       height="81.56266"
       margin="0"
       bleed="0" />
  </sodipodi:namedview>
  <g
     id="g1"
     inkscape:groupmode="layer"
     inkscape:label="1">
    <g
       id="g38">
      <path
         d="m 0.312,13.973 c 0,-0.563 0.497,-0.989 1.11,-0.989 0.586,0 1.164,0.411 1.164,0.989 v 2.207 l 0.305,0.293 H 1.953 L 2.262,16.18 v -2.207 c 0,-0.395 -0.328,-0.707 -0.742,-0.707 -0.418,0 -0.79,0.308 -0.79,0.707 v 2.207 l 0.309,0.293 H 0 L 0.312,16.18 Z M 4.348,13.352 V 15.91 L 6.27,13.059 h 0.125 v 3.121 l 0.312,0.293 H 5.77 L 6.082,16.18 V 14.008 L 4.465,16.473 H 3.723 l 0.3,-0.293 v -2.828 l -0.3,-0.293 h 0.933 z m 3.336,3.121 0.289,-0.27 V 13.328 L 7.684,13.059 h 0.968 l -0.285,0.269 v 2.875 l 0.285,0.27 z m 2.785,0 H 9.453 l 0.293,-0.27 1.012,-3.144 h 0.18 l 1.039,3.144 0.293,0.27 h -0.864 l 0.282,-0.266 -0.762,-2.363 -0.735,2.363 z m 4.652,-3.414 v 0.625 l -0.383,-0.372 h -1.09 v 1.434 h 0.813 l 0.281,-0.269 v 0.796 l -0.281,-0.269 h -0.813 v 1.215 h 1.09 l 0.383,-0.364 v 0.618 h -2.144 l 0.277,-0.27 v -2.875 l -0.277,-0.269 z m 1.609,0.269 v 1.32 h 0.543 l 0.872,-1.589 h 0.593 l -0.277,0.269 -0.805,1.402 c 0.403,0.118 0.676,0.477 0.676,0.801 0,0.578 -0.566,0.942 -1.16,0.942 h -1.113 l 0.277,-0.27 v -2.875 l -0.277,-0.269 h 0.961 z m 0,2.891 h 0.442 c 0.383,0 0.683,-0.313 0.683,-0.684 0,-0.351 -0.308,-0.629 -0.683,-0.629 H 16.73 Z m 4.614,-2.211 c 0,0.336 -0.168,0.543 -0.336,0.652 l -0.731,0.504 c -0.261,0.18 -0.394,0.41 -0.394,0.586 0,0.359 0.32,0.488 0.515,0.488 0.106,0 0.176,-0.043 0.231,-0.043 l 0.316,-0.324 0.336,0.477 -0.711,0.125 c -0.05,0.011 -0.078,0.019 -0.172,0.019 -0.625,0 -0.91,-0.512 -0.91,-0.84 0,-0.261 0.141,-0.554 0.461,-0.781 l 0.735,-0.504 c 0.203,-0.133 0.257,-0.332 0.257,-0.5 0,-0.289 -0.187,-0.601 -0.597,-0.601 -0.098,0 -0.184,0.015 -0.25,0.046 l -0.34,0.383 -0.309,-0.535 0.688,-0.125 c 0,0 0.113,-0.023 0.211,-0.023 0.429,0 1,0.347 1,0.996 m 1.039,2.465 0.285,-0.27 v -2.875 l -0.285,-0.269 h 0.965 l -0.286,0.269 v 2.875 l 0.286,0.27 z m 3.25,-3.145 v 2.891 h 0.683 l 0.383,-0.364 v 0.618 h -2.523 v -0.618 l 0.386,0.364 h 0.676 v -2.891 l -0.281,-0.269 h 0.965 z m 1.89,2.875 0.907,-1.558 v -1.317 l -0.285,-0.269 h 0.964 l -0.285,0.269 v 1.317 l 0.926,1.55 0.297,0.278 H 29.16 l 0.281,-0.266 -0.753,-1.277 -0.719,1.277 0.277,0.266 h -1.012 z m 5.856,-0.984 c -0.133,0 -0.34,-0.055 -0.547,-0.172 -0.348,-0.195 -0.727,-0.645 -0.727,-1.317 0,-0.339 0.165,-0.71 0.637,-0.71 0.223,0 0.539,0.136 0.75,0.32 0.336,0.289 0.531,0.785 0.531,1.211 0,0.398 -0.222,0.668 -0.644,0.668 m -0.863,-1.375 c 0,0.715 0.379,1.097 0.535,1.16 0.043,0.019 0.113,0.039 0.164,0.039 0.254,0 0.398,-0.184 0.398,-0.555 0.012,-0.625 -0.332,-1.191 -0.543,-1.258 -0.043,-0.015 -0.105,-0.035 -0.156,-0.035 -0.285,0 -0.398,0.289 -0.398,0.649 m 2.269,1.261 -0.137,-0.125 0.016,-0.046 h 0.422 C 35.02,14.5 34.961,14.125 34.863,13.52 34.727,12.617 34.609,12.301 34.516,12.223 34.484,12.195 34.434,12.18 34.387,12.18 c -0.059,0 -0.157,0.043 -0.223,0.074 -0.059,0.027 -0.109,-0.008 -0.141,-0.035 -0.039,-0.043 -0.085,-0.11 -0.085,-0.164 0,-0.094 0.132,-0.145 0.218,-0.145 0.098,0 0.336,0.078 0.555,0.332 0.172,0.203 0.402,0.668 0.601,1.758 0.036,0.199 0.075,0.402 0.161,0.934 l 0.515,0.046 0.114,0.125 h -0.598 c 0.152,0.891 0.277,1.161 0.496,1.161 0.152,0 0.277,-0.059 0.387,-0.161 0.039,-0.035 0.093,-0.035 0.14,0.004 0.043,0.036 0.102,0.114 0.102,0.18 0.008,0.098 -0.129,0.203 -0.301,0.203 -0.293,0 -0.601,-0.164 -0.812,-0.406 -0.2,-0.227 -0.328,-0.59 -0.403,-0.981 z m 5.317,-2.046 0.824,2.472 0.797,-2.472 h 0.179 l 1.039,3.144 0.293,0.27 h -0.863 l 0.281,-0.266 -0.761,-2.363 -0.735,2.363 0.278,0.266 h -1.016 l 0.285,-0.27 0.074,-0.226 -0.687,-2.133 -0.735,2.363 0.282,0.266 h -1.016 l 0.289,-0.27 1.012,-3.144 z m 3.816,0.265 0.262,0.723 h 1.183 l 0.25,-0.723 -0.277,-0.265 h 1.016 l -0.29,0.277 -1.117,3.137 h -0.179 l -1.141,-3.137 -0.289,-0.277 h 0.859 z m 0.863,2.391 0.492,-1.414 H 44.27 Z m 4.016,-1.707 c 0,0.336 -0.168,0.543 -0.336,0.652 l -0.731,0.504 c -0.261,0.18 -0.394,0.41 -0.394,0.586 0,0.359 0.32,0.488 0.516,0.488 0.101,0 0.175,-0.043 0.23,-0.043 l 0.316,-0.324 0.336,0.477 -0.711,0.125 c -0.05,0.011 -0.082,0.019 -0.171,0.019 -0.625,0 -0.911,-0.512 -0.911,-0.84 0,-0.261 0.137,-0.554 0.461,-0.781 l 0.739,-0.504 c 0.199,-0.133 0.254,-0.332 0.254,-0.5 0,-0.289 -0.192,-0.601 -0.598,-0.601 -0.098,0 -0.184,0.015 -0.25,0.046 l -0.34,0.383 -0.309,-0.535 0.688,-0.125 c 0,0 0.113,-0.023 0.211,-0.023 0.43,0 1,0.347 1,0.996 m 1.613,0.762 h 1.508 v -1.442 l -0.285,-0.269 h 0.969 l -0.29,0.269 v 2.875 l 0.29,0.27 h -0.969 l 0.285,-0.27 V 15.027 H 50.41 v 1.176 l 0.285,0.27 h -0.961 l 0.282,-0.27 v -2.875 l -0.282,-0.269 h 0.961 l -0.285,0.269 z m 3.188,1.703 0.285,-0.27 v -2.875 l -0.285,-0.269 h 0.964 l -0.285,0.269 v 2.875 l 0.285,0.27 z m 2.574,-3.121 v 2.558 l 1.887,-2.855 0.16,0.004 v 3.121 l 0.308,0.293 h -0.933 l 0.308,-0.293 v -2.172 l -1.617,2.465 h -0.742 l 0.305,-0.293 v -2.828 l -0.305,-0.293 h 0.937 z m 5.316,1.257 v -1.101 c -0.086,-0.078 -0.258,-0.242 -0.59,-0.242 -0.796,0 -1.199,0.765 -1.199,1.5 0,0.742 0.504,1.5 1.199,1.5 0.184,0 0.317,-0.039 0.438,-0.164 l 0.394,-0.368 v 0.59 c -0.21,0.102 -0.425,0.196 -0.832,0.196 -0.976,0 -1.668,-0.832 -1.668,-1.754 0,-0.903 0.692,-1.754 1.668,-1.754 0.551,0 0.79,0.125 0.985,0.25 v 1.347 l 0.281,0.274 h -0.961 z m 2.657,-1.281 v 2.891 h 0.679 l 0.387,-0.364 v 0.618 h -2.527 v -0.618 l 0.39,0.364 h 0.672 v -2.891 l -0.277,-0.269 h 0.961 z m 1.621,1.438 c 0,-0.868 0.515,-1.782 1.433,-1.782 0.926,0 1.446,0.914 1.446,1.782 0,0.867 -0.52,1.785 -1.446,1.785 -0.918,0 -1.433,-0.918 -1.433,-1.785 m 1.433,-1.524 c -0.715,0 -0.965,0.817 -0.965,1.524 0,0.707 0.25,1.523 0.965,1.523 0.727,0 0.977,-0.816 0.977,-1.523 0,-0.707 -0.25,-1.524 -0.977,-1.524 m 2.774,0.11 v 2.558 l 1.867,-2.851 h 0.18 v 3.121 l 0.312,0.293 h -0.937 l 0.308,-0.293 v -2.172 l -1.613,2.465 h -0.742 l 0.3,-0.293 v -2.828 l -0.3,-0.293 h 0.933 l -0.308,0.293"
         style="fill:#4f5050;fill-opacity:1;fill-rule:nonzero;stroke:none"
         transform="matrix(1.3333333,0,0,-1.3333333,0,82.666667)"
         clip-path="url(#clipPath1)"
         id="path20" />
      <path
         d="M 4.016,3.879 C 3.867,4.629 3.312,5.113 2.609,5.113 1.922,5.113 1.32,4.594 1.207,3.879 Z M 1.148,3.188 c 0.047,-0.981 0.657,-1.614 1.52,-1.614 0.633,0 1.016,0.266 1.477,1.004 L 4.836,2.188 C 4.305,1.254 3.602,0.828 2.625,0.828 c -1.387,0 -2.34,1.035 -2.34,2.531 0,1.465 0.965,2.489 2.324,2.489 1.364,0 2.274,-1 2.274,-2.5 v -0.16 z"
         style="fill:#563f89;fill-opacity:1;fill-rule:nonzero;stroke:none"
         transform="matrix(1.3333333,0,0,-1.3333333,0,82.666667)"
         clip-path="url(#clipPath2)"
         id="path21" />
      <path
         d="M 9.461,7.141 C 9.07,7.762 8.734,7.969 8.137,7.969 7.422,7.969 6.867,7.461 6.867,6.781 6.867,6.449 7.031,6.172 7.352,5.953 7.539,5.84 7.73,5.723 7.953,5.629 L 8.195,5.516 8.438,5.41 8.676,5.309 C 9.91,4.766 10.418,4.156 10.418,3.199 10.418,1.875 9.355,0.828 8,0.828 6.766,0.828 5.914,1.539 5.613,2.809 l 0.828,0.23 C 6.648,2.117 7.18,1.633 7.988,1.633 c 0.887,0 1.567,0.656 1.567,1.508 0,0.472 -0.211,0.832 -0.637,1.097 C 8.723,4.363 8.504,4.477 8.254,4.582 L 8.02,4.699 7.789,4.801 7.559,4.906 C 6.453,5.398 6.004,5.941 6.004,6.805 c 0,1.117 0.934,1.972 2.156,1.972 0.863,0 1.52,-0.406 1.981,-1.199 z"
         style="fill:#563f89;fill-opacity:1;fill-rule:nonzero;stroke:none"
         transform="matrix(1.3333333,0,0,-1.3333333,0,82.666667)"
         clip-path="url(#clipPath3)"
         id="path22" />
      <path
         d="m 15.367,4.316 c -0.531,0.579 -0.922,0.786 -1.512,0.786 -0.953,0 -1.679,-0.762 -1.679,-1.762 0,-0.992 0.726,-1.766 1.648,-1.766 0.633,0 1.024,0.207 1.578,0.832 V 1.32 c -0.59,-0.367 -0.98,-0.492 -1.531,-0.492 -1.43,0 -2.535,1.094 -2.535,2.5 0,1.426 1.105,2.52 2.555,2.52 0.554,0 0.98,-0.125 1.476,-0.45 z"
         style="fill:#563f89;fill-opacity:1;fill-rule:nonzero;stroke:none"
         transform="matrix(1.3333333,0,0,-1.3333333,0,82.666667)"
         clip-path="url(#clipPath4)"
         id="path23" />
      <path
         d="m 17.312,0.965 h -0.816 v 4.781 h 0.816 z m 0.184,6.59 c 0,-0.325 -0.262,-0.586 -0.586,-0.586 -0.324,0 -0.59,0.261 -0.59,0.586 0,0.324 0.266,0.586 0.59,0.586 0.324,0 0.586,-0.262 0.586,-0.586"
         style="fill:#563f89;fill-opacity:1;fill-rule:nonzero;stroke:none"
         transform="matrix(1.3333333,0,0,-1.3333333,0,82.666667)"
         clip-path="url(#clipPath5)"
         id="path24" />
      <path
         d="m 22.078,3.879 c -0.152,0.75 -0.703,1.234 -1.406,1.234 -0.692,0 -1.289,-0.519 -1.406,-1.234 z M 19.207,3.188 c 0.047,-0.981 0.656,-1.614 1.52,-1.614 0.636,0 1.015,0.266 1.476,1.004 l 0.692,-0.39 c -0.532,-0.934 -1.231,-1.36 -2.211,-1.36 -1.383,0 -2.34,1.035 -2.34,2.531 0,1.465 0.968,2.489 2.328,2.489 1.359,0 2.269,-1 2.269,-2.5 v -0.16 z"
         style="fill:#563f89;fill-opacity:1;fill-rule:nonzero;stroke:none"
         transform="matrix(1.3333333,0,0,-1.3333333,0,82.666667)"
         clip-path="url(#clipPath6)"
         id="path25" />
      <path
         d="M 24.805,5.746 V 5.172 c 0.414,0.504 0.785,0.687 1.383,0.687 0.578,0 1.105,-0.25 1.371,-0.656 0.183,-0.297 0.265,-0.656 0.265,-1.277 V 0.965 h -0.816 v 2.824 c 0,0.977 -0.266,1.336 -1.016,1.336 -0.828,0 -1.187,-0.531 -1.187,-1.777 V 0.965 h -0.817 v 4.781 z"
         style="fill:#563f89;fill-opacity:1;fill-rule:nonzero;stroke:none"
         transform="matrix(1.3333333,0,0,-1.3333333,0,82.666667)"
         clip-path="url(#clipPath7)"
         id="path26" />
      <path
         d="m 32.879,4.316 c -0.531,0.579 -0.922,0.786 -1.508,0.786 -0.957,0 -1.683,-0.762 -1.683,-1.762 0,-0.992 0.726,-1.766 1.648,-1.766 0.633,0 1.023,0.207 1.578,0.832 V 1.32 c -0.59,-0.367 -0.98,-0.492 -1.531,-0.492 -1.43,0 -2.535,1.094 -2.535,2.5 0,1.426 1.105,2.52 2.554,2.52 0.555,0 0.981,-0.125 1.477,-0.45 z"
         style="fill:#563f89;fill-opacity:1;fill-rule:nonzero;stroke:none"
         transform="matrix(1.3333333,0,0,-1.3333333,0,82.666667)"
         clip-path="url(#clipPath8)"
         id="path27" />
      <path
         d="m 37.41,3.879 c -0.148,0.75 -0.703,1.234 -1.406,1.234 -0.692,0 -1.289,-0.519 -1.406,-1.234 z M 34.539,3.188 c 0.047,-0.981 0.66,-1.614 1.523,-1.614 0.633,0 1.016,0.266 1.477,1.004 l 0.688,-0.39 c -0.528,-0.934 -1.231,-1.36 -2.211,-1.36 -1.383,0 -2.34,1.035 -2.34,2.531 0,1.465 0.969,2.489 2.328,2.489 1.359,0 2.269,-1 2.269,-2.5 v -0.16 z"
         style="fill:#563f89;fill-opacity:1;fill-rule:nonzero;stroke:none"
         transform="matrix(1.3333333,0,0,-1.3333333,0,82.666667)"
         clip-path="url(#clipPath9)"
         id="path28" />
      <path
         d="m 42.355,8.867 h 0.863 V 1.183 h -0.863 z"
         style="fill:#563f89;fill-opacity:1;fill-rule:nonzero;stroke:none"
         transform="matrix(1.3333333,0,0,-1.3333333,0,82.666667)"
         clip-path="url(#clipPath10)"
         id="path29" />
      <path
         d="M 45.602,5.965 V 5.387 c 0.414,0.508 0.785,0.691 1.386,0.691 0.574,0 1.102,-0.254 1.371,-0.656 0.184,-0.301 0.262,-0.656 0.262,-1.277 V 1.184 h -0.816 v 2.82 c 0,0.98 -0.266,1.336 -1.016,1.336 -0.828,0 -1.187,-0.528 -1.187,-1.774 V 1.184 h -0.817 v 4.781 z"
         style="fill:#563f89;fill-opacity:1;fill-rule:nonzero;stroke:none"
         transform="matrix(1.3333333,0,0,-1.3333333,0,82.666667)"
         clip-path="url(#clipPath11)"
         id="path30" />
      <path
         d="m 51.863,4.844 c -0.175,0.324 -0.383,0.472 -0.656,0.472 -0.324,0 -0.59,-0.226 -0.59,-0.515 0,-0.289 0.149,-0.438 0.774,-0.692 1.152,-0.484 1.441,-0.785 1.441,-1.511 0,-0.875 -0.715,-1.555 -1.625,-1.555 -0.809,0 -1.371,0.402 -1.684,1.223 l 0.727,0.3 c 0.273,-0.589 0.508,-0.773 0.969,-0.773 0.437,0 0.769,0.32 0.769,0.75 0,0.367 -0.172,0.539 -0.769,0.793 -1.11,0.484 -1.383,0.762 -1.383,1.394 0,0.774 0.598,1.336 1.426,1.336 0.554,0 0.992,-0.289 1.281,-0.863 z"
         style="fill:#563f89;fill-opacity:1;fill-rule:nonzero;stroke:none"
         transform="matrix(1.3333333,0,0,-1.3333333,0,82.666667)"
         clip-path="url(#clipPath12)"
         id="path31" />
      <path
         d="m 54.605,1.184 h -0.82 v 4.019 h -0.492 v 0.762 h 0.492 v 1.726 h 0.82 V 5.965 h 0.852 V 5.203 h -0.852 z"
         style="fill:#563f89;fill-opacity:1;fill-rule:nonzero;stroke:none"
         transform="matrix(1.3333333,0,0,-1.3333333,0,82.666667)"
         clip-path="url(#clipPath13)"
         id="path32" />
      <path
         d="m 56.938,1.184 h -0.821 v 4.781 h 0.821 z m 0.179,6.589 c 0,-0.324 -0.262,-0.589 -0.586,-0.589 -0.324,0 -0.586,0.265 -0.586,0.589 0,0.321 0.262,0.586 0.586,0.586 0.324,0 0.586,-0.265 0.586,-0.586"
         style="fill:#563f89;fill-opacity:1;fill-rule:nonzero;stroke:none"
         transform="matrix(1.3333333,0,0,-1.3333333,0,82.666667)"
         clip-path="url(#clipPath14)"
         id="path33" />
      <path
         d="m 59.141,1.184 h -0.817 v 4.019 h -0.496 v 0.762 h 0.496 v 1.726 h 0.817 V 5.965 h 0.851 V 5.203 h -0.851 z"
         style="fill:#563f89;fill-opacity:1;fill-rule:nonzero;stroke:none"
         transform="matrix(1.3333333,0,0,-1.3333333,0,82.666667)"
         clip-path="url(#clipPath15)"
         id="path34" />
      <path
         d="m 61.469,3.176 c 0,-0.969 0.324,-1.383 1.086,-1.383 0.746,0 1.07,0.414 1.07,1.383 v 2.789 h 0.82 V 3.082 C 64.445,2.379 64.328,2 64.004,1.645 63.66,1.25 63.145,1.043 62.555,1.043 61.953,1.043 61.438,1.25 61.09,1.645 60.77,2 60.652,2.379 60.652,3.082 v 2.883 h 0.817 z"
         style="fill:#563f89;fill-opacity:1;fill-rule:nonzero;stroke:none"
         transform="matrix(1.3333333,0,0,-1.3333333,0,82.666667)"
         clip-path="url(#clipPath16)"
         id="path35" />
      <path
         d="m 66.629,1.184 h -0.817 v 4.019 h -0.496 v 0.762 h 0.496 v 1.726 h 0.817 V 5.965 h 0.855 V 5.203 h -0.855 z"
         style="fill:#563f89;fill-opacity:1;fill-rule:nonzero;stroke:none"
         transform="matrix(1.3333333,0,0,-1.3333333,0,82.666667)"
         clip-path="url(#clipPath17)"
         id="path36" />
      <path
         d="m 71.508,4.098 c -0.149,0.746 -0.703,1.23 -1.406,1.23 -0.692,0 -1.29,-0.516 -1.407,-1.23 z M 68.641,3.406 c 0.047,-0.98 0.656,-1.613 1.519,-1.613 0.633,0 1.012,0.266 1.477,1 l 0.687,-0.391 c -0.527,-0.933 -1.23,-1.359 -2.211,-1.359 -1.383,0 -2.336,1.035 -2.336,2.535 0,1.461 0.965,2.488 2.325,2.488 1.359,0 2.269,-1.004 2.269,-2.5 v -0.16 z"
         style="fill:#563f89;fill-opacity:1;fill-rule:nonzero;stroke:none"
         transform="matrix(1.3333333,0,0,-1.3333333,0,82.666667)"
         clip-path="url(#clipPath18)"
         id="path37" />
      <path
         d="m 44.418,41.348 c -0.004,0.011 -0.008,0.019 -0.008,0.031 0,-0.012 0.004,-0.02 0.008,-0.031 m 2.633,2.531 c 1.004,0 1.824,-0.817 1.824,-1.82 0,-1.004 -0.82,-1.821 -1.824,-1.821 -1.004,0 -1.821,0.817 -1.821,1.821 0,1.003 0.817,1.82 1.821,1.82 M 36.613,28.34 c -0.16,-0.485 -0.707,-0.766 -1.199,-0.602 -0.238,0.082 -0.434,0.25 -0.551,0.477 -0.109,0.226 -0.129,0.484 -0.051,0.723 0.129,0.39 0.493,0.652 0.903,0.652 0.101,0 0.199,-0.016 0.297,-0.051 0.496,-0.164 0.765,-0.703 0.601,-1.199 m 12.325,8.441 c 0.011,0.11 0.035,0.219 0.07,0.328 C 48.973,37 48.949,36.891 48.938,36.781 m 0.933,0.039 c 0.133,0.391 0.492,0.653 0.902,0.653 0.102,0 0.204,-0.016 0.297,-0.047 0.5,-0.168 0.77,-0.703 0.606,-1.199 -0.16,-0.489 -0.707,-0.766 -1.199,-0.606 -0.497,0.164 -0.766,0.703 -0.606,1.199 M 40.41,34.57 c 0.246,0.746 0.942,1.246 1.727,1.246 0.195,0 0.386,-0.031 0.574,-0.093 0.953,-0.313 1.473,-1.348 1.156,-2.301 -0.25,-0.746 -0.941,-1.246 -1.726,-1.246 -0.196,0 -0.387,0.027 -0.579,0.09 -0.949,0.316 -1.468,1.351 -1.152,2.304 m 0.031,-6.722 c 0.012,0.004 0.024,0.011 0.036,0.015 -0.012,-0.004 -0.024,-0.011 -0.036,-0.015 m 1.661,-0.77 c 0.953,-0.316 1.472,-1.351 1.156,-2.305 -0.246,-0.746 -0.946,-1.246 -1.731,-1.246 -0.191,0 -0.386,0.032 -0.574,0.09 -0.461,0.156 -0.836,0.481 -1.055,0.914 -0.214,0.434 -0.253,0.926 -0.097,1.391 0.246,0.746 0.941,1.25 1.726,1.25 0.196,0 0.387,-0.035 0.575,-0.094 M 30.32,30.84 c -0.246,-0.746 -0.941,-1.25 -1.726,-1.25 -0.196,0 -0.387,0.031 -0.574,0.094 -0.954,0.316 -1.473,1.347 -1.157,2.3 0.25,0.746 0.942,1.25 1.731,1.25 0.191,0 0.386,-0.031 0.57,-0.093 0.465,-0.153 0.84,-0.477 1.059,-0.911 0.215,-0.433 0.254,-0.929 0.097,-1.39 m -3.367,7.152 c -0.519,0 -0.945,0.426 -0.945,0.949 0,0.524 0.426,0.95 0.945,0.95 0.524,0 0.949,-0.426 0.949,-0.95 0,-0.523 -0.425,-0.949 -0.949,-0.949 m -3.281,6.899 c -0.004,-0.012 -0.008,-0.024 -0.016,-0.032 0.008,0.008 0.012,0.02 0.016,0.032 M 21.223,44.27 c -1.004,0 -1.821,0.816 -1.821,1.824 0,1.004 0.817,1.82 1.821,1.82 1.004,0 1.82,-0.816 1.82,-1.82 0,-1.008 -0.816,-1.824 -1.82,-1.824 m 12.902,-0.321 c 0,0 -0.004,-0.004 -0.004,-0.004 0,0 0.004,0.004 0.004,0.004 m -1.504,1.766 c 0,0.523 0.426,0.945 0.949,0.945 0.524,0 0.95,-0.422 0.95,-0.945 0,-0.524 -0.426,-0.949 -0.95,-0.949 -0.523,0 -0.949,0.425 -0.949,0.949 m 4.41,9.07 c 0,0.524 0.426,0.949 0.949,0.949 0.524,0 0.95,-0.425 0.95,-0.949 0,-0.523 -0.426,-0.949 -0.95,-0.949 -0.523,0 -0.949,0.426 -0.949,0.949 m 3.758,-7.555 c -0.004,0 -0.008,0.004 -0.016,0.008 0.008,-0.004 0.012,-0.008 0.016,-0.008 m -0.641,2.633 c -0.054,1.254 0.918,2.321 2.172,2.375 0.035,0.004 0.071,0.004 0.106,0.004 1.219,0 2.219,-0.957 2.273,-2.176 0.059,-1.25 -0.918,-2.32 -2.172,-2.375 -1.261,-0.062 -2.32,0.918 -2.379,2.172 m 8.543,11.227 c 0.508,0 0.922,-0.399 0.946,-0.906 0.023,-0.524 -0.383,-0.969 -0.903,-0.993 h -0.046 c -0.504,0 -0.922,0.399 -0.946,0.907 -0.023,0.523 0.383,0.968 0.949,0.992 m 0.547,-12.488 c -0.008,0.007 -0.011,0.019 -0.019,0.031 0.008,-0.012 0.011,-0.024 0.019,-0.031 m 2.203,3.429 c 1.004,0 1.825,-0.816 1.825,-1.82 0,-1.004 -0.821,-1.82 -1.825,-1.82 -1.003,0 -1.82,0.816 -1.82,1.82 0,1.004 0.817,1.82 1.82,1.82 M 38.922,40.188 c -0.063,0.16 -0.137,0.316 -0.223,0.46 l 10.742,7.707 c 0.5,-0.539 1.211,-0.875 2,-0.875 1.508,0 2.735,1.223 2.735,2.731 0,1.508 -1.227,2.73 -2.735,2.73 -1.503,0 -2.73,-1.222 -2.73,-2.73 0,-0.473 0.117,-0.914 0.328,-1.305 L 38.305,41.203 c -0.157,0.176 -0.325,0.332 -0.508,0.473 l 3.289,5.398 h -0.004 c 0.41,-0.187 0.859,-0.297 1.34,-0.297 0.051,0 0.098,0 0.144,0.004 1.758,0.078 3.122,1.574 3.043,3.328 -0.047,0.973 -0.515,1.825 -1.23,2.379 0,0 0,0 0.004,0 l 3.609,5.926 c 0.215,-0.086 0.449,-0.133 0.696,-0.133 h 0.085 c 1.024,0.047 1.821,0.918 1.774,1.942 C 50.504,61.219 49.688,62 48.691,62 l -0.086,-0.004 c -1.023,-0.043 -1.82,-0.914 -1.773,-1.941 0.023,-0.5 0.242,-0.95 0.582,-1.27 l -3.613,-5.937 c -0.457,0.214 -0.973,0.328 -1.52,0.3 -1.758,-0.078 -3.121,-1.57 -3.043,-3.328 0.047,-0.984 0.532,-1.843 1.266,-2.398 -0.004,0.004 -0.004,0.004 -0.008,0.004 l -3.281,-5.399 c -0.211,0.102 -0.43,0.18 -0.656,0.239 l 1.539,10.672 c -0.039,-0.004 -0.078,-0.012 -0.118,-0.012 -0.105,0 -0.203,0.012 -0.304,0.031 0.101,-0.016 0.199,-0.031 0.304,-0.031 1.028,0 1.86,0.836 1.86,1.859 0,1.027 -0.832,1.86 -1.86,1.86 -1.027,0 -1.859,-0.833 -1.859,-1.86 0,-0.828 0.547,-1.523 1.297,-1.762 L 35.883,42.359 c -0.047,0 -0.094,0.008 -0.141,0.008 -0.25,0 -0.492,-0.031 -0.726,-0.082 l -0.578,1.793 c 0.585,0.313 0.992,0.926 0.992,1.637 0,1.023 -0.832,1.859 -1.86,1.859 -1.027,0 -1.859,-0.836 -1.859,-1.859 0,-1.027 0.832,-1.86 1.859,-1.86 0.075,0 0.145,0.012 0.215,0.02 l 0.578,-1.801 C 33.73,41.797 33.199,41.328 32.84,40.742 l -9.043,4.446 c 0.101,0.285 0.156,0.585 0.156,0.906 0,1.504 -1.223,2.73 -2.73,2.73 -1.508,0 -2.735,-1.226 -2.735,-2.73 0,-1.508 1.227,-2.735 2.735,-2.735 0.945,0 1.781,0.485 2.269,1.219 v -0.004 l 9.047,-4.445 c -0.098,-0.262 -0.168,-0.543 -0.195,-0.832 l -3.567,0.015 c 0.024,-0.121 0.035,-0.246 0.035,-0.371 0,1.024 -0.832,1.86 -1.859,1.86 -1.023,0 -1.855,-0.836 -1.855,-1.86 0,-1.027 0.832,-1.859 1.855,-1.859 0.922,0 1.68,0.672 1.828,1.547 l 3.563,-0.016 c 0.07,-0.722 0.371,-1.383 0.824,-1.902 l -2.934,-3.125 c 0,0 0,-0.004 0,-0.004 -0.234,0.18 -0.496,0.328 -0.781,0.422 -0.281,0.094 -0.57,0.141 -0.859,0.141 -1.18,0 -2.223,-0.754 -2.594,-1.872 -0.23,-0.695 -0.176,-1.433 0.152,-2.085 0.325,-0.653 0.887,-1.137 1.582,-1.368 0.278,-0.093 0.567,-0.14 0.86,-0.14 1.179,0 2.218,0.754 2.594,1.875 0.226,0.691 0.175,1.429 -0.153,2.086 -0.144,0.285 -0.34,0.535 -0.566,0.75 0.093,-0.086 0.179,-0.176 0.261,-0.278 l 2.938,3.129 c 0.488,-0.375 1.078,-0.625 1.727,-0.687 v -5.082 c -0.665,-0.118 -1.227,-0.59 -1.446,-1.25 -0.156,-0.469 -0.121,-0.973 0.102,-1.418 0.222,-0.442 0.605,-0.774 1.078,-0.93 0.187,-0.063 0.387,-0.094 0.586,-0.094 0.801,0 1.512,0.508 1.765,1.274 0.321,0.972 -0.21,2.027 -1.179,2.351 -0.074,0.024 -0.149,0.039 -0.223,0.055 l -0.004,5.094 c 0.235,0.019 0.457,0.066 0.676,0.133 l 3.402,-7.989 c -0.558,-0.328 -1.004,-0.844 -1.214,-1.492 -0.235,-0.691 -0.18,-1.434 0.148,-2.086 0.328,-0.652 0.891,-1.137 1.582,-1.367 0.277,-0.094 0.57,-0.141 0.859,-0.141 1.18,0 2.223,0.754 2.594,1.875 0.473,1.43 -0.305,2.981 -1.734,3.453 -0.278,0.094 -0.571,0.137 -0.86,0.137 -0.257,0 -0.507,-0.039 -0.75,-0.109 l -3.398,7.984 c 0.301,0.164 0.578,0.379 0.816,0.625 l 1.575,-1.23 c 0,0 0,0 0.003,0.004 -0.089,-0.161 -0.168,-0.321 -0.226,-0.497 -0.477,-1.429 0.301,-2.98 1.73,-3.453 0.282,-0.093 0.571,-0.14 0.864,-0.14 1.175,0 2.218,0.754 2.589,1.875 0.473,1.429 -0.304,2.976 -1.734,3.453 -0.277,0.09 -0.566,0.137 -0.859,0.137 -0.762,0 -1.461,-0.317 -1.965,-0.84 0.004,0.004 0.004,0.008 0.008,0.008 l -1.563,1.218 c 0.188,0.289 0.328,0.61 0.418,0.949 l 9.887,-1.593 v 0.004 c 0.023,-0.762 0.508,-1.461 1.269,-1.715 0.188,-0.063 0.387,-0.094 0.582,-0.094 0.805,0 1.512,0.512 1.766,1.274 0.32,0.972 -0.207,2.027 -1.18,2.351 -0.187,0.063 -0.386,0.094 -0.586,0.094 -0.789,0 -1.484,-0.496 -1.75,-1.238 l -9.878,1.589 c 0.003,0.075 0.011,0.145 0.011,0.215 0,0.199 -0.019,0.395 -0.051,0.582 l 5.415,1.508 v 0.004 c 0.402,-1.004 1.386,-1.715 2.531,-1.715 1.508,0 2.734,1.227 2.734,2.731 0,1.507 -1.226,2.73 -2.734,2.73 -1.504,0 -2.731,-1.223 -2.731,-2.73 0,-0.121 0.012,-0.243 0.028,-0.36 z"
         style="fill:#563f89;fill-opacity:1;fill-rule:nonzero;stroke:none"
         transform="matrix(1.3333333,0,0,-1.3333333,0,82.666667)"
         clip-path="url(#clipPath19)"
         id="path38" />
    </g>
  </g>
</svg>
