<?xml version="1.0" encoding="UTF-8" standalone="no"?>
<!-- Created with Inkscape (http://www.inkscape.org/) -->

<svg
   version="1.1"
   id="svg1"
   width="478.89731"
   height="115.328"
   viewBox="0 0 478.89731 115.328"
   sodipodi:docname="eScience-logo-dark.svg"
   inkscape:version="1.4 (e7c3feb100, 2024-10-09)"
   xmlns:inkscape="http://www.inkscape.org/namespaces/inkscape"
   xmlns:sodipodi="http://sodipodi.sourceforge.net/DTD/sodipodi-0.dtd"
   xmlns="http://www.w3.org/2000/svg"
   xmlns:svg="http://www.w3.org/2000/svg">
  <defs
     id="defs1">
    <clipPath
       clipPathUnits="userSpaceOnUse"
       id="clipPath1">
      <path
         d="M 0,0 H 469 V 246 H 0 Z"
         id="path1" />
    </clipPath>
    <clipPath
       clipPathUnits="userSpaceOnUse"
       id="clipPath4">
      <path
         d="M 0,0 H 469 V 246 H 0 Z"
         id="path4" />
    </clipPath>
    <clipPath
       clipPathUnits="userSpaceOnUse"
       id="clipPath6">
      <path
         d="M 0,0 H 469 V 246 H 0 Z"
         id="path6" />
    </clipPath>
    <clipPath
       clipPathUnits="userSpaceOnUse"
       id="clipPath8">
      <path
         d="M 0,0 H 469 V 246 H 0 Z"
         id="path8" />
    </clipPath>
    <clipPath
       clipPathUnits="userSpaceOnUse"
       id="clipPath10">
      <path
         d="M 0,0 H 469 V 246 H 0 Z"
         id="path10" />
    </clipPath>
    <clipPath
       clipPathUnits="userSpaceOnUse"
       id="clipPath12">
      <path
         d="M 0,0 H 469 V 246 H 0 Z"
         id="path12" />
    </clipPath>
    <clipPath
       clipPathUnits="userSpaceOnUse"
       id="clipPath14">
      <path
         d="M 0,0 H 469 V 246 H 0 Z"
         id="path14" />
    </clipPath>
    <clipPath
       clipPathUnits="userSpaceOnUse"
       id="clipPath16">
      <path
         d="M 0,0 H 469 V 246 H 0 Z"
         id="path16" />
    </clipPath>
    <clipPath
       clipPathUnits="userSpaceOnUse"
       id="clipPath18">
      <path
         d="M 0,0 H 469 V 246 H 0 Z"
         id="path18" />
    </clipPath>
    <clipPath
       clipPathUnits="userSpaceOnUse"
       id="clipPath20">
      <path
         d="M 0,0 H 469 V 246 H 0 Z"
         id="path20" />
    </clipPath>
    <clipPath
       clipPathUnits="userSpaceOnUse"
       id="clipPath22">
      <path
         d="M 0,0 H 469 V 246 H 0 Z"
         id="path22" />
    </clipPath>
    <clipPath
       clipPathUnits="userSpaceOnUse"
       id="clipPath24">
      <path
         d="M 0,0 H 469 V 246 H 0 Z"
         id="path24" />
    </clipPath>
    <clipPath
       clipPathUnits="userSpaceOnUse"
       id="clipPath26">
      <path
         d="M 0,0 H 469 V 246 H 0 Z"
         id="path26" />
    </clipPath>
    <clipPath
       clipPathUnits="userSpaceOnUse"
       id="clipPath28">
      <path
         d="M 0,0 H 469 V 246 H 0 Z"
         id="path28" />
    </clipPath>
    <clipPath
       clipPathUnits="userSpaceOnUse"
       id="clipPath30">
      <path
         d="M 0,0 H 469 V 246 H 0 Z"
         id="path30" />
    </clipPath>
    <clipPath
       clipPathUnits="userSpaceOnUse"
       id="clipPath32">
      <path
         d="M 0,0 H 469 V 246 H 0 Z"
         id="path32" />
    </clipPath>
    <clipPath
       clipPathUnits="userSpaceOnUse"
       id="clipPath34">
      <path
         d="M 0,0 H 469 V 246 H 0 Z"
         id="path34" />
    </clipPath>
    <clipPath
       clipPathUnits="userSpaceOnUse"
       id="clipPath36">
      <path
         d="M 0,0 H 469 V 246 H 0 Z"
         id="path36" />
    </clipPath>
    <clipPath
       clipPathUnits="userSpaceOnUse"
       id="clipPath38">
      <path
         d="M 0,0 H 469 V 246 H 0 Z"
         id="path38" />
    </clipPath>
    <clipPath
       clipPathUnits="userSpaceOnUse"
       id="clipPath40">
      <path
         d="M 0,0 H 469 V 246 H 0 Z"
         id="path40" />
    </clipPath>
    <clipPath
       clipPathUnits="userSpaceOnUse"
       id="clipPath42">
      <path
         d="M 0,0 H 469 V 246 H 0 Z"
         id="path42" />
    </clipPath>
    <clipPath
       clipPathUnits="userSpaceOnUse"
       id="clipPath44">
      <path
         d="M 0,0 H 469 V 246 H 0 Z"
         id="path44" />
    </clipPath>
    <clipPath
       clipPathUnits="userSpaceOnUse"
       id="clipPath46">
      <path
         d="M 0,0 H 469 V 246 H 0 Z"
         id="path46" />
    </clipPath>
    <clipPath
       clipPathUnits="userSpaceOnUse"
       id="clipPath48">
      <path
         d="M 0,0 H 469 V 246 H 0 Z"
         id="path48" />
    </clipPath>
    <clipPath
       clipPathUnits="userSpaceOnUse"
       id="clipPath50">
      <path
         d="M 0,0 H 469 V 246 H 0 Z"
         id="path50" />
    </clipPath>
    <clipPath
       clipPathUnits="userSpaceOnUse"
       id="clipPath52">
      <path
         d="M 0,0 H 469 V 246 H 0 Z"
         id="path52" />
    </clipPath>
    <clipPath
       clipPathUnits="userSpaceOnUse"
       id="clipPath54">
      <path
         d="M 0,0 H 469 V 246 H 0 Z"
         id="path54" />
    </clipPath>
    <clipPath
       clipPathUnits="userSpaceOnUse"
       id="clipPath56">
      <path
         d="M 0,0 H 469 V 246 H 0 Z"
         id="path56" />
    </clipPath>
    <clipPath
       clipPathUnits="userSpaceOnUse"
       id="clipPath58">
      <path
         d="M 0,0 H 469 V 246 H 0 Z"
         id="path58" />
    </clipPath>
    <clipPath
       clipPathUnits="userSpaceOnUse"
       id="clipPath60">
      <path
         d="M 0,0 H 469 V 246 H 0 Z"
         id="path60" />
    </clipPath>
    <clipPath
       clipPathUnits="userSpaceOnUse"
       id="clipPath62">
      <path
         d="M 0,0 H 469 V 246 H 0 Z"
         id="path62" />
    </clipPath>
    <clipPath
       clipPathUnits="userSpaceOnUse"
       id="clipPath64">
      <path
         d="M 0,0 H 469 V 246 H 0 Z"
         id="path64" />
    </clipPath>
    <clipPath
       clipPathUnits="userSpaceOnUse"
       id="clipPath66">
      <path
         d="M 0,0 H 469 V 246 H 0 Z"
         id="path66" />
    </clipPath>
    <clipPath
       clipPathUnits="userSpaceOnUse"
       id="clipPath68">
      <path
         d="M 0,0 H 469 V 246 H 0 Z"
         id="path68" />
    </clipPath>
    <clipPath
       clipPathUnits="userSpaceOnUse"
       id="clipPath70">
      <path
         d="M 0,0 H 469 V 246 H 0 Z"
         id="path70" />
    </clipPath>
    <clipPath
       clipPathUnits="userSpaceOnUse"
       id="clipPath72">
      <path
         d="M 0,0 H 469 V 246 H 0 Z"
         id="path72" />
    </clipPath>
    <clipPath
       clipPathUnits="userSpaceOnUse"
       id="clipPath74">
      <path
         d="M 0,0 H 469 V 246 H 0 Z"
         id="path74" />
    </clipPath>
    <clipPath
       clipPathUnits="userSpaceOnUse"
       id="clipPath76">
      <path
         d="M 0,0 H 469 V 246 H 0 Z"
         id="path76" />
    </clipPath>
    <clipPath
       clipPathUnits="userSpaceOnUse"
       id="clipPath78">
      <path
         d="M 0,0 H 469 V 246 H 0 Z"
         id="path78" />
    </clipPath>
    <clipPath
       clipPathUnits="userSpaceOnUse"
       id="clipPath80">
      <path
         d="M 0,0 H 469 V 246 H 0 Z"
         id="path80" />
    </clipPath>
    <clipPath
       clipPathUnits="userSpaceOnUse"
       id="clipPath82">
      <path
         d="M 0,0 H 469 V 246 H 0 Z"
         id="path82" />
    </clipPath>
    <clipPath
       clipPathUnits="userSpaceOnUse"
       id="clipPath84">
      <path
         d="M 0,0 H 469 V 246 H 0 Z"
         id="path84" />
    </clipPath>
    <clipPath
       clipPathUnits="userSpaceOnUse"
       id="clipPath86">
      <path
         d="M 0,0 H 469 V 246 H 0 Z"
         id="path86" />
    </clipPath>
    <clipPath
       clipPathUnits="userSpaceOnUse"
       id="clipPath88">
      <path
         d="M 0,0 H 469 V 246 H 0 Z"
         id="path88" />
    </clipPath>
    <clipPath
       clipPathUnits="userSpaceOnUse"
       id="clipPath90">
      <path
         d="M 0,0 H 469 V 246 H 0 Z"
         id="path90" />
    </clipPath>
    <clipPath
       clipPathUnits="userSpaceOnUse"
       id="clipPath92">
      <path
         d="M 0,0 H 469 V 246 H 0 Z"
         id="path92" />
    </clipPath>
    <clipPath
       clipPathUnits="userSpaceOnUse"
       id="clipPath94">
      <path
         d="M 0,0 H 469 V 246 H 0 Z"
         id="path94" />
    </clipPath>
    <clipPath
       clipPathUnits="userSpaceOnUse"
       id="clipPath96">
      <path
         d="M 0,0 H 469 V 246 H 0 Z"
         id="path96" />
    </clipPath>
    <clipPath
       clipPathUnits="userSpaceOnUse"
       id="clipPath98">
      <path
         d="M 0,0 H 469 V 246 H 0 Z"
         id="path98" />
    </clipPath>
    <clipPath
       clipPathUnits="userSpaceOnUse"
       id="clipPath100">
      <path
         d="M 0,0 H 469 V 246 H 0 Z"
         id="path100" />
    </clipPath>
    <clipPath
       clipPathUnits="userSpaceOnUse"
       id="clipPath102">
      <path
         d="M 0,0 H 469 V 246 H 0 Z"
         id="path102" />
    </clipPath>
    <clipPath
       clipPathUnits="userSpaceOnUse"
       id="clipPath104">
      <path
         d="M 0,0 H 469 V 246 H 0 Z"
         id="path104" />
    </clipPath>
    <clipPath
       clipPathUnits="userSpaceOnUse"
       id="clipPath106">
      <path
         d="M 0,0 H 469 V 246 H 0 Z"
         id="path106" />
    </clipPath>
    <clipPath
       clipPathUnits="userSpaceOnUse"
       id="clipPath108">
      <path
         d="M 0,0 H 469 V 246 H 0 Z"
         id="path108" />
    </clipPath>
    <clipPath
       clipPathUnits="userSpaceOnUse"
       id="clipPath110">
      <path
         d="M 0,0 H 469 V 246 H 0 Z"
         id="path110" />
    </clipPath>
    <clipPath
       clipPathUnits="userSpaceOnUse"
       id="clipPath112">
      <path
         d="M 0,0 H 469 V 246 H 0 Z"
         id="path112" />
    </clipPath>
    <clipPath
       clipPathUnits="userSpaceOnUse"
       id="clipPath114">
      <path
         d="M 0,0 H 469 V 246 H 0 Z"
         id="path114" />
    </clipPath>
    <clipPath
       clipPathUnits="userSpaceOnUse"
       id="clipPath116">
      <path
         d="M 0,0 H 469 V 246 H 0 Z"
         id="path116" />
    </clipPath>
    <clipPath
       clipPathUnits="userSpaceOnUse"
       id="clipPath118">
      <path
         d="M 0,0 H 469 V 246 H 0 Z"
         id="path118" />
    </clipPath>
    <clipPath
       clipPathUnits="userSpaceOnUse"
       id="clipPath120">
      <path
         d="M 0,0 H 469 V 246 H 0 Z"
         id="path120" />
    </clipPath>
    <clipPath
       clipPathUnits="userSpaceOnUse"
       id="clipPath122">
      <path
         d="M 0,0 H 469 V 246 H 0 Z"
         id="path122" />
    </clipPath>
    <clipPath
       clipPathUnits="userSpaceOnUse"
       id="clipPath124">
      <path
         d="M 0,0 H 469 V 246 H 0 Z"
         id="path124" />
    </clipPath>
    <clipPath
       clipPathUnits="userSpaceOnUse"
       id="clipPath126">
      <path
         d="M 0,0 H 469 V 246 H 0 Z"
         id="path126" />
    </clipPath>
  </defs>
  <sodipodi:namedview
     id="namedview1"
     pagecolor="#ffffff"
     bordercolor="#000000"
     borderopacity="0.25"
     inkscape:showpageshadow="2"
     inkscape:pageopacity="0.0"
     inkscape:pagecheckerboard="0"
     inkscape:deskcolor="#d1d1d1"
     inkscape:zoom="1.1707317"
     inkscape:cx="-33.3125"
     inkscape:cy="242.58333"
     inkscape:window-width="3436"
     inkscape:window-height="1386"
     inkscape:window-x="0"
     inkscape:window-y="0"
     inkscape:window-maximized="0"
     inkscape:current-layer="g1">
    <inkscape:page
       x="0"
       y="0"
       inkscape:label="1"
       id="page1"
       width="478.89731"
       height="115.328"
       margin="0"
       bleed="0" />
  </sodipodi:namedview>
  <g
     id="g1"
     inkscape:groupmode="layer"
     inkscape:label="1"
     transform="translate(-78.363998,-115.31734)">
    <path
       id="path3"
       d="m 211.945,145.489 c 0,-1.607 1.426,-2.832 3.182,-2.832 1.67,0 3.322,1.174 3.322,2.832 v 6.31 l 0.871,0.845 h -2.679 l 0.884,-0.845 v -6.31 c 0,-1.127 -0.937,-2.022 -2.12,-2.022 -1.199,0 -2.26,0.879 -2.26,2.022 v 6.31 l 0.886,0.845 h -2.974 l 0.888,-0.845 z m 11.547,-1.772 v 7.32 l 5.504,-8.166 h 0.356 v 8.928 l 0.888,0.845 h -2.679 l 0.888,-0.845 v -6.212 l -4.625,7.057 h -2.125 l 0.871,-0.845 v -8.082 l -0.871,-0.846 h 2.68 z m 9.546,8.927 0.819,-0.778 v -8.217 l -0.819,-0.778 h 2.767 l -0.817,0.778 v 8.217 l 0.817,0.778 z m 7.966,0 H 238.1 l 0.836,-0.778 2.886,-8.995 h 0.52 l 2.974,8.995 0.836,0.778 h -2.469 l 0.797,-0.762 -2.173,-6.758 -2.104,6.758 z m 13.305,-9.773 v 1.789 l -1.096,-1.059 H 250.1 v 4.106 h 2.313 l 0.817,-0.777 v 2.285 l -0.817,-0.779 H 250.1 v 3.479 h 3.113 l 1.096,-1.043 v 1.772 h -6.141 l 0.801,-0.778 v -8.217 l -0.801,-0.778 z m 4.606,0.778 v 3.778 h 1.548 l 2.488,-4.556 h 1.704 l -0.8,0.778 -2.293,4.01 c 1.147,0.33 1.927,1.358 1.927,2.286 0,1.656 -1.616,2.699 -3.321,2.699 h -3.182 l 0.799,-0.778 v -8.217 l -0.799,-0.778 h 2.748 z m 0,8.266 h 1.253 c 1.096,0 1.967,-0.894 1.967,-1.953 0,-1.011 -0.888,-1.806 -1.967,-1.806 h -1.253 z m 13.184,-6.328 c 0,0.962 -0.469,1.557 -0.956,1.873 l -2.086,1.441 c -0.748,0.512 -1.131,1.175 -1.131,1.674 0,1.026 0.921,1.39 1.477,1.39 0.295,0 0.503,-0.117 0.66,-0.117 l 0.906,-0.926 0.956,1.358 -2.035,0.364 c -0.139,0.034 -0.224,0.05 -0.487,0.05 -1.792,0 -2.608,-1.457 -2.608,-2.403 0,-0.745 0.399,-1.589 1.321,-2.234 l 2.105,-1.441 c 0.573,-0.382 0.729,-0.945 0.729,-1.427 0,-0.827 -0.538,-1.722 -1.703,-1.722 -0.277,0 -0.521,0.05 -0.713,0.134 l -0.973,1.092 -0.889,-1.524 1.967,-0.364 c 0,0 0.331,-0.066 0.608,-0.066 1.234,0 2.852,0.993 2.852,2.848 m 2.972,7.057 0.82,-0.778 v -8.217 l -0.82,-0.778 h 2.765 l -0.815,0.778 v 8.217 l 0.815,0.778 z m 9.304,-8.995 v 8.266 h 1.951 l 1.093,-1.043 v 1.772 h -7.218 v -1.772 l 1.114,1.043 h 1.93 v -8.266 l -0.8,-0.778 h 2.749 z m 5.409,8.217 2.592,-4.456 v -3.761 l -0.817,-0.778 h 2.762 l -0.814,0.778 v 3.761 l 2.643,4.438 0.851,0.796 h -2.538 l 0.801,-0.762 -2.158,-3.661 -2.051,3.661 0.799,0.762 h -2.904 z m 16.741,-2.807 c -0.377,0 -0.966,-0.164 -1.559,-0.495 -0.998,-0.565 -2.08,-1.845 -2.08,-3.77 0,-0.964 0.476,-2.036 1.82,-2.036 0.634,0 1.546,0.398 2.151,0.922 0.956,0.824 1.518,2.242 1.518,3.467 0,1.143 -0.637,1.912 -1.85,1.912 m -2.469,-3.935 c 0,2.037 1.083,3.138 1.531,3.316 0.13,0.056 0.333,0.111 0.476,0.111 0.721,0 1.142,-0.524 1.142,-1.583 0.028,-1.789 -0.953,-3.413 -1.559,-3.605 -0.119,-0.041 -0.306,-0.096 -0.449,-0.096 -0.809,0 -1.141,0.825 -1.141,1.857 m 6.502,3.605 -0.391,-0.357 0.043,-0.138 h 1.199 c -0.186,-1.239 -0.361,-2.312 -0.636,-4.046 -0.388,-2.572 -0.721,-3.482 -0.995,-3.702 -0.089,-0.082 -0.233,-0.123 -0.364,-0.123 -0.172,0 -0.447,0.123 -0.634,0.207 -0.175,0.081 -0.317,-0.014 -0.405,-0.098 -0.116,-0.123 -0.245,-0.315 -0.245,-0.467 0,-0.276 0.376,-0.413 0.621,-0.413 0.277,0 0.967,0.219 1.588,0.949 0.493,0.579 1.156,1.912 1.72,5.022 0.101,0.58 0.215,1.156 0.462,2.671 l 1.475,0.138 0.317,0.357 h -1.704 c 0.433,2.546 0.793,3.316 1.415,3.316 0.435,0 0.795,-0.164 1.113,-0.453 0.101,-0.097 0.259,-0.097 0.405,0.013 0.114,0.097 0.289,0.317 0.289,0.509 0.015,0.276 -0.376,0.578 -0.869,0.578 -0.837,0 -1.719,-0.467 -2.325,-1.156 -0.563,-0.646 -0.939,-1.691 -1.142,-2.807 z m 15.204,-5.858 2.349,7.074 2.279,-7.074 h 0.521 l 2.975,8.995 0.833,0.778 h -2.469 l 0.801,-0.762 -2.175,-6.758 -2.104,6.758 0.798,0.762 h -2.904 l 0.819,-0.778 0.206,-0.646 -1.963,-6.096 -2.104,6.758 0.8,0.762 h -2.903 l 0.834,-0.778 2.886,-8.995 z m 10.911,0.763 0.748,2.069 h 3.391 l 0.713,-2.069 -0.799,-0.763 h 2.905 l -0.818,0.795 -3.201,8.978 h -0.521 l -3.253,-8.978 -0.834,-0.795 h 2.47 z m 2.47,6.841 1.409,-4.043 h -2.87 z m 11.48,-4.888 c 0,0.962 -0.471,1.557 -0.956,1.873 l -2.088,1.441 c -0.748,0.512 -1.13,1.175 -1.13,1.674 0,1.026 0.92,1.39 1.477,1.39 0.297,0 0.506,-0.117 0.659,-0.117 l 0.906,-0.926 0.959,1.358 -2.037,0.364 c -0.14,0.034 -0.225,0.05 -0.487,0.05 -1.791,0 -2.609,-1.457 -2.609,-2.403 0,-0.745 0.4,-1.589 1.323,-2.234 l 2.105,-1.441 c 0.574,-0.382 0.729,-0.945 0.729,-1.427 0,-0.827 -0.537,-1.722 -1.703,-1.722 -0.279,0 -0.522,0.05 -0.715,0.134 l -0.973,1.092 -0.888,-1.524 1.967,-0.364 c 0,0 0.33,-0.066 0.609,-0.066 1.235,0 2.852,0.993 2.852,2.848 m 4.627,2.187 h 4.311 v -4.125 l -0.82,-0.778 h 2.767 l -0.817,0.778 v 8.217 l 0.817,0.778 h -2.767 l 0.82,-0.778 v -3.363 h -4.311 v 3.363 l 0.814,0.778 h -2.746 l 0.8,-0.778 v -8.217 l -0.8,-0.778 h 2.746 l -0.814,0.778 z m 9.11,4.87 0.818,-0.778 v -8.217 l -0.818,-0.778 h 2.765 l -0.817,0.778 v 8.217 l 0.817,0.778 z m 7.357,-8.927 v 7.32 l 5.399,-8.17 0.462,0.004 v 8.928 l 0.885,0.845 h -2.677 l 0.888,-0.845 v -6.212 l -4.627,7.057 h -2.123 l 0.87,-0.845 v -8.082 l -0.87,-0.846 h 2.68 z m 15.215,3.593 v -3.147 c -0.245,-0.233 -0.733,-0.696 -1.691,-0.696 -2.275,0 -3.423,2.187 -3.423,4.29 0,2.12 1.443,4.291 3.423,4.291 0.525,0 0.907,-0.116 1.254,-0.465 l 1.131,-1.059 v 1.69 c -0.609,0.298 -1.217,0.563 -2.385,0.563 -2.798,0 -4.763,-2.385 -4.763,-5.02 0,-2.584 1.965,-5.018 4.763,-5.018 1.584,0 2.263,0.364 2.822,0.712 v 3.859 l 0.798,0.777 h -2.747 z m 7.595,-3.661 v 8.266 h 1.948 l 1.094,-1.043 v 1.772 h -7.215 v -1.772 l 1.114,1.043 h 1.928 v -8.266 l -0.8,-0.778 h 2.748 z m 4.641,4.108 c 0,-2.484 1.477,-5.1 4.102,-5.1 2.645,0 4.122,2.616 4.122,5.1 0,2.486 -1.477,5.102 -4.122,5.102 -2.625,0 -4.102,-2.616 -4.102,-5.102 m 4.102,-4.356 c -2.05,0 -2.763,2.336 -2.763,4.356 0,2.022 0.713,4.357 2.763,4.357 2.07,0 2.785,-2.335 2.785,-4.357 0,-2.02 -0.715,-4.356 -2.785,-4.356 m 7.929,0.316 v 7.32 l 5.336,-8.166 h 0.525 v 8.928 l 0.886,0.845 h -2.681 l 0.89,-0.845 v -6.212 l -4.625,7.057 h -2.125 l 0.87,-0.845 v -8.082 l -0.87,-0.846 h 2.679 l -0.885,0.846"
       style="fill:#dadada;fill-opacity:1;fill-rule:nonzero;stroke:none"
       transform="matrix(1.3333333,0,0,-1.3333333,0,328)"
       clip-path="url(#clipPath4)" />
    <path
       id="path5"
       d="m 155.531,115.171 c -0.574,2.867 -2.691,4.72 -5.383,4.72 -2.646,0 -4.939,-1.985 -5.38,-4.72 z m -10.984,-2.647 c 0.176,-3.749 2.514,-6.176 5.822,-6.176 2.426,0 3.883,1.015 5.647,3.838 l 2.646,-1.5 c -2.029,-3.573 -4.719,-5.205 -8.469,-5.205 -5.295,0 -8.955,3.97 -8.955,9.705 0,5.602 3.705,9.528 8.91,9.528 5.206,0 8.692,-3.838 8.692,-9.572 v -0.618 h -14.293"
       style="fill:#ffffff;fill-opacity:1;fill-rule:nonzero;stroke:none"
       transform="matrix(1.3333333,0,0,-1.3333333,0,328)"
       clip-path="url(#clipPath6)" />
    <path
       id="path7"
       d="m 176.377,127.655 c -1.5,2.382 -2.779,3.176 -5.072,3.176 -2.735,0 -4.854,-1.941 -4.854,-4.544 0,-1.279 0.619,-2.338 1.854,-3.176 0.705,-0.442 1.455,-0.882 2.293,-1.235 l 0.927,-0.441 1.852,-0.794 c 4.721,-2.073 6.662,-4.411 6.662,-8.073 0,-5.072 -4.059,-9.087 -9.264,-9.087 -4.72,0 -7.984,2.735 -9.13,7.587 l 3.175,0.883 c 0.793,-3.53 2.823,-5.382 5.91,-5.382 3.397,0 6,2.514 6,5.778 0,1.809 -0.794,3.177 -2.425,4.191 -0.75,0.485 -1.588,0.926 -2.559,1.324 l -0.883,0.44 -0.883,0.398 -0.88,0.397 c -4.237,1.897 -5.957,3.97 -5.957,7.278 0,4.28 3.574,7.544 8.25,7.544 3.308,0 5.822,-1.544 7.587,-4.588 l -2.603,-1.676"
       style="fill:#ffffff;fill-opacity:1;fill-rule:nonzero;stroke:none"
       transform="matrix(1.3333333,0,0,-1.3333333,0,328)"
       clip-path="url(#clipPath8)" />
    <path
       id="path9"
       d="m 198.99,116.847 c -2.029,2.205 -3.529,3 -5.779,3 -3.662,0 -6.44,-2.912 -6.44,-6.75 0,-3.793 2.778,-6.749 6.307,-6.749 2.428,0 3.926,0.794 6.045,3.177 v -4.147 c -2.25,-1.412 -3.75,-1.897 -5.867,-1.897 -5.471,0 -9.705,4.19 -9.705,9.572 0,5.47 4.234,9.661 9.793,9.661 2.117,0 3.75,-0.485 5.646,-1.72 v -4.147"
       style="fill:#ffffff;fill-opacity:1;fill-rule:nonzero;stroke:none"
       transform="matrix(1.3333333,0,0,-1.3333333,0,328)"
       clip-path="url(#clipPath10)" />
    <path
       id="path11"
       d="m 203.309,122.318 h 3.132 V 104.01 h -3.132 z m 3.837,6.925 c 0,-1.236 -1.013,-2.249 -2.25,-2.249 -1.234,0 -2.25,1.013 -2.25,2.249 0,1.235 1.016,2.25 2.25,2.25 1.237,0 2.25,-1.015 2.25,-2.25"
       style="fill:#ffffff;fill-opacity:1;fill-rule:nonzero;stroke:none"
       transform="matrix(1.3333333,0,0,-1.3333333,0,328)"
       clip-path="url(#clipPath12)" />
    <path
       id="path13"
       d="m 224.682,115.171 c -0.575,2.867 -2.692,4.72 -5.383,4.72 -2.647,0 -4.94,-1.985 -5.381,-4.72 z m -10.985,-2.647 c 0.176,-3.749 2.514,-6.176 5.823,-6.176 2.425,0 3.882,1.015 5.646,3.838 l 2.647,-1.5 c -2.03,-3.573 -4.719,-5.205 -8.469,-5.205 -5.295,0 -8.955,3.97 -8.955,9.705 0,5.602 3.705,9.528 8.91,9.528 5.205,0 8.691,-3.838 8.691,-9.572 v -0.618 h -14.293"
       style="fill:#ffffff;fill-opacity:1;fill-rule:nonzero;stroke:none"
       transform="matrix(1.3333333,0,0,-1.3333333,0,328)"
       clip-path="url(#clipPath14)" />
    <path
       id="path15"
       d="m 235.131,122.318 v -2.207 c 1.588,1.941 3,2.647 5.295,2.647 2.205,0 4.234,-0.97 5.248,-2.514 0.707,-1.147 1.015,-2.514 1.015,-4.897 V 104.01 h -3.132 v 10.808 c 0,3.75 -1.014,5.117 -3.881,5.117 -3.178,0 -4.545,-2.029 -4.545,-6.793 V 104.01 H 232 v 18.308 h 3.131"
       style="fill:#ffffff;fill-opacity:1;fill-rule:nonzero;stroke:none"
       transform="matrix(1.3333333,0,0,-1.3333333,0,328)"
       clip-path="url(#clipPath16)" />
    <path
       id="path17"
       d="m 266.041,116.847 c -2.029,2.205 -3.529,3 -5.779,3 -3.662,0 -6.44,-2.912 -6.44,-6.75 0,-3.793 2.778,-6.749 6.307,-6.749 2.428,0 3.926,0.794 6.045,3.177 v -4.147 c -2.25,-1.412 -3.75,-1.897 -5.867,-1.897 -5.471,0 -9.705,4.19 -9.705,9.572 0,5.47 4.234,9.661 9.793,9.661 2.117,0 3.75,-0.485 5.646,-1.72 v -4.147"
       style="fill:#ffffff;fill-opacity:1;fill-rule:nonzero;stroke:none"
       transform="matrix(1.3333333,0,0,-1.3333333,0,328)"
       clip-path="url(#clipPath18)" />
    <path
       id="path19"
       d="m 283.391,115.171 c -0.573,2.867 -2.692,4.72 -5.381,4.72 -2.649,0 -4.942,-1.985 -5.383,-4.72 z m -10.985,-2.647 c 0.178,-3.749 2.516,-6.176 5.824,-6.176 2.426,0 3.881,1.015 5.647,3.838 l 2.646,-1.5 c -2.029,-3.573 -4.72,-5.205 -8.47,-5.205 -5.293,0 -8.955,3.97 -8.955,9.705 0,5.602 3.705,9.528 8.912,9.528 5.205,0 8.689,-3.838 8.689,-9.572 v -0.618 h -14.293"
       style="fill:#ffffff;fill-opacity:1;fill-rule:nonzero;stroke:none"
       transform="matrix(1.3333333,0,0,-1.3333333,0,328)"
       clip-path="url(#clipPath20)" />
    <path
       id="path21"
       d="m 302.668,133.433 h 3.309 V 104.01 h -3.309 z"
       style="fill:#ffffff;fill-opacity:1;fill-rule:nonzero;stroke:none"
       transform="matrix(1.3333333,0,0,-1.3333333,0,328)"
       clip-path="url(#clipPath22)" />
    <path
       id="path23"
       d="m 315.111,122.318 v -2.207 c 1.588,1.941 3,2.647 5.293,2.647 2.205,0 4.235,-0.97 5.25,-2.514 0.705,-1.147 1.014,-2.514 1.014,-4.897 V 104.01 h -3.131 v 10.808 c 0,3.75 -1.016,5.117 -3.883,5.117 -3.175,0 -4.543,-2.029 -4.543,-6.793 v -9.132 h -3.132 v 18.308 h 3.132"
       style="fill:#ffffff;fill-opacity:1;fill-rule:nonzero;stroke:none"
       transform="matrix(1.3333333,0,0,-1.3333333,0,328)"
       clip-path="url(#clipPath24)" />
    <path
       id="path25"
       d="m 339.078,118.038 c -0.662,1.235 -1.457,1.809 -2.515,1.809 -1.235,0 -2.25,-0.883 -2.25,-1.985 0,-1.103 0.574,-1.677 2.957,-2.648 4.41,-1.851 5.513,-2.999 5.513,-5.778 0,-3.353 -2.734,-5.955 -6.22,-5.955 -3.088,0 -5.249,1.544 -6.44,4.676 l 2.779,1.147 c 1.059,-2.25 1.94,-2.956 3.705,-2.956 1.676,0 2.956,1.235 2.956,2.868 0,1.411 -0.663,2.072 -2.956,3.043 -4.234,1.854 -5.293,2.912 -5.293,5.338 0,2.955 2.293,5.117 5.469,5.117 2.117,0 3.795,-1.103 4.897,-3.308 l -2.602,-1.368"
       style="fill:#ffffff;fill-opacity:1;fill-rule:nonzero;stroke:none"
       transform="matrix(1.3333333,0,0,-1.3333333,0,328)"
       clip-path="url(#clipPath26)" />
    <path
       id="path27"
       d="m 349.576,104.01 h -3.133 v 15.396 h -1.896 v 2.912 h 1.896 v 6.616 h 3.133 v -6.616 h 3.264 v -2.912 h -3.264 V 104.01"
       style="fill:#ffffff;fill-opacity:1;fill-rule:nonzero;stroke:none"
       transform="matrix(1.3333333,0,0,-1.3333333,0,328)"
       clip-path="url(#clipPath28)" />
    <path
       id="path29"
       d="M 355.367,122.318 H 358.5 V 104.01 h -3.133 z m 3.838,6.925 c 0,-1.236 -1.014,-2.249 -2.25,-2.249 -1.234,0 -2.25,1.013 -2.25,2.249 0,1.235 1.016,2.25 2.25,2.25 1.236,0 2.25,-1.015 2.25,-2.25"
       style="fill:#ffffff;fill-opacity:1;fill-rule:nonzero;stroke:none"
       transform="matrix(1.3333333,0,0,-1.3333333,0,328)"
       clip-path="url(#clipPath30)" />
    <path
       id="path31"
       d="m 366.947,104.01 h -3.133 v 15.396 h -1.896 v 2.912 h 1.896 v 6.616 h 3.133 v -6.616 h 3.264 v -2.912 h -3.264 V 104.01"
       style="fill:#ffffff;fill-opacity:1;fill-rule:nonzero;stroke:none"
       transform="matrix(1.3333333,0,0,-1.3333333,0,328)"
       clip-path="url(#clipPath32)" />
    <path
       id="path33"
       d="m 375.869,111.642 c 0,-3.705 1.236,-5.294 4.147,-5.294 2.867,0 4.103,1.589 4.103,5.294 v 10.676 h 3.131 v -11.03 c 0,-2.69 -0.439,-4.146 -1.676,-5.513 -1.322,-1.5 -3.308,-2.294 -5.558,-2.294 -2.293,0 -4.28,0.794 -5.602,2.294 -1.236,1.367 -1.676,2.823 -1.676,5.513 v 11.03 h 3.131 v -10.676"
       style="fill:#ffffff;fill-opacity:1;fill-rule:nonzero;stroke:none"
       transform="matrix(1.3333333,0,0,-1.3333333,0,328)"
       clip-path="url(#clipPath34)" />
    <path
       id="path35"
       d="m 395.619,104.01 h -3.131 v 15.396 h -1.898 v 2.912 h 1.898 v 6.616 h 3.131 v -6.616 h 3.266 v -2.912 h -3.266 V 104.01"
       style="fill:#ffffff;fill-opacity:1;fill-rule:nonzero;stroke:none"
       transform="matrix(1.3333333,0,0,-1.3333333,0,328)"
       clip-path="url(#clipPath36)" />
    <path
       id="path37"
       d="m 414.301,115.171 c -0.574,2.867 -2.692,4.72 -5.383,4.72 -2.647,0 -4.939,-1.985 -5.381,-4.72 z m -10.985,-2.647 c 0.176,-3.749 2.514,-6.176 5.823,-6.176 2.425,0 3.882,1.015 5.646,3.838 l 2.647,-1.5 c -2.03,-3.573 -4.719,-5.205 -8.469,-5.205 -5.295,0 -8.955,3.97 -8.955,9.705 0,5.602 3.705,9.528 8.91,9.528 5.205,0 8.691,-3.838 8.691,-9.572 v -0.618 h -14.293"
       style="fill:#ffffff;fill-opacity:1;fill-rule:nonzero;stroke:none"
       transform="matrix(1.3333333,0,0,-1.3333333,0,328)"
       clip-path="url(#clipPath38)" />
    <path
       id="path39"
       d="m 144.135,89.703 -1.34,-3.138 h 2.643 z m -1.704,-3.949 -0.94,-2.22 h -0.952 l 3.607,8.212 3.525,-8.212 h -0.963 l -0.929,2.22 h -3.348"
       style="fill:#dadada;fill-opacity:1;fill-rule:nonzero;stroke:none"
       transform="matrix(1.3333333,0,0,-1.3333333,0,328)"
       clip-path="url(#clipPath40)" />
    <path
       id="path41"
       d="m 150.409,84.344 c 1.997,0 3.314,1.234 3.314,3.103 0,1.89 -1.305,3.113 -3.314,3.113 h -0.763 v -6.216 z m -1.644,7.027 h 1.609 c 1.269,0 2.127,-0.271 2.879,-0.905 0.881,-0.728 1.351,-1.787 1.351,-3.031 0,-1.211 -0.482,-2.256 -1.375,-2.996 -0.775,-0.647 -1.598,-0.905 -2.867,-0.905 h -1.597 v 7.837"
       style="fill:#dadada;fill-opacity:1;fill-rule:nonzero;stroke:none"
       transform="matrix(1.3333333,0,0,-1.3333333,0,328)"
       clip-path="url(#clipPath42)" />
    <path
       id="path43"
       d="m 158.199,85.402 2.221,5.969 h 0.951 l -3.183,-8.295 -3.173,8.295 h 0.964 l 2.22,-5.969"
       style="fill:#dadada;fill-opacity:1;fill-rule:nonzero;stroke:none"
       transform="matrix(1.3333333,0,0,-1.3333333,0,328)"
       clip-path="url(#clipPath44)" />
    <path
       id="path45"
       d="m 164.565,89.703 -1.339,-3.138 h 2.643 z m -1.704,-3.949 -0.939,-2.22 h -0.952 l 3.607,8.212 3.525,-8.212 h -0.963 l -0.929,2.22 h -3.349"
       style="fill:#dadada;fill-opacity:1;fill-rule:nonzero;stroke:none"
       transform="matrix(1.3333333,0,0,-1.3333333,0,328)"
       clip-path="url(#clipPath46)" />
    <path
       id="path47"
       d="m 169.195,91.699 6.098,-6.403 v 6.075 h 0.881 v -8.19 l -6.098,6.392 v -6.039 h -0.881 v 8.165"
       style="fill:#dadada;fill-opacity:1;fill-rule:nonzero;stroke:none"
       transform="matrix(1.3333333,0,0,-1.3333333,0,328)"
       clip-path="url(#clipPath48)" />
    <path
       id="path49"
       d="m 184.245,89.644 c -0.764,0.727 -1.48,1.033 -2.386,1.033 -1.703,0 -3.148,-1.48 -3.148,-3.23 0,-1.787 1.422,-3.232 3.172,-3.232 0.87,0 1.61,0.318 2.362,1.023 v -1.082 c -0.764,-0.516 -1.504,-0.764 -2.339,-0.764 -2.244,0 -4.076,1.822 -4.076,4.031 0,2.233 1.844,4.076 4.088,4.076 0.882,0 1.527,-0.211 2.327,-0.775 v -1.08"
       style="fill:#dadada;fill-opacity:1;fill-rule:nonzero;stroke:none"
       transform="matrix(1.3333333,0,0,-1.3333333,0,328)"
       clip-path="url(#clipPath50)" />
    <path
       id="path51"
       d="m 185.855,91.371 h 0.881 v -7.837 h -0.881 z"
       style="fill:#dadada;fill-opacity:1;fill-rule:nonzero;stroke:none"
       transform="matrix(1.3333333,0,0,-1.3333333,0,328)"
       clip-path="url(#clipPath52)" />
    <path
       id="path53"
       d="m 188.77,91.699 6.097,-6.403 v 6.075 h 0.881 v -8.19 l -6.098,6.392 v -6.039 h -0.88 v 8.165"
       style="fill:#dadada;fill-opacity:1;fill-rule:nonzero;stroke:none"
       transform="matrix(1.3333333,0,0,-1.3333333,0,328)"
       clip-path="url(#clipPath54)" />
    <path
       id="path55"
       d="m 205.149,87.47 v -0.2 c 0,-1.116 -0.199,-1.81 -0.728,-2.468 -0.705,-0.881 -1.821,-1.41 -2.984,-1.41 -2.198,0 -4.018,1.834 -4.018,4.043 0,2.268 1.832,4.064 4.136,4.064 1.28,0 2.256,-0.516 3.254,-1.703 l -0.647,-0.588 c -0.764,1.011 -1.574,1.469 -2.607,1.469 -1.822,0 -3.255,-1.433 -3.255,-3.254 0,-1.763 1.445,-3.208 3.183,-3.208 0.941,0 1.94,0.552 2.41,1.339 0.199,0.317 0.282,0.623 0.317,1.106 h -2.327 v 0.81 h 3.266"
       style="fill:#dadada;fill-opacity:1;fill-rule:nonzero;stroke:none"
       transform="matrix(1.3333333,0,0,-1.3333333,0,328)"
       clip-path="url(#clipPath56)" />
    <path
       id="path57"
       d="m 211.342,84.344 c 1.997,0 3.313,1.234 3.313,3.103 0,1.89 -1.304,3.113 -3.313,3.113 h -0.764 v -6.216 z m -1.645,7.027 h 1.61 c 1.268,0 2.127,-0.271 2.879,-0.905 0.88,-0.728 1.35,-1.787 1.35,-3.031 0,-1.211 -0.481,-2.256 -1.374,-2.996 -0.775,-0.647 -1.599,-0.905 -2.867,-0.905 h -1.598 v 7.837"
       style="fill:#dadada;fill-opacity:1;fill-rule:nonzero;stroke:none"
       transform="matrix(1.3333333,0,0,-1.3333333,0,328)"
       clip-path="url(#clipPath58)" />
    <path
       id="path59"
       d="m 219.46,89.703 -1.34,-3.138 h 2.644 z m -1.704,-3.949 -0.94,-2.22 h -0.952 l 3.608,8.212 3.524,-8.212 h -0.963 l -0.929,2.22 h -3.348"
       style="fill:#dadada;fill-opacity:1;fill-rule:nonzero;stroke:none"
       transform="matrix(1.3333333,0,0,-1.3333333,0,328)"
       clip-path="url(#clipPath60)" />
    <path
       id="path61"
       d="m 225.511,83.534 h -0.882 v 7.026 h -1.892 v 0.811 h 4.677 V 90.56 h -1.903 v -7.026"
       style="fill:#dadada;fill-opacity:1;fill-rule:nonzero;stroke:none"
       transform="matrix(1.3333333,0,0,-1.3333333,0,328)"
       clip-path="url(#clipPath62)" />
    <path
       id="path63"
       d="m 230.774,89.703 -1.339,-3.138 h 2.643 z m -1.704,-3.949 -0.939,-2.22 h -0.952 l 3.607,8.212 3.525,-8.212 h -0.963 l -0.929,2.22 h -3.349"
       style="fill:#dadada;fill-opacity:1;fill-rule:nonzero;stroke:none"
       transform="matrix(1.3333333,0,0,-1.3333333,0,328)"
       clip-path="url(#clipPath64)" />
    <path
       id="path65"
       d="m 234.958,86.412 h 2.127 V 85.66 h -2.127 z"
       style="fill:#dadada;fill-opacity:1;fill-rule:nonzero;stroke:none"
       transform="matrix(1.3333333,0,0,-1.3333333,0,328)"
       clip-path="url(#clipPath66)" />
    <path
       id="path67"
       d="m 238.107,91.371 h 0.881 v -7.837 h -0.881 z"
       style="fill:#dadada;fill-opacity:1;fill-rule:nonzero;stroke:none"
       transform="matrix(1.3333333,0,0,-1.3333333,0,328)"
       clip-path="url(#clipPath68)" />
    <path
       id="path69"
       d="m 241.021,91.699 6.098,-6.403 v 6.075 H 248 v -8.19 l -6.098,6.392 v -6.039 h -0.881 v 8.165"
       style="fill:#dadada;fill-opacity:1;fill-rule:nonzero;stroke:none"
       transform="matrix(1.3333333,0,0,-1.3333333,0,328)"
       clip-path="url(#clipPath70)" />
    <path
       id="path71"
       d="m 251.937,83.534 h -0.882 v 7.026 h -1.892 v 0.811 h 4.677 V 90.56 h -1.903 v -7.026"
       style="fill:#dadada;fill-opacity:1;fill-rule:nonzero;stroke:none"
       transform="matrix(1.3333333,0,0,-1.3333333,0,328)"
       clip-path="url(#clipPath72)" />
    <path
       id="path73"
       d="m 255.907,90.56 v -2.338 h 3.09 v -0.81 h -3.09 v -3.068 h 3.173 v -0.81 h -4.054 v 7.837 h 4.054 V 90.56 h -3.173"
       style="fill:#dadada;fill-opacity:1;fill-rule:nonzero;stroke:none"
       transform="matrix(1.3333333,0,0,-1.3333333,0,328)"
       clip-path="url(#clipPath74)" />
    <path
       id="path75"
       d="m 260.689,91.699 6.098,-6.403 v 6.075 h 0.881 v -8.19 l -6.098,6.392 v -6.039 h -0.881 v 8.165"
       style="fill:#dadada;fill-opacity:1;fill-rule:nonzero;stroke:none"
       transform="matrix(1.3333333,0,0,-1.3333333,0,328)"
       clip-path="url(#clipPath76)" />
    <path
       id="path77"
       d="m 273.19,89.831 c -0.399,0.635 -0.74,0.846 -1.351,0.846 -0.729,0 -1.292,-0.517 -1.292,-1.21 0,-0.341 0.164,-0.623 0.493,-0.846 0.189,-0.118 0.388,-0.235 0.611,-0.329 l 0.247,-0.117 0.247,-0.106 0.247,-0.106 c 1.256,-0.551 1.774,-1.175 1.774,-2.15 0,-1.351 -1.081,-2.421 -2.468,-2.421 -1.257,0 -2.127,0.729 -2.431,2.021 l 0.845,0.235 c 0.211,-0.94 0.752,-1.433 1.575,-1.433 0.904,0 1.597,0.669 1.597,1.539 0,0.482 -0.211,0.846 -0.645,1.117 -0.201,0.128 -0.424,0.246 -0.682,0.352 l -0.235,0.117 -0.236,0.107 -0.234,0.105 c -1.128,0.505 -1.586,1.057 -1.586,1.939 0,1.139 0.951,2.008 2.196,2.008 0.882,0 1.552,-0.411 2.022,-1.221 l -0.694,-0.447"
       style="fill:#dadada;fill-opacity:1;fill-rule:nonzero;stroke:none"
       transform="matrix(1.3333333,0,0,-1.3333333,0,328)"
       clip-path="url(#clipPath78)" />
    <path
       id="path79"
       d="m 275.775,91.371 h 0.881 v -7.837 h -0.881 z"
       style="fill:#dadada;fill-opacity:1;fill-rule:nonzero;stroke:none"
       transform="matrix(1.3333333,0,0,-1.3333333,0,328)"
       clip-path="url(#clipPath80)" />
    <path
       id="path81"
       d="m 280.934,85.402 2.22,5.969 h 0.951 l -3.183,-8.295 -3.173,8.295 h 0.964 l 2.221,-5.969"
       style="fill:#dadada;fill-opacity:1;fill-rule:nonzero;stroke:none"
       transform="matrix(1.3333333,0,0,-1.3333333,0,328)"
       clip-path="url(#clipPath82)" />
    <path
       id="path83"
       d="m 286.079,90.56 v -2.338 h 3.09 v -0.81 h -3.09 v -3.068 h 3.173 v -0.81 h -4.054 v 7.837 h 4.054 V 90.56 h -3.173"
       style="fill:#dadada;fill-opacity:1;fill-rule:nonzero;stroke:none"
       transform="matrix(1.3333333,0,0,-1.3333333,0,328)"
       clip-path="url(#clipPath84)" />
    <path
       id="path85"
       d="m 295.443,84.344 c 1.997,0 3.314,1.234 3.314,3.103 0,1.89 -1.305,3.113 -3.314,3.113 h -0.763 v -6.216 z m -1.644,7.027 h 1.609 c 1.269,0 2.127,-0.271 2.879,-0.905 0.881,-0.728 1.351,-1.787 1.351,-3.031 0,-1.211 -0.482,-2.256 -1.374,-2.996 -0.776,-0.647 -1.599,-0.905 -2.868,-0.905 h -1.597 v 7.837"
       style="fill:#dadada;fill-opacity:1;fill-rule:nonzero;stroke:none"
       transform="matrix(1.3333333,0,0,-1.3333333,0,328)"
       clip-path="url(#clipPath86)" />
    <path
       id="path87"
       d="m 301.236,91.371 h 0.881 v -7.837 h -0.881 z"
       style="fill:#dadada;fill-opacity:1;fill-rule:nonzero;stroke:none"
       transform="matrix(1.3333333,0,0,-1.3333333,0,328)"
       clip-path="url(#clipPath88)" />
    <path
       id="path89"
       d="m 307.64,89.831 c -0.4,0.635 -0.741,0.846 -1.352,0.846 -0.728,0 -1.292,-0.517 -1.292,-1.21 0,-0.341 0.164,-0.623 0.493,-0.846 0.189,-0.118 0.388,-0.235 0.612,-0.329 l 0.247,-0.117 0.246,-0.106 0.247,-0.106 c 1.257,-0.551 1.774,-1.175 1.774,-2.15 0,-1.351 -1.081,-2.421 -2.468,-2.421 -1.256,0 -2.126,0.729 -2.431,2.021 l 0.846,0.235 c 0.21,-0.94 0.751,-1.433 1.574,-1.433 0.904,0 1.597,0.669 1.597,1.539 0,0.482 -0.211,0.846 -0.645,1.117 -0.2,0.128 -0.424,0.246 -0.682,0.352 l -0.235,0.117 -0.235,0.107 -0.235,0.105 c -1.128,0.505 -1.586,1.057 -1.586,1.939 0,1.139 0.951,2.008 2.197,2.008 0.881,0 1.551,-0.411 2.021,-1.221 l -0.693,-0.447"
       style="fill:#dadada;fill-opacity:1;fill-rule:nonzero;stroke:none"
       transform="matrix(1.3333333,0,0,-1.3333333,0,328)"
       clip-path="url(#clipPath90)" />
    <path
       id="path91"
       d="m 316.205,89.644 c -0.764,0.727 -1.48,1.033 -2.386,1.033 -1.703,0 -3.148,-1.48 -3.148,-3.23 0,-1.787 1.422,-3.232 3.172,-3.232 0.87,0 1.61,0.318 2.362,1.023 v -1.082 c -0.764,-0.516 -1.504,-0.764 -2.339,-0.764 -2.244,0 -4.076,1.822 -4.076,4.031 0,2.233 1.844,4.076 4.088,4.076 0.882,0 1.528,-0.211 2.327,-0.775 v -1.08"
       style="fill:#dadada;fill-opacity:1;fill-rule:nonzero;stroke:none"
       transform="matrix(1.3333333,0,0,-1.3333333,0,328)"
       clip-path="url(#clipPath92)" />
    <path
       id="path93"
       d="m 318.167,87.435 c 0,-1.775 1.434,-3.22 3.195,-3.22 1.763,0 3.197,1.445 3.197,3.22 0,1.797 -1.422,3.242 -3.197,3.242 -1.773,0 -3.195,-1.433 -3.195,-3.242 z m 7.272,0.012 c 0,-2.221 -1.844,-4.055 -4.065,-4.055 -2.256,0 -4.088,1.811 -4.088,4.043 0,2.232 1.844,4.064 4.088,4.064 2.221,0 4.065,-1.832 4.065,-4.052"
       style="fill:#dadada;fill-opacity:1;fill-rule:nonzero;stroke:none"
       transform="matrix(1.3333333,0,0,-1.3333333,0,328)"
       clip-path="url(#clipPath94)" />
    <path
       id="path95"
       d="m 329.013,85.402 2.22,5.969 h 0.952 l -3.184,-8.295 -3.173,8.295 h 0.964 l 2.221,-5.969"
       style="fill:#dadada;fill-opacity:1;fill-rule:nonzero;stroke:none"
       transform="matrix(1.3333333,0,0,-1.3333333,0,328)"
       clip-path="url(#clipPath96)" />
    <path
       id="path97"
       d="m 334.159,90.56 v -2.338 h 3.09 v -0.81 h -3.09 v -3.068 h 3.173 v -0.81 h -4.054 v 7.837 h 4.054 V 90.56 h -3.173"
       style="fill:#dadada;fill-opacity:1;fill-rule:nonzero;stroke:none"
       transform="matrix(1.3333333,0,0,-1.3333333,0,328)"
       clip-path="url(#clipPath98)" />
    <path
       id="path99"
       d="m 340.374,87.74 c 1.128,0 1.727,0.506 1.727,1.468 0,0.881 -0.611,1.352 -1.763,1.352 h -0.517 v -2.82 z m 3.102,-4.206 h -1.07 l -2.361,3.43 h -0.224 v -3.43 h -0.881 v 7.837 h 1.269 c 0.893,0 1.434,-0.118 1.88,-0.424 0.528,-0.364 0.869,-1.034 0.869,-1.739 0,-1.221 -0.764,-2.056 -1.974,-2.173 l 2.492,-3.501"
       style="fill:#dadada;fill-opacity:1;fill-rule:nonzero;stroke:none"
       transform="matrix(1.3333333,0,0,-1.3333333,0,328)"
       clip-path="url(#clipPath100)" />
    <path
       id="path101"
       d="m 343.595,91.371 h 1.01 l 1.998,-3.502 2.021,3.502 h 1.022 l -2.609,-4.465 v -3.372 h -0.881 v 3.372 l -2.561,4.465"
       style="fill:#dadada;fill-opacity:1;fill-rule:nonzero;stroke:none"
       transform="matrix(1.3333333,0,0,-1.3333333,0,328)"
       clip-path="url(#clipPath102)" />
    <path
       id="path103"
       d="m 353.677,91.371 h 0.881 v -7.837 h -0.881 z"
       style="fill:#dadada;fill-opacity:1;fill-rule:nonzero;stroke:none"
       transform="matrix(1.3333333,0,0,-1.3333333,0,328)"
       clip-path="url(#clipPath104)" />
    <path
       id="path105"
       d="m 356.591,91.699 6.097,-6.403 v 6.075 h 0.881 v -8.19 l -6.097,6.392 v -6.039 h -0.881 v 8.165"
       style="fill:#dadada;fill-opacity:1;fill-rule:nonzero;stroke:none"
       transform="matrix(1.3333333,0,0,-1.3333333,0,328)"
       clip-path="url(#clipPath106)" />
    <path
       id="path107"
       d="m 371.195,89.703 -1.34,-3.138 h 2.644 z m -1.704,-3.949 -0.939,-2.22 H 367.6 l 3.607,8.212 3.524,-8.212 h -0.962 l -0.929,2.22 h -3.349"
       style="fill:#dadada;fill-opacity:1;fill-rule:nonzero;stroke:none"
       transform="matrix(1.3333333,0,0,-1.3333333,0,328)"
       clip-path="url(#clipPath108)" />
    <path
       id="path109"
       d="m 376.706,84.344 h 2.15 v -0.81 h -3.031 v 7.837 h 0.881 v -7.027"
       style="fill:#dadada;fill-opacity:1;fill-rule:nonzero;stroke:none"
       transform="matrix(1.3333333,0,0,-1.3333333,0,328)"
       clip-path="url(#clipPath110)" />
    <path
       id="path111"
       d="m 380.912,84.344 h 2.151 v -0.81 h -3.032 v 7.837 h 0.881 v -7.027"
       style="fill:#dadada;fill-opacity:1;fill-rule:nonzero;stroke:none"
       transform="matrix(1.3333333,0,0,-1.3333333,0,328)"
       clip-path="url(#clipPath112)" />
    <path
       id="path113"
       d="m 388.056,90.56 v -2.338 h 2.596 v -0.81 h -2.596 v -3.878 h -0.881 v 7.837 h 3.559 V 90.56 h -2.678"
       style="fill:#dadada;fill-opacity:1;fill-rule:nonzero;stroke:none"
       transform="matrix(1.3333333,0,0,-1.3333333,0,328)"
       clip-path="url(#clipPath114)" />
    <path
       id="path115"
       d="m 392.263,91.371 h 0.881 v -7.837 h -0.881 z"
       style="fill:#dadada;fill-opacity:1;fill-rule:nonzero;stroke:none"
       transform="matrix(1.3333333,0,0,-1.3333333,0,328)"
       clip-path="url(#clipPath116)" />
    <path
       id="path117"
       d="m 396.058,90.56 v -2.338 h 3.089 v -0.81 h -3.089 v -3.068 h 3.172 v -0.81 h -4.053 v 7.837 h 4.053 V 90.56 h -3.172"
       style="fill:#dadada;fill-opacity:1;fill-rule:nonzero;stroke:none"
       transform="matrix(1.3333333,0,0,-1.3333333,0,328)"
       clip-path="url(#clipPath118)" />
    <path
       id="path119"
       d="m 401.721,84.344 h 2.15 v -0.81 h -3.031 v 7.837 h 0.881 v -7.027"
       style="fill:#dadada;fill-opacity:1;fill-rule:nonzero;stroke:none"
       transform="matrix(1.3333333,0,0,-1.3333333,0,328)"
       clip-path="url(#clipPath120)" />
    <path
       id="path121"
       d="m 406.69,84.344 c 1.998,0 3.314,1.234 3.314,3.103 0,1.89 -1.305,3.113 -3.314,3.113 h -0.763 v -6.216 z m -1.644,7.027 h 1.609 c 1.269,0 2.127,-0.271 2.879,-0.905 0.881,-0.728 1.351,-1.787 1.351,-3.031 0,-1.211 -0.482,-2.256 -1.374,-2.996 -0.776,-0.647 -1.599,-0.905 -2.867,-0.905 h -1.598 v 7.837"
       style="fill:#dadada;fill-opacity:1;fill-rule:nonzero;stroke:none"
       transform="matrix(1.3333333,0,0,-1.3333333,0,328)"
       clip-path="url(#clipPath122)" />
    <path
       id="path123"
       d="m 415.973,89.831 c -0.4,0.635 -0.741,0.846 -1.352,0.846 -0.728,0 -1.292,-0.517 -1.292,-1.21 0,-0.341 0.164,-0.623 0.493,-0.846 0.189,-0.118 0.388,-0.235 0.612,-0.329 l 0.247,-0.117 0.246,-0.106 0.247,-0.106 c 1.257,-0.551 1.774,-1.175 1.774,-2.15 0,-1.351 -1.081,-2.421 -2.468,-2.421 -1.256,0 -2.126,0.729 -2.431,2.021 l 0.846,0.235 c 0.21,-0.94 0.751,-1.433 1.574,-1.433 0.904,0 1.597,0.669 1.597,1.539 0,0.482 -0.211,0.846 -0.645,1.117 -0.2,0.128 -0.424,0.246 -0.682,0.352 l -0.235,0.117 -0.235,0.107 -0.235,0.105 c -1.128,0.505 -1.586,1.057 -1.586,1.939 0,1.139 0.951,2.008 2.197,2.008 0.881,0 1.551,-0.411 2.021,-1.221 l -0.693,-0.447"
       style="fill:#dadada;fill-opacity:1;fill-rule:nonzero;stroke:none"
       transform="matrix(1.3333333,0,0,-1.3333333,0,328)"
       clip-path="url(#clipPath124)" />
    <path
       id="path125"
       d="m 115.713,114.157 c -0.005,0.022 -0.011,0.044 -0.017,0.066 0.006,-0.022 0.012,-0.045 0.017,-0.066 z m 5.787,5.561 c 2.206,0 4,-1.794 4,-4 0,-2.206 -1.794,-4 -4,-4 -2.206,0 -4,1.794 -4,4 0,2.206 1.794,4 4,4 z M 98.577,85.592 c -0.355,-1.065 -1.555,-1.682 -2.636,-1.321 -0.527,0.175 -0.956,0.545 -1.206,1.042 -0.249,0.497 -0.291,1.061 -0.116,1.588 0.284,0.856 1.08,1.431 1.98,1.431 0.221,0 0.442,-0.036 0.654,-0.106 1.09,-0.362 1.684,-1.545 1.324,-2.634 z m 27.062,18.539 c 0.029,0.238 0.079,0.476 0.157,0.713 -0.077,-0.236 -0.124,-0.474 -0.157,-0.713 z m 2.056,0.084 c 0.284,0.856 1.079,1.43 1.98,1.43 0.221,0 0.442,-0.036 0.654,-0.107 1.091,-0.362 1.684,-1.542 1.323,-2.632 -0.352,-1.066 -1.552,-1.679 -2.633,-1.323 -1.089,0.361 -1.683,1.542 -1.324,2.632 z m -20.783,-4.947 c 0.543,1.641 2.067,2.743 3.794,2.743 0.426,0 0.851,-0.069 1.26,-0.205 2.092,-0.694 3.23,-2.962 2.538,-5.055 -0.544,-1.64 -2.07,-2.743 -3.796,-2.743 -0.426,0 -0.849,0.069 -1.258,0.204 -2.094,0.695 -3.232,2.962 -2.538,5.056 z m 0.069,-14.761 c 0.026,0.011 0.052,0.022 0.079,0.032 -0.027,-0.01 -0.053,-0.021 -0.079,-0.032 z m 3.645,-1.693 c 2.093,-0.694 3.232,-2.962 2.54,-5.055 -0.544,-1.64 -2.07,-2.743 -3.797,-2.743 -0.427,0 -0.85,0.068 -1.259,0.204 -1.014,0.336 -1.837,1.048 -2.316,2.003 -0.48,0.955 -0.559,2.038 -0.222,3.053 0.543,1.64 2.068,2.743 3.794,2.743 0.426,0 0.851,-0.069 1.26,-0.205 z m -25.868,8.264 c -0.544,-1.64 -2.069,-2.743 -3.797,-2.743 -0.426,0 -0.85,0.07 -1.259,0.205 -2.095,0.695 -3.234,2.962 -2.54,5.054 0.545,1.641 2.071,2.743 3.797,2.743 0.426,0 0.85,-0.069 1.26,-0.205 1.014,-0.336 1.837,-1.046 2.316,-2.001 0.48,-0.954 0.558,-2.039 0.223,-3.053 z m -7.395,15.71 c -1.148,0 -2.082,0.934 -2.082,2.083 0,1.149 0.934,2.083 2.082,2.083 1.149,0 2.084,-0.934 2.084,-2.083 0,-1.149 -0.935,-2.083 -2.084,-2.083 z m -7.211,15.144 c -0.01,-0.021 -0.02,-0.043 -0.03,-0.063 0.01,0.02 0.02,0.042 0.03,0.063 z m -5.379,-1.358 c -2.205,0 -4,1.794 -4,4 0,2.205 1.795,3.999 4,3.999 2.206,0 4,-1.794 4,-3.999 0,-2.206 -1.794,-4 -4,-4 z m 28.339,-0.707 c -0.003,-0.001 -0.007,-0.002 -0.01,-0.003 0.003,10e-4 0.007,0.002 0.01,0.003 z m -3.305,3.877 c 0,1.149 0.935,2.084 2.084,2.084 1.149,0 2.084,-0.935 2.084,-2.084 0,-1.15 -0.935,-2.084 -2.084,-2.084 -1.149,0 -2.084,0.934 -2.084,2.084 z m 9.685,19.923 c 0,1.149 0.935,2.084 2.084,2.084 1.149,0 2.084,-0.935 2.084,-2.084 0,-1.149 -0.935,-2.084 -2.084,-2.084 -1.149,0 -2.084,0.935 -2.084,2.084 z m 8.256,-16.593 c -0.011,0.005 -0.021,0.011 -0.032,0.018 0.011,-0.007 0.021,-0.013 0.032,-0.018 z m -1.407,5.781 c -0.124,2.754 2.016,5.096 4.77,5.221 0.077,0.003 0.154,0.005 0.23,0.005 2.679,0 4.87,-2.097 4.99,-4.774 0.125,-2.753 -2.014,-5.096 -4.769,-5.221 -2.769,-0.135 -5.096,2.015 -5.221,4.769 z m 18.759,24.657 c 1.116,0 2.029,-0.874 2.079,-1.99 0.051,-1.148 -0.841,-2.124 -1.988,-2.176 l -0.097,-0.002 c -1.115,0 -2.028,0.874 -2.079,1.989 -0.052,1.148 0.841,2.124 2.085,2.179 z m 1.204,-27.427 c -0.017,0.022 -0.034,0.044 -0.051,0.067 0.017,-0.023 0.034,-0.045 0.051,-0.067 z m 4.837,7.535 c 2.205,0 4,-1.794 4,-4 0,-2.206 -1.795,-4 -4,-4 -2.206,0 -4,1.794 -4,4 0,2.206 1.794,4 4,4 z m -27.496,-26.009 c -0.138,0.351 -0.299,0.689 -0.485,1.013 l 23.589,16.922 c 1.096,-1.181 2.656,-1.925 4.392,-1.925 3.308,0 6,2.69 6,5.999 0,3.309 -2.692,6 -6,6 -3.309,0 -6,-2.691 -6,-6 0,-1.035 0.263,-2.01 0.727,-2.861 l -10e-4,0.001 -23.582,-16.918 c -0.335,0.38 -0.707,0.725 -1.112,1.03 l 7.222,11.86 c -10e-4,0.001 -0.003,0.001 -0.004,0.002 0.895,-0.415 1.889,-0.653 2.94,-0.653 0.107,0 0.214,0.002 0.322,0.007 3.856,0.176 6.851,3.455 6.676,7.309 -0.096,2.136 -1.132,4.008 -2.699,5.224 0,0 0.001,-0.001 0.002,-0.001 l 7.93,13.022 c 0.473,-0.192 0.99,-0.298 1.532,-0.298 l 0.187,0.004 c 2.249,0.102 3.996,2.014 3.896,4.264 -0.098,2.186 -1.889,3.9 -4.077,3.9 l -0.186,-0.005 c -2.25,-0.102 -3.998,-2.014 -3.897,-4.264 0.05,-1.105 0.535,-2.087 1.282,-2.79 l -7.943,-13.046 c -1.002,0.477 -2.136,0.723 -3.335,0.667 -3.855,-0.175 -6.851,-3.453 -6.678,-7.309 0.098,-2.165 1.167,-4.054 2.772,-5.268 -0.003,0.002 -0.005,0.003 -0.008,0.005 l -7.215,-11.85 c -0.457,0.219 -0.938,0.392 -1.441,0.515 l 3.382,23.442 c -0.087,-0.006 -0.169,-0.026 -0.257,-0.026 -0.228,0 -0.45,0.026 -0.666,0.067 0.218,-0.036 0.438,-0.067 0.666,-0.067 2.252,0 4.084,1.832 4.084,4.084 0,2.252 -1.832,4.084 -4.084,4.084 -2.252,0 -4.084,-1.832 -4.084,-4.084 0,-1.82 1.204,-3.347 2.852,-3.873 l -3.378,-23.418 c -0.103,0.004 -0.203,0.016 -0.306,0.016 -0.549,0 -1.082,-0.063 -1.598,-0.175 l -1.267,3.936 h -0.001 c 1.291,0.686 2.181,2.03 2.181,3.591 0,2.252 -1.832,4.084 -4.084,4.084 -2.252,0 -4.084,-1.832 -4.084,-4.084 0,-2.252 1.832,-4.084 4.084,-4.084 0.161,0 0.315,0.029 0.471,0.047 l 1.274,-3.955 c -1.391,-0.614 -2.557,-1.64 -3.35,-2.923 l -19.857,9.76 c 0.219,0.622 0.344,1.288 0.344,1.985 0,3.308 -2.691,5.999 -6,5.999 -3.308,0 -6,-2.691 -6,-5.999 0,-3.309 2.692,-6 6,-6 2.079,0 3.913,1.063 4.99,2.673 0,-0.001 0,-0.001 -0.001,-0.001 l 19.867,-9.765 c -0.214,-0.58 -0.366,-1.191 -0.43,-1.828 l -7.834,0.034 c 0.054,-0.264 0.082,-0.537 0.082,-0.816 0,2.251 -1.832,4.083 -4.084,4.083 -2.251,0 -4.082,-1.832 -4.082,-4.083 0,-2.251 1.831,-4.083 4.082,-4.083 2.018,0 3.687,1.474 4.015,3.399 l 7.819,-0.034 c 0.157,-1.595 0.816,-3.039 1.813,-4.183 l -6.446,-6.864 0.001,-10e-4 c -0.517,0.39 -1.085,0.717 -1.717,0.926 -0.613,0.203 -1.249,0.306 -1.889,0.306 -2.589,0 -4.878,-1.653 -5.695,-4.113 -0.505,-1.52 -0.386,-3.147 0.334,-4.579 0.719,-1.433 1.953,-2.498 3.474,-3.003 0.613,-0.203 1.249,-0.307 1.889,-0.307 2.591,0 4.879,1.654 5.695,4.114 0.504,1.521 0.385,3.148 -0.333,4.58 -0.317,0.631 -0.748,1.175 -1.245,1.647 0.205,-0.186 0.4,-0.385 0.573,-0.603 l 6.453,6.871 c 1.074,-0.823 2.371,-1.369 3.791,-1.513 L 95.9,90.269 c -1.464,-0.253 -2.698,-1.288 -3.179,-2.738 -0.343,-1.035 -0.262,-2.142 0.228,-3.117 0.489,-0.973 1.329,-1.699 2.362,-2.042 0.418,-0.138 0.851,-0.209 1.288,-0.209 1.761,0 3.319,1.124 3.876,2.799 0.707,2.137 -0.455,4.452 -2.593,5.162 -0.157,0.053 -0.32,0.086 -0.482,0.119 l -0.005,11.186 c 0.508,0.05 1.002,0.15 1.476,0.295 l 7.473,-17.54 c -1.229,-0.72 -2.2,-1.857 -2.67,-3.279 -0.506,-1.521 -0.387,-3.147 0.332,-4.58 0.72,-1.432 1.953,-2.498 3.474,-3.003 0.613,-0.203 1.248,-0.306 1.889,-0.306 2.59,0 4.88,1.653 5.695,4.114 1.04,3.14 -0.669,6.541 -3.808,7.582 -0.613,0.203 -1.249,0.307 -1.89,0.307 -0.568,0 -1.117,-0.093 -1.644,-0.243 l -7.47,17.531 c 0.668,0.365 1.271,0.832 1.796,1.375 l 3.462,-2.702 c 10e-4,10e-4 0.002,0.003 0.003,0.004 -0.196,-0.344 -0.371,-0.701 -0.499,-1.088 -1.041,-3.14 0.666,-6.541 3.806,-7.582 0.613,-0.203 1.248,-0.306 1.888,-0.306 2.59,0 4.878,1.654 5.694,4.114 1.039,3.14 -0.668,6.541 -3.806,7.582 -0.614,0.204 -1.249,0.307 -1.89,0.307 -1.674,0 -3.214,-0.697 -4.319,-1.849 0.007,0.006 0.011,0.014 0.018,0.021 l -3.428,2.676 c 0.406,0.635 0.717,1.335 0.918,2.082 l 21.712,-3.498 c 0,0.002 0.001,0.004 0,0.006 0.05,-1.669 1.111,-3.21 2.784,-3.764 0.417,-0.138 0.849,-0.208 1.285,-0.208 1.763,0 3.321,1.125 3.875,2.8 0.707,2.135 -0.455,4.45 -2.592,5.16 -0.417,0.138 -0.849,0.208 -1.284,0.208 -1.734,0 -3.263,-1.09 -3.844,-2.719 l -21.695,3.494 c 0.01,0.158 0.024,0.313 0.024,0.472 0,0.435 -0.045,0.857 -0.116,1.272 l 11.894,3.315 c -0.001,0.002 -0.002,0.005 -0.003,0.007 0.888,-2.205 3.045,-3.768 5.565,-3.768 3.309,0 6,2.692 6,6 0,3.309 -2.691,6 -6,6 -3.309,0 -6,-2.691 -6,-6 0,-0.268 0.024,-0.53 0.058,-0.79 0,0.001 0,0.002 0,0.003 l -11.913,-3.32"
       style="fill:#ffffff;fill-opacity:1;fill-rule:nonzero;stroke:none"
       transform="matrix(1.3333333,0,0,-1.3333333,0,328)"
       clip-path="url(#clipPath126)" />
  </g>
</svg>
